G75*
%MOIN*%
%OFA0B0*%
%FSLAX24Y24*%
%IPPOS*%
%LPD*%
%AMOC8*
5,1,8,0,0,1.08239X$1,22.5*
%
%ADD10C,0.0050*%
%ADD11C,0.0080*%
%ADD12C,0.0030*%
%ADD13C,0.0010*%
%ADD14C,0.0060*%
%ADD15C,0.0100*%
D10*
X005324Y003891D02*
X007036Y003891D01*
X007036Y008469D01*
X005324Y008469D01*
X005324Y003891D01*
X029524Y015535D02*
X029704Y015535D01*
X029614Y015535D02*
X029614Y015805D01*
X029524Y015715D01*
X029818Y015580D02*
X029863Y015580D01*
X029863Y015535D01*
X029818Y015535D01*
X029818Y015580D01*
X029966Y015535D02*
X030146Y015715D01*
X030146Y015760D01*
X030101Y015805D01*
X030011Y015805D01*
X029966Y015760D01*
X029966Y015535D02*
X030146Y015535D01*
X030260Y015535D02*
X030260Y015805D01*
X030305Y015670D02*
X030441Y015535D01*
X030260Y015625D02*
X030441Y015805D01*
X032180Y016180D02*
X034180Y016180D01*
X034180Y018180D01*
X032180Y018180D01*
X032180Y016180D01*
X033180Y016680D02*
X033180Y017180D01*
X032389Y017180D02*
X032391Y017236D01*
X032397Y017291D01*
X032407Y017346D01*
X032420Y017400D01*
X032438Y017453D01*
X032459Y017505D01*
X032484Y017555D01*
X032512Y017603D01*
X032543Y017649D01*
X032578Y017693D01*
X032616Y017734D01*
X032656Y017773D01*
X032699Y017808D01*
X032745Y017841D01*
X032793Y017870D01*
X032842Y017895D01*
X032893Y017917D01*
X032946Y017936D01*
X033000Y017950D01*
X033055Y017961D01*
X033110Y017968D01*
X033166Y017971D01*
X033222Y017970D01*
X033277Y017965D01*
X033333Y017956D01*
X033387Y017943D01*
X033440Y017927D01*
X033492Y017907D01*
X033543Y017883D01*
X033592Y017856D01*
X033638Y017825D01*
X033682Y017791D01*
X033724Y017754D01*
X033763Y017714D01*
X033800Y017672D01*
X033833Y017627D01*
X033863Y017580D01*
X033889Y017530D01*
X033912Y017479D01*
X033931Y017427D01*
X033947Y017373D01*
X033959Y017319D01*
X033967Y017264D01*
X033971Y017208D01*
X033971Y017152D01*
X033967Y017096D01*
X033959Y017041D01*
X033947Y016987D01*
X033931Y016933D01*
X033912Y016881D01*
X033889Y016830D01*
X033863Y016780D01*
X033833Y016733D01*
X033800Y016688D01*
X033763Y016646D01*
X033724Y016606D01*
X033682Y016569D01*
X033638Y016535D01*
X033592Y016504D01*
X033543Y016477D01*
X033492Y016453D01*
X033440Y016433D01*
X033387Y016417D01*
X033333Y016404D01*
X033277Y016395D01*
X033222Y016390D01*
X033166Y016389D01*
X033110Y016392D01*
X033055Y016399D01*
X033000Y016410D01*
X032946Y016424D01*
X032893Y016443D01*
X032842Y016465D01*
X032793Y016490D01*
X032745Y016519D01*
X032699Y016552D01*
X032656Y016587D01*
X032616Y016626D01*
X032578Y016667D01*
X032543Y016711D01*
X032512Y016757D01*
X032484Y016805D01*
X032459Y016855D01*
X032438Y016907D01*
X032420Y016960D01*
X032407Y017014D01*
X032397Y017069D01*
X032391Y017124D01*
X032389Y017180D01*
X032680Y017180D02*
X033180Y017180D01*
X033180Y017680D01*
X033180Y017180D02*
X033680Y017180D01*
D11*
X030952Y016330D02*
X027408Y016330D01*
X027408Y015030D01*
X030952Y015030D01*
X030952Y016330D01*
X031580Y012880D02*
X031680Y012880D01*
X031680Y010480D01*
X031580Y010480D01*
X031430Y004680D02*
X030930Y004680D01*
X030680Y004430D01*
X030430Y004680D01*
X029930Y004680D01*
X029680Y004430D01*
X029430Y004680D01*
X028930Y004680D01*
X028680Y004430D01*
X028430Y004680D01*
X027930Y004680D01*
X027680Y004430D01*
X027430Y004680D01*
X026930Y004680D01*
X026680Y004430D01*
X026430Y004680D01*
X025930Y004680D01*
X025680Y004430D01*
X025430Y004680D01*
X024930Y004680D01*
X024680Y004430D01*
X024430Y004680D01*
X023930Y004680D01*
X023680Y004430D01*
X023430Y004680D01*
X022930Y004680D01*
X022680Y004430D01*
X022430Y004680D01*
X021930Y004680D01*
X021680Y004430D01*
X021430Y004680D01*
X020930Y004680D01*
X020680Y004430D01*
X020430Y004680D01*
X019930Y004680D01*
X019680Y004430D01*
X019430Y004680D01*
X018930Y004680D01*
X018680Y004430D01*
X018430Y004680D01*
X017930Y004680D01*
X017680Y004430D01*
X017680Y003930D01*
X017930Y003680D01*
X018430Y003680D01*
X018680Y003930D01*
X018930Y003680D01*
X019430Y003680D01*
X019680Y003930D01*
X019930Y003680D01*
X020430Y003680D01*
X020680Y003930D01*
X020930Y003680D01*
X021430Y003680D01*
X021680Y003930D01*
X021930Y003680D01*
X022430Y003680D01*
X022680Y003930D01*
X022930Y003680D01*
X023430Y003680D01*
X023680Y003930D01*
X023930Y003680D01*
X024430Y003680D01*
X024680Y003930D01*
X024930Y003680D01*
X025430Y003680D01*
X025680Y003930D01*
X025930Y003680D01*
X026430Y003680D01*
X026680Y003930D01*
X026930Y003680D01*
X027430Y003680D01*
X027680Y003930D01*
X027930Y003680D01*
X028430Y003680D01*
X028680Y003930D01*
X028930Y003680D01*
X029430Y003680D01*
X029680Y003930D01*
X029930Y003680D01*
X030430Y003680D01*
X030680Y003930D01*
X030930Y003680D01*
X031430Y003680D01*
X031680Y003930D01*
X031930Y003680D01*
X032430Y003680D01*
X032680Y003930D01*
X032930Y003680D01*
X033430Y003680D01*
X033680Y003930D01*
X033680Y004430D01*
X033430Y004680D01*
X032930Y004680D01*
X032680Y004430D01*
X032430Y004680D01*
X031930Y004680D01*
X031680Y004430D01*
X031430Y004680D01*
X033680Y004430D02*
X033680Y003930D01*
X017780Y010480D02*
X017680Y010480D01*
X017680Y011180D01*
X017724Y011182D01*
X017767Y011188D01*
X017809Y011197D01*
X017851Y011210D01*
X017891Y011227D01*
X017930Y011247D01*
X017967Y011270D01*
X018001Y011297D01*
X018034Y011326D01*
X018063Y011359D01*
X018090Y011393D01*
X018113Y011430D01*
X018133Y011469D01*
X018150Y011509D01*
X018163Y011551D01*
X018172Y011593D01*
X018178Y011636D01*
X018180Y011680D01*
X018178Y011724D01*
X018172Y011767D01*
X018163Y011809D01*
X018150Y011851D01*
X018133Y011891D01*
X018113Y011930D01*
X018090Y011967D01*
X018063Y012001D01*
X018034Y012034D01*
X018001Y012063D01*
X017967Y012090D01*
X017930Y012113D01*
X017891Y012133D01*
X017851Y012150D01*
X017809Y012163D01*
X017767Y012172D01*
X017724Y012178D01*
X017680Y012180D01*
X017680Y012880D01*
X017780Y012880D01*
X016480Y012180D02*
X016480Y010180D01*
X016180Y010180D01*
X016180Y010080D01*
X016180Y010180D02*
X015880Y010180D01*
X015880Y012180D01*
X016180Y012180D01*
X016180Y012280D01*
X016180Y012180D02*
X016480Y012180D01*
X013680Y011430D02*
X013680Y009930D01*
X009680Y009930D01*
X009680Y011430D01*
X013680Y011430D01*
X012680Y012380D02*
X012680Y012680D01*
X012780Y012680D01*
X012680Y012680D02*
X012680Y012980D01*
X010680Y012980D01*
X010680Y012680D01*
X010580Y012680D01*
X010680Y012680D02*
X010680Y012380D01*
X012680Y012380D01*
X012680Y013880D02*
X010680Y013880D01*
X010680Y014180D01*
X010580Y014180D01*
X010680Y014180D02*
X010680Y014480D01*
X012680Y014480D01*
X012680Y014180D01*
X012780Y014180D01*
X012680Y014180D02*
X012680Y013880D01*
X008480Y015180D02*
X008180Y015180D01*
X008180Y015080D01*
X008180Y015180D02*
X007880Y015180D01*
X007880Y017180D01*
X008180Y017180D01*
X008180Y017280D01*
X008180Y017180D02*
X008480Y017180D01*
X008480Y015180D01*
X005930Y016180D02*
X004430Y016180D01*
X005680Y012930D02*
X005680Y012430D01*
X003900Y012180D02*
X003902Y012251D01*
X003908Y012322D01*
X003918Y012393D01*
X003932Y012462D01*
X003949Y012531D01*
X003971Y012599D01*
X003996Y012666D01*
X004025Y012731D01*
X004057Y012794D01*
X004093Y012856D01*
X004132Y012915D01*
X004175Y012972D01*
X004220Y013027D01*
X004269Y013079D01*
X004320Y013128D01*
X004374Y013174D01*
X004431Y013218D01*
X004489Y013258D01*
X004550Y013294D01*
X004613Y013328D01*
X004678Y013357D01*
X004744Y013383D01*
X004812Y013406D01*
X004880Y013424D01*
X004950Y013439D01*
X005020Y013450D01*
X005091Y013457D01*
X005162Y013460D01*
X005233Y013459D01*
X005304Y013454D01*
X005375Y013445D01*
X005445Y013432D01*
X005514Y013416D01*
X005582Y013395D01*
X005649Y013371D01*
X005715Y013343D01*
X005778Y013311D01*
X005840Y013276D01*
X005900Y013238D01*
X005958Y013196D01*
X006013Y013152D01*
X006066Y013104D01*
X006116Y013053D01*
X006163Y013000D01*
X006207Y012944D01*
X006248Y012886D01*
X006286Y012825D01*
X006320Y012763D01*
X006350Y012698D01*
X006377Y012633D01*
X006401Y012565D01*
X006420Y012497D01*
X006436Y012428D01*
X006448Y012357D01*
X006456Y012287D01*
X006460Y012216D01*
X006460Y012144D01*
X006456Y012073D01*
X006448Y012003D01*
X006436Y011932D01*
X006420Y011863D01*
X006401Y011795D01*
X006377Y011727D01*
X006350Y011662D01*
X006320Y011597D01*
X006286Y011535D01*
X006248Y011474D01*
X006207Y011416D01*
X006163Y011360D01*
X006116Y011307D01*
X006066Y011256D01*
X006013Y011208D01*
X005958Y011164D01*
X005900Y011122D01*
X005840Y011084D01*
X005778Y011049D01*
X005715Y011017D01*
X005649Y010989D01*
X005582Y010965D01*
X005514Y010944D01*
X005445Y010928D01*
X005375Y010915D01*
X005304Y010906D01*
X005233Y010901D01*
X005162Y010900D01*
X005091Y010903D01*
X005020Y010910D01*
X004950Y010921D01*
X004880Y010936D01*
X004812Y010954D01*
X004744Y010977D01*
X004678Y011003D01*
X004613Y011032D01*
X004550Y011066D01*
X004489Y011102D01*
X004431Y011142D01*
X004374Y011186D01*
X004320Y011232D01*
X004269Y011281D01*
X004220Y011333D01*
X004175Y011388D01*
X004132Y011445D01*
X004093Y011504D01*
X004057Y011566D01*
X004025Y011629D01*
X003996Y011694D01*
X003971Y011761D01*
X003949Y011829D01*
X003932Y011898D01*
X003918Y011967D01*
X003908Y012038D01*
X003902Y012109D01*
X003900Y012180D01*
X009680Y009930D02*
X009680Y009680D01*
X013680Y009680D01*
X013680Y009930D01*
X012952Y007074D02*
X012125Y007074D01*
X012952Y007074D02*
X012952Y006798D01*
X015818Y006426D02*
X015818Y005926D01*
X015196Y006680D02*
X015198Y006742D01*
X015204Y006805D01*
X015214Y006866D01*
X015228Y006927D01*
X015245Y006987D01*
X015266Y007046D01*
X015292Y007103D01*
X015320Y007158D01*
X015352Y007212D01*
X015388Y007263D01*
X015426Y007313D01*
X015468Y007359D01*
X015512Y007403D01*
X015560Y007444D01*
X015609Y007482D01*
X015661Y007516D01*
X015715Y007547D01*
X015771Y007575D01*
X015829Y007599D01*
X015888Y007620D01*
X015948Y007636D01*
X016009Y007649D01*
X016071Y007658D01*
X016133Y007663D01*
X016196Y007664D01*
X016258Y007661D01*
X016320Y007654D01*
X016382Y007643D01*
X016442Y007628D01*
X016502Y007610D01*
X016560Y007588D01*
X016617Y007562D01*
X016672Y007532D01*
X016725Y007499D01*
X016776Y007463D01*
X016824Y007424D01*
X016870Y007381D01*
X016913Y007336D01*
X016953Y007288D01*
X016990Y007238D01*
X017024Y007185D01*
X017055Y007131D01*
X017081Y007075D01*
X017105Y007017D01*
X017124Y006957D01*
X017140Y006897D01*
X017152Y006835D01*
X017160Y006774D01*
X017164Y006711D01*
X017164Y006649D01*
X017160Y006586D01*
X017152Y006525D01*
X017140Y006463D01*
X017124Y006403D01*
X017105Y006343D01*
X017081Y006285D01*
X017055Y006229D01*
X017024Y006175D01*
X016990Y006122D01*
X016953Y006072D01*
X016913Y006024D01*
X016870Y005979D01*
X016824Y005936D01*
X016776Y005897D01*
X016725Y005861D01*
X016672Y005828D01*
X016617Y005798D01*
X016560Y005772D01*
X016502Y005750D01*
X016442Y005732D01*
X016382Y005717D01*
X016320Y005706D01*
X016258Y005699D01*
X016196Y005696D01*
X016133Y005697D01*
X016071Y005702D01*
X016009Y005711D01*
X015948Y005724D01*
X015888Y005740D01*
X015829Y005761D01*
X015771Y005785D01*
X015715Y005813D01*
X015661Y005844D01*
X015609Y005878D01*
X015560Y005916D01*
X015512Y005957D01*
X015468Y006001D01*
X015426Y006047D01*
X015388Y006097D01*
X015352Y006148D01*
X015320Y006202D01*
X015292Y006257D01*
X015266Y006314D01*
X015245Y006373D01*
X015228Y006433D01*
X015214Y006494D01*
X015204Y006555D01*
X015198Y006618D01*
X015196Y006680D01*
X012952Y004948D02*
X012952Y002861D01*
X009408Y002861D01*
X009408Y007074D01*
X010235Y007074D01*
X004180Y006430D02*
X004180Y005930D01*
X003930Y005680D01*
X004180Y005430D01*
X004180Y004930D01*
X003930Y004680D01*
X003430Y004680D01*
X003180Y004930D01*
X003180Y005430D01*
X003430Y005680D01*
X003180Y005930D01*
X003180Y006430D01*
X003430Y006680D01*
X003930Y006680D01*
X004180Y006430D01*
X017680Y004430D02*
X017680Y003930D01*
D12*
X017615Y005945D02*
X017615Y006138D01*
X017615Y006042D02*
X017325Y006042D01*
X017422Y005945D01*
X017373Y006240D02*
X017325Y006288D01*
X017325Y006385D01*
X017373Y006433D01*
X017567Y006240D01*
X017615Y006288D01*
X017615Y006385D01*
X017567Y006433D01*
X017373Y006433D01*
X017422Y006534D02*
X017567Y006534D01*
X017615Y006583D01*
X017615Y006728D01*
X017422Y006728D01*
X017470Y006829D02*
X017470Y006926D01*
X017325Y007022D02*
X017325Y006829D01*
X017615Y006829D01*
X017567Y006240D02*
X017373Y006240D01*
X016365Y010395D02*
X016365Y010588D01*
X016365Y010492D02*
X016075Y010492D01*
X016172Y010395D01*
X016123Y010690D02*
X016075Y010738D01*
X016075Y010835D01*
X016123Y010883D01*
X016172Y010883D01*
X016365Y010690D01*
X016365Y010883D01*
X016317Y010984D02*
X016123Y011178D01*
X016317Y011178D01*
X016365Y011129D01*
X016365Y011033D01*
X016317Y010984D01*
X016123Y010984D01*
X016075Y011033D01*
X016075Y011129D01*
X016123Y011178D01*
X012394Y012623D02*
X012345Y012575D01*
X012249Y012575D01*
X012200Y012623D01*
X012394Y012817D01*
X012394Y012623D01*
X012200Y012623D02*
X012200Y012817D01*
X012249Y012865D01*
X012345Y012865D01*
X012394Y012817D01*
X012099Y012817D02*
X012051Y012865D01*
X011954Y012865D01*
X011906Y012817D01*
X012099Y012817D02*
X012099Y012768D01*
X011906Y012575D01*
X012099Y012575D01*
X011805Y012575D02*
X011611Y012575D01*
X011708Y012575D02*
X011708Y012865D01*
X011611Y012768D01*
X011629Y013995D02*
X011533Y013995D01*
X011484Y014043D01*
X011678Y014237D01*
X011678Y014043D01*
X011629Y013995D01*
X011484Y014043D02*
X011484Y014237D01*
X011533Y014285D01*
X011629Y014285D01*
X011678Y014237D01*
X011383Y014237D02*
X011335Y014285D01*
X011238Y014285D01*
X011190Y014237D01*
X011190Y014188D01*
X011238Y014140D01*
X011383Y014140D01*
X011383Y014043D02*
X011383Y014237D01*
X011383Y014043D02*
X011335Y013995D01*
X011238Y013995D01*
X011190Y014043D01*
X011088Y014043D02*
X011040Y013995D01*
X010943Y013995D01*
X010895Y014043D01*
X010992Y014140D02*
X011040Y014140D01*
X011088Y014092D01*
X011088Y014043D01*
X011040Y014140D02*
X011088Y014188D01*
X011088Y014237D01*
X011040Y014285D01*
X010943Y014285D01*
X010895Y014237D01*
X008285Y016159D02*
X008237Y016111D01*
X008285Y016159D02*
X008285Y016256D01*
X008237Y016305D01*
X008188Y016305D01*
X008140Y016256D01*
X008140Y016208D01*
X008140Y016256D02*
X008092Y016305D01*
X008043Y016305D01*
X007995Y016256D01*
X007995Y016159D01*
X008043Y016111D01*
X008043Y016406D02*
X008092Y016406D01*
X008140Y016454D01*
X008140Y016599D01*
X008237Y016599D02*
X008043Y016599D01*
X007995Y016551D01*
X007995Y016454D01*
X008043Y016406D01*
X008237Y016406D02*
X008285Y016454D01*
X008285Y016551D01*
X008237Y016599D01*
X008237Y016700D02*
X008043Y016894D01*
X008237Y016894D01*
X008285Y016845D01*
X008285Y016749D01*
X008237Y016700D01*
X008043Y016700D01*
X007995Y016749D01*
X007995Y016845D01*
X008043Y016894D01*
X003785Y012650D02*
X003495Y012650D01*
X003495Y012844D01*
X003640Y012747D02*
X003640Y012650D01*
X003592Y012549D02*
X003785Y012549D01*
X003785Y012404D01*
X003737Y012356D01*
X003592Y012356D01*
X003543Y012255D02*
X003737Y012061D01*
X003785Y012109D01*
X003785Y012206D01*
X003737Y012255D01*
X003543Y012255D01*
X003495Y012206D01*
X003495Y012109D01*
X003543Y012061D01*
X003737Y012061D01*
X003737Y011960D02*
X003785Y011912D01*
X003785Y011815D01*
X003737Y011766D01*
X003543Y011960D01*
X003737Y011960D01*
X003737Y011766D02*
X003543Y011766D01*
X003495Y011815D01*
X003495Y011912D01*
X003543Y011960D01*
X003785Y011665D02*
X003785Y011472D01*
X003785Y011568D02*
X003495Y011568D01*
X003592Y011472D01*
D13*
X005960Y016148D02*
X005906Y016220D01*
X005907Y016219D02*
X005960Y016262D01*
X006011Y016307D01*
X006059Y016356D01*
X006104Y016407D01*
X006147Y016461D01*
X006186Y016517D01*
X006222Y016575D01*
X006255Y016635D01*
X006284Y016696D01*
X006309Y016760D01*
X006331Y016824D01*
X006350Y016890D01*
X006364Y016957D01*
X006375Y017024D01*
X006382Y017092D01*
X006385Y017160D01*
X006384Y017229D01*
X006379Y017297D01*
X006371Y017365D01*
X006358Y017432D01*
X006342Y017498D01*
X006322Y017563D01*
X006299Y017628D01*
X006272Y017690D01*
X006241Y017751D01*
X006207Y017810D01*
X006170Y017868D01*
X006129Y017923D01*
X006085Y017975D01*
X006039Y018025D01*
X005990Y018072D01*
X005938Y018117D01*
X005884Y018158D01*
X005827Y018197D01*
X005768Y018232D01*
X005708Y018263D01*
X005646Y018291D01*
X005582Y018316D01*
X005517Y018337D01*
X005451Y018354D01*
X005384Y018368D01*
X005316Y018377D01*
X005248Y018383D01*
X005180Y018385D01*
X005112Y018383D01*
X005044Y018377D01*
X004976Y018368D01*
X004909Y018354D01*
X004843Y018337D01*
X004778Y018316D01*
X004714Y018291D01*
X004652Y018263D01*
X004592Y018232D01*
X004533Y018197D01*
X004476Y018158D01*
X004422Y018117D01*
X004370Y018072D01*
X004321Y018025D01*
X004275Y017975D01*
X004231Y017923D01*
X004190Y017868D01*
X004153Y017810D01*
X004119Y017751D01*
X004088Y017690D01*
X004061Y017628D01*
X004038Y017563D01*
X004018Y017498D01*
X004002Y017432D01*
X003989Y017365D01*
X003981Y017297D01*
X003976Y017229D01*
X003975Y017160D01*
X003978Y017092D01*
X003985Y017024D01*
X003996Y016957D01*
X004010Y016890D01*
X004029Y016824D01*
X004051Y016760D01*
X004076Y016696D01*
X004105Y016635D01*
X004138Y016575D01*
X004174Y016517D01*
X004213Y016461D01*
X004256Y016407D01*
X004301Y016356D01*
X004349Y016307D01*
X004400Y016262D01*
X004453Y016219D01*
X004400Y016148D01*
X004399Y016147D01*
X004344Y016191D01*
X004291Y016239D01*
X004240Y016289D01*
X004193Y016342D01*
X004149Y016397D01*
X004107Y016455D01*
X004069Y016515D01*
X004034Y016576D01*
X004003Y016640D01*
X003975Y016705D01*
X003951Y016772D01*
X003930Y016840D01*
X003914Y016909D01*
X003901Y016979D01*
X003892Y017049D01*
X003886Y017120D01*
X003885Y017191D01*
X003888Y017262D01*
X003894Y017333D01*
X003904Y017403D01*
X003918Y017472D01*
X003936Y017541D01*
X003958Y017609D01*
X003983Y017675D01*
X004012Y017740D01*
X004045Y017803D01*
X004081Y017864D01*
X004120Y017923D01*
X004162Y017980D01*
X004207Y018035D01*
X004256Y018087D01*
X004307Y018136D01*
X004360Y018183D01*
X004417Y018226D01*
X004475Y018266D01*
X004536Y018303D01*
X004598Y018337D01*
X004662Y018367D01*
X004728Y018394D01*
X004795Y018417D01*
X004864Y018436D01*
X004933Y018451D01*
X005003Y018463D01*
X005074Y018471D01*
X005145Y018475D01*
X005215Y018475D01*
X005286Y018471D01*
X005357Y018463D01*
X005427Y018451D01*
X005496Y018436D01*
X005565Y018417D01*
X005632Y018394D01*
X005698Y018367D01*
X005762Y018337D01*
X005824Y018303D01*
X005885Y018266D01*
X005943Y018226D01*
X006000Y018183D01*
X006053Y018136D01*
X006104Y018087D01*
X006153Y018035D01*
X006198Y017980D01*
X006240Y017923D01*
X006279Y017864D01*
X006315Y017803D01*
X006348Y017740D01*
X006377Y017675D01*
X006402Y017609D01*
X006424Y017541D01*
X006442Y017472D01*
X006456Y017403D01*
X006466Y017333D01*
X006472Y017262D01*
X006475Y017191D01*
X006474Y017120D01*
X006468Y017049D01*
X006459Y016979D01*
X006446Y016909D01*
X006430Y016840D01*
X006409Y016772D01*
X006385Y016705D01*
X006357Y016640D01*
X006326Y016576D01*
X006291Y016515D01*
X006253Y016455D01*
X006211Y016397D01*
X006167Y016342D01*
X006120Y016289D01*
X006069Y016239D01*
X006016Y016191D01*
X005961Y016147D01*
X005956Y016154D01*
X006011Y016199D01*
X006064Y016246D01*
X006115Y016297D01*
X006162Y016350D01*
X006207Y016406D01*
X006248Y016464D01*
X006286Y016524D01*
X006321Y016586D01*
X006352Y016650D01*
X006379Y016716D01*
X006403Y016783D01*
X006423Y016852D01*
X006440Y016921D01*
X006452Y016991D01*
X006461Y017062D01*
X006465Y017133D01*
X006466Y017204D01*
X006462Y017275D01*
X006455Y017346D01*
X006444Y017417D01*
X006429Y017486D01*
X006410Y017555D01*
X006387Y017623D01*
X006361Y017689D01*
X006331Y017754D01*
X006297Y017816D01*
X006261Y017877D01*
X006220Y017936D01*
X006177Y017993D01*
X006130Y018047D01*
X006081Y018098D01*
X006028Y018146D01*
X005974Y018192D01*
X005916Y018234D01*
X005857Y018273D01*
X005795Y018309D01*
X005732Y018342D01*
X005667Y018370D01*
X005600Y018396D01*
X005532Y018417D01*
X005463Y018435D01*
X005393Y018448D01*
X005322Y018458D01*
X005251Y018464D01*
X005180Y018466D01*
X005109Y018464D01*
X005038Y018458D01*
X004967Y018448D01*
X004897Y018435D01*
X004828Y018417D01*
X004760Y018396D01*
X004693Y018370D01*
X004628Y018342D01*
X004565Y018309D01*
X004503Y018273D01*
X004444Y018234D01*
X004386Y018192D01*
X004332Y018146D01*
X004279Y018098D01*
X004230Y018047D01*
X004183Y017993D01*
X004140Y017936D01*
X004099Y017877D01*
X004063Y017816D01*
X004029Y017754D01*
X003999Y017689D01*
X003973Y017623D01*
X003950Y017555D01*
X003931Y017486D01*
X003916Y017417D01*
X003905Y017346D01*
X003898Y017275D01*
X003894Y017204D01*
X003895Y017133D01*
X003899Y017062D01*
X003908Y016991D01*
X003920Y016921D01*
X003937Y016852D01*
X003957Y016783D01*
X003981Y016716D01*
X004008Y016650D01*
X004039Y016586D01*
X004074Y016524D01*
X004112Y016464D01*
X004153Y016406D01*
X004198Y016350D01*
X004245Y016297D01*
X004296Y016246D01*
X004349Y016199D01*
X004404Y016154D01*
X004410Y016161D01*
X004355Y016206D01*
X004302Y016253D01*
X004252Y016303D01*
X004205Y016356D01*
X004161Y016411D01*
X004119Y016469D01*
X004082Y016528D01*
X004047Y016590D01*
X004016Y016654D01*
X003989Y016719D01*
X003965Y016786D01*
X003945Y016854D01*
X003929Y016923D01*
X003917Y016992D01*
X003908Y017063D01*
X003904Y017133D01*
X003903Y017204D01*
X003907Y017275D01*
X003914Y017345D01*
X003925Y017415D01*
X003940Y017484D01*
X003959Y017552D01*
X003981Y017620D01*
X004007Y017685D01*
X004037Y017750D01*
X004070Y017812D01*
X004107Y017872D01*
X004147Y017931D01*
X004190Y017987D01*
X004236Y018041D01*
X004286Y018091D01*
X004337Y018140D01*
X004392Y018185D01*
X004449Y018227D01*
X004508Y018266D01*
X004569Y018301D01*
X004632Y018334D01*
X004697Y018362D01*
X004763Y018387D01*
X004831Y018408D01*
X004899Y018426D01*
X004969Y018439D01*
X005039Y018449D01*
X005109Y018455D01*
X005180Y018457D01*
X005251Y018455D01*
X005321Y018449D01*
X005391Y018439D01*
X005461Y018426D01*
X005529Y018408D01*
X005597Y018387D01*
X005663Y018362D01*
X005728Y018334D01*
X005791Y018301D01*
X005852Y018266D01*
X005911Y018227D01*
X005968Y018185D01*
X006023Y018140D01*
X006074Y018091D01*
X006124Y018041D01*
X006170Y017987D01*
X006213Y017931D01*
X006253Y017872D01*
X006290Y017812D01*
X006323Y017750D01*
X006353Y017685D01*
X006379Y017620D01*
X006401Y017552D01*
X006420Y017484D01*
X006435Y017415D01*
X006446Y017345D01*
X006453Y017275D01*
X006457Y017204D01*
X006456Y017133D01*
X006452Y017063D01*
X006443Y016992D01*
X006431Y016923D01*
X006415Y016854D01*
X006395Y016786D01*
X006371Y016719D01*
X006344Y016654D01*
X006313Y016590D01*
X006278Y016528D01*
X006241Y016469D01*
X006199Y016411D01*
X006155Y016356D01*
X006108Y016303D01*
X006058Y016253D01*
X006005Y016206D01*
X005950Y016161D01*
X005945Y016169D01*
X006000Y016213D01*
X006053Y016261D01*
X006103Y016311D01*
X006151Y016364D01*
X006195Y016420D01*
X006236Y016478D01*
X006273Y016538D01*
X006308Y016600D01*
X006338Y016664D01*
X006365Y016730D01*
X006389Y016797D01*
X006408Y016865D01*
X006424Y016935D01*
X006436Y017005D01*
X006444Y017075D01*
X006448Y017146D01*
X006447Y017217D01*
X006443Y017288D01*
X006435Y017359D01*
X006423Y017429D01*
X006407Y017498D01*
X006388Y017566D01*
X006364Y017634D01*
X006337Y017699D01*
X006306Y017763D01*
X006272Y017825D01*
X006234Y017885D01*
X006192Y017943D01*
X006148Y017999D01*
X006101Y018052D01*
X006050Y018102D01*
X005997Y018149D01*
X005942Y018194D01*
X005884Y018235D01*
X005824Y018272D01*
X005761Y018307D01*
X005697Y018338D01*
X005632Y018365D01*
X005565Y018388D01*
X005496Y018408D01*
X005427Y018424D01*
X005357Y018436D01*
X005286Y018444D01*
X005216Y018448D01*
X005144Y018448D01*
X005074Y018444D01*
X005003Y018436D01*
X004933Y018424D01*
X004864Y018408D01*
X004795Y018388D01*
X004728Y018365D01*
X004663Y018338D01*
X004599Y018307D01*
X004536Y018272D01*
X004476Y018235D01*
X004418Y018194D01*
X004363Y018149D01*
X004310Y018102D01*
X004259Y018052D01*
X004212Y017999D01*
X004168Y017943D01*
X004126Y017885D01*
X004088Y017825D01*
X004054Y017763D01*
X004023Y017699D01*
X003996Y017634D01*
X003972Y017566D01*
X003953Y017498D01*
X003937Y017429D01*
X003925Y017359D01*
X003917Y017288D01*
X003913Y017217D01*
X003912Y017146D01*
X003916Y017075D01*
X003924Y017005D01*
X003936Y016935D01*
X003952Y016865D01*
X003971Y016797D01*
X003995Y016730D01*
X004022Y016664D01*
X004052Y016600D01*
X004087Y016538D01*
X004124Y016478D01*
X004165Y016420D01*
X004209Y016364D01*
X004257Y016311D01*
X004307Y016261D01*
X004360Y016213D01*
X004415Y016169D01*
X004421Y016176D01*
X004366Y016220D01*
X004313Y016267D01*
X004263Y016317D01*
X004216Y016370D01*
X004172Y016425D01*
X004132Y016483D01*
X004094Y016542D01*
X004060Y016604D01*
X004030Y016668D01*
X004003Y016733D01*
X003980Y016800D01*
X003960Y016868D01*
X003945Y016936D01*
X003933Y017006D01*
X003925Y017076D01*
X003921Y017147D01*
X003922Y017217D01*
X003926Y017288D01*
X003934Y017358D01*
X003946Y017427D01*
X003961Y017496D01*
X003981Y017564D01*
X004004Y017630D01*
X004031Y017695D01*
X004062Y017759D01*
X004096Y017821D01*
X004134Y017880D01*
X004175Y017938D01*
X004219Y017993D01*
X004266Y018046D01*
X004316Y018095D01*
X004368Y018142D01*
X004424Y018186D01*
X004481Y018227D01*
X004541Y018265D01*
X004603Y018299D01*
X004666Y018329D01*
X004731Y018356D01*
X004798Y018380D01*
X004866Y018399D01*
X004935Y018415D01*
X005004Y018427D01*
X005074Y018435D01*
X005145Y018439D01*
X005215Y018439D01*
X005286Y018435D01*
X005356Y018427D01*
X005425Y018415D01*
X005494Y018399D01*
X005562Y018380D01*
X005629Y018356D01*
X005694Y018329D01*
X005757Y018299D01*
X005819Y018265D01*
X005879Y018227D01*
X005936Y018186D01*
X005992Y018142D01*
X006044Y018095D01*
X006094Y018046D01*
X006141Y017993D01*
X006185Y017938D01*
X006226Y017880D01*
X006264Y017821D01*
X006298Y017759D01*
X006329Y017695D01*
X006356Y017630D01*
X006379Y017564D01*
X006399Y017496D01*
X006414Y017427D01*
X006426Y017358D01*
X006434Y017288D01*
X006438Y017217D01*
X006439Y017147D01*
X006435Y017076D01*
X006427Y017006D01*
X006415Y016936D01*
X006400Y016868D01*
X006380Y016800D01*
X006357Y016733D01*
X006330Y016668D01*
X006300Y016604D01*
X006266Y016542D01*
X006228Y016483D01*
X006188Y016425D01*
X006144Y016370D01*
X006097Y016317D01*
X006047Y016267D01*
X005994Y016220D01*
X005939Y016176D01*
X005934Y016183D01*
X005989Y016227D01*
X006041Y016274D01*
X006090Y016323D01*
X006137Y016376D01*
X006180Y016430D01*
X006221Y016488D01*
X006258Y016547D01*
X006292Y016608D01*
X006322Y016672D01*
X006349Y016736D01*
X006372Y016803D01*
X006391Y016870D01*
X006406Y016938D01*
X006418Y017007D01*
X006426Y017077D01*
X006430Y017147D01*
X006429Y017217D01*
X006425Y017287D01*
X006417Y017356D01*
X006406Y017425D01*
X006390Y017494D01*
X006371Y017561D01*
X006347Y017627D01*
X006320Y017692D01*
X006290Y017755D01*
X006256Y017816D01*
X006219Y017875D01*
X006178Y017933D01*
X006134Y017987D01*
X006088Y018039D01*
X006038Y018089D01*
X005986Y018136D01*
X005931Y018179D01*
X005874Y018220D01*
X005815Y018257D01*
X005753Y018291D01*
X005690Y018321D01*
X005625Y018348D01*
X005559Y018371D01*
X005492Y018390D01*
X005424Y018406D01*
X005355Y018418D01*
X005285Y018426D01*
X005215Y018430D01*
X005145Y018430D01*
X005075Y018426D01*
X005005Y018418D01*
X004936Y018406D01*
X004868Y018390D01*
X004801Y018371D01*
X004735Y018348D01*
X004670Y018321D01*
X004607Y018291D01*
X004545Y018257D01*
X004486Y018220D01*
X004429Y018179D01*
X004374Y018136D01*
X004322Y018089D01*
X004272Y018039D01*
X004226Y017987D01*
X004182Y017933D01*
X004141Y017875D01*
X004104Y017816D01*
X004070Y017755D01*
X004040Y017692D01*
X004013Y017627D01*
X003989Y017561D01*
X003970Y017494D01*
X003954Y017425D01*
X003943Y017356D01*
X003935Y017287D01*
X003931Y017217D01*
X003930Y017147D01*
X003934Y017077D01*
X003942Y017007D01*
X003954Y016938D01*
X003969Y016870D01*
X003988Y016803D01*
X004011Y016736D01*
X004038Y016672D01*
X004068Y016608D01*
X004102Y016547D01*
X004139Y016488D01*
X004180Y016430D01*
X004223Y016376D01*
X004270Y016323D01*
X004319Y016274D01*
X004371Y016227D01*
X004426Y016183D01*
X004431Y016190D01*
X004377Y016234D01*
X004325Y016280D01*
X004276Y016329D01*
X004230Y016381D01*
X004187Y016436D01*
X004147Y016493D01*
X004110Y016552D01*
X004076Y016613D01*
X004046Y016675D01*
X004020Y016740D01*
X003997Y016805D01*
X003978Y016872D01*
X003962Y016940D01*
X003951Y017009D01*
X003943Y017078D01*
X003939Y017147D01*
X003940Y017217D01*
X003944Y017286D01*
X003951Y017355D01*
X003963Y017424D01*
X003979Y017491D01*
X003998Y017558D01*
X004021Y017624D01*
X004048Y017688D01*
X004078Y017751D01*
X004112Y017812D01*
X004149Y017870D01*
X004189Y017927D01*
X004232Y017981D01*
X004279Y018033D01*
X004328Y018082D01*
X004380Y018129D01*
X004434Y018172D01*
X004491Y018212D01*
X004550Y018249D01*
X004611Y018283D01*
X004674Y018313D01*
X004738Y018340D01*
X004803Y018363D01*
X004870Y018382D01*
X004938Y018397D01*
X005007Y018409D01*
X005076Y018417D01*
X005145Y018421D01*
X005215Y018421D01*
X005284Y018417D01*
X005353Y018409D01*
X005422Y018397D01*
X005490Y018382D01*
X005557Y018363D01*
X005622Y018340D01*
X005686Y018313D01*
X005749Y018283D01*
X005810Y018249D01*
X005869Y018212D01*
X005926Y018172D01*
X005980Y018129D01*
X006032Y018082D01*
X006081Y018033D01*
X006128Y017981D01*
X006171Y017927D01*
X006211Y017870D01*
X006248Y017812D01*
X006282Y017751D01*
X006312Y017688D01*
X006339Y017624D01*
X006362Y017558D01*
X006381Y017491D01*
X006397Y017424D01*
X006409Y017355D01*
X006416Y017286D01*
X006420Y017217D01*
X006421Y017147D01*
X006417Y017078D01*
X006409Y017009D01*
X006398Y016940D01*
X006382Y016872D01*
X006363Y016805D01*
X006340Y016740D01*
X006314Y016675D01*
X006284Y016613D01*
X006250Y016552D01*
X006213Y016493D01*
X006173Y016436D01*
X006130Y016381D01*
X006084Y016329D01*
X006035Y016280D01*
X005983Y016234D01*
X005929Y016190D01*
X005923Y016197D01*
X005977Y016241D01*
X006028Y016287D01*
X006077Y016336D01*
X006123Y016387D01*
X006166Y016441D01*
X006206Y016498D01*
X006242Y016556D01*
X006276Y016617D01*
X006306Y016679D01*
X006332Y016743D01*
X006354Y016808D01*
X006373Y016874D01*
X006389Y016942D01*
X006400Y017010D01*
X006408Y017078D01*
X006412Y017147D01*
X006411Y017216D01*
X006407Y017285D01*
X006400Y017354D01*
X006388Y017422D01*
X006373Y017489D01*
X006353Y017556D01*
X006330Y017621D01*
X006304Y017684D01*
X006274Y017747D01*
X006241Y017807D01*
X006204Y017865D01*
X006164Y017922D01*
X006121Y017976D01*
X006075Y018027D01*
X006026Y018076D01*
X005974Y018122D01*
X005920Y018165D01*
X005864Y018205D01*
X005805Y018241D01*
X005745Y018275D01*
X005683Y018305D01*
X005619Y018331D01*
X005554Y018354D01*
X005487Y018373D01*
X005420Y018388D01*
X005352Y018400D01*
X005283Y018408D01*
X005215Y018412D01*
X005145Y018412D01*
X005077Y018408D01*
X005008Y018400D01*
X004940Y018388D01*
X004873Y018373D01*
X004806Y018354D01*
X004741Y018331D01*
X004677Y018305D01*
X004615Y018275D01*
X004555Y018241D01*
X004496Y018205D01*
X004440Y018165D01*
X004386Y018122D01*
X004334Y018076D01*
X004285Y018027D01*
X004239Y017976D01*
X004196Y017922D01*
X004156Y017865D01*
X004119Y017807D01*
X004086Y017747D01*
X004056Y017684D01*
X004030Y017621D01*
X004007Y017556D01*
X003987Y017489D01*
X003972Y017422D01*
X003960Y017354D01*
X003953Y017285D01*
X003949Y017216D01*
X003948Y017147D01*
X003952Y017078D01*
X003960Y017010D01*
X003971Y016942D01*
X003987Y016874D01*
X004006Y016808D01*
X004028Y016743D01*
X004054Y016679D01*
X004084Y016617D01*
X004118Y016556D01*
X004154Y016498D01*
X004194Y016441D01*
X004237Y016387D01*
X004283Y016336D01*
X004332Y016287D01*
X004383Y016241D01*
X004437Y016197D01*
X004442Y016205D01*
X004388Y016248D01*
X004337Y016294D01*
X004288Y016344D01*
X004242Y016395D01*
X004199Y016450D01*
X004159Y016507D01*
X004123Y016565D01*
X004089Y016626D01*
X004060Y016689D01*
X004034Y016753D01*
X004012Y016819D01*
X003993Y016886D01*
X003978Y016953D01*
X003967Y017022D01*
X003960Y017091D01*
X003957Y017160D01*
X003958Y017229D01*
X003963Y017299D01*
X003971Y017367D01*
X003984Y017435D01*
X004000Y017503D01*
X004021Y017569D01*
X004044Y017634D01*
X004072Y017698D01*
X004103Y017760D01*
X004138Y017820D01*
X004176Y017878D01*
X004217Y017934D01*
X004261Y017987D01*
X004308Y018038D01*
X004358Y018086D01*
X004411Y018131D01*
X004466Y018173D01*
X004523Y018212D01*
X004583Y018247D01*
X004644Y018279D01*
X004707Y018308D01*
X004772Y018333D01*
X004838Y018354D01*
X004905Y018372D01*
X004973Y018385D01*
X005042Y018395D01*
X005111Y018401D01*
X005180Y018403D01*
X005249Y018401D01*
X005318Y018395D01*
X005387Y018385D01*
X005455Y018372D01*
X005522Y018354D01*
X005588Y018333D01*
X005653Y018308D01*
X005716Y018279D01*
X005777Y018247D01*
X005837Y018212D01*
X005894Y018173D01*
X005949Y018131D01*
X006002Y018086D01*
X006052Y018038D01*
X006099Y017987D01*
X006143Y017934D01*
X006184Y017878D01*
X006222Y017820D01*
X006257Y017760D01*
X006288Y017698D01*
X006316Y017634D01*
X006339Y017569D01*
X006360Y017503D01*
X006376Y017435D01*
X006389Y017367D01*
X006397Y017299D01*
X006402Y017229D01*
X006403Y017160D01*
X006400Y017091D01*
X006393Y017022D01*
X006382Y016953D01*
X006367Y016886D01*
X006348Y016819D01*
X006326Y016753D01*
X006300Y016689D01*
X006271Y016626D01*
X006237Y016565D01*
X006201Y016507D01*
X006161Y016450D01*
X006118Y016395D01*
X006072Y016344D01*
X006023Y016294D01*
X005972Y016248D01*
X005918Y016205D01*
X005912Y016212D01*
X005966Y016255D01*
X006017Y016301D01*
X006066Y016350D01*
X006111Y016401D01*
X006154Y016455D01*
X006193Y016512D01*
X006230Y016570D01*
X006263Y016630D01*
X006292Y016693D01*
X006318Y016756D01*
X006340Y016822D01*
X006358Y016888D01*
X006373Y016955D01*
X006384Y017023D01*
X006391Y017092D01*
X006394Y017160D01*
X006393Y017229D01*
X006388Y017298D01*
X006380Y017366D01*
X006367Y017434D01*
X006351Y017500D01*
X006331Y017566D01*
X006307Y017631D01*
X006280Y017694D01*
X006249Y017755D01*
X006215Y017815D01*
X006177Y017873D01*
X006136Y017928D01*
X006092Y017981D01*
X006045Y018031D01*
X005996Y018079D01*
X005944Y018124D01*
X005889Y018166D01*
X005832Y018204D01*
X005773Y018239D01*
X005712Y018271D01*
X005649Y018300D01*
X005585Y018324D01*
X005519Y018346D01*
X005453Y018363D01*
X005385Y018376D01*
X005317Y018386D01*
X005249Y018392D01*
X005180Y018394D01*
X005111Y018392D01*
X005043Y018386D01*
X004975Y018376D01*
X004907Y018363D01*
X004841Y018346D01*
X004775Y018324D01*
X004711Y018300D01*
X004648Y018271D01*
X004587Y018239D01*
X004528Y018204D01*
X004471Y018166D01*
X004416Y018124D01*
X004364Y018079D01*
X004315Y018031D01*
X004268Y017981D01*
X004224Y017928D01*
X004183Y017873D01*
X004145Y017815D01*
X004111Y017755D01*
X004080Y017694D01*
X004053Y017631D01*
X004029Y017566D01*
X004009Y017500D01*
X003993Y017434D01*
X003980Y017366D01*
X003972Y017298D01*
X003967Y017229D01*
X003966Y017160D01*
X003969Y017092D01*
X003976Y017023D01*
X003987Y016955D01*
X004002Y016888D01*
X004020Y016822D01*
X004042Y016756D01*
X004068Y016693D01*
X004097Y016630D01*
X004130Y016570D01*
X004167Y016512D01*
X004206Y016455D01*
X004249Y016401D01*
X004294Y016350D01*
X004343Y016301D01*
X004394Y016255D01*
X004448Y016212D01*
D14*
X004180Y017180D02*
X004182Y017243D01*
X004188Y017305D01*
X004198Y017367D01*
X004211Y017429D01*
X004229Y017489D01*
X004250Y017548D01*
X004275Y017606D01*
X004304Y017662D01*
X004336Y017716D01*
X004371Y017768D01*
X004409Y017817D01*
X004451Y017865D01*
X004495Y017909D01*
X004543Y017951D01*
X004592Y017989D01*
X004644Y018024D01*
X004698Y018056D01*
X004754Y018085D01*
X004812Y018110D01*
X004871Y018131D01*
X004931Y018149D01*
X004993Y018162D01*
X005055Y018172D01*
X005117Y018178D01*
X005180Y018180D01*
X005243Y018178D01*
X005305Y018172D01*
X005367Y018162D01*
X005429Y018149D01*
X005489Y018131D01*
X005548Y018110D01*
X005606Y018085D01*
X005662Y018056D01*
X005716Y018024D01*
X005768Y017989D01*
X005817Y017951D01*
X005865Y017909D01*
X005909Y017865D01*
X005951Y017817D01*
X005989Y017768D01*
X006024Y017716D01*
X006056Y017662D01*
X006085Y017606D01*
X006110Y017548D01*
X006131Y017489D01*
X006149Y017429D01*
X006162Y017367D01*
X006172Y017305D01*
X006178Y017243D01*
X006180Y017180D01*
X006178Y017117D01*
X006172Y017055D01*
X006162Y016993D01*
X006149Y016931D01*
X006131Y016871D01*
X006110Y016812D01*
X006085Y016754D01*
X006056Y016698D01*
X006024Y016644D01*
X005989Y016592D01*
X005951Y016543D01*
X005909Y016495D01*
X005865Y016451D01*
X005817Y016409D01*
X005768Y016371D01*
X005716Y016336D01*
X005662Y016304D01*
X005606Y016275D01*
X005548Y016250D01*
X005489Y016229D01*
X005429Y016211D01*
X005367Y016198D01*
X005305Y016188D01*
X005243Y016182D01*
X005180Y016180D01*
X005117Y016182D01*
X005055Y016188D01*
X004993Y016198D01*
X004931Y016211D01*
X004871Y016229D01*
X004812Y016250D01*
X004754Y016275D01*
X004698Y016304D01*
X004644Y016336D01*
X004592Y016371D01*
X004543Y016409D01*
X004495Y016451D01*
X004451Y016495D01*
X004409Y016543D01*
X004371Y016592D01*
X004336Y016644D01*
X004304Y016698D01*
X004275Y016754D01*
X004250Y016812D01*
X004229Y016871D01*
X004211Y016931D01*
X004198Y016993D01*
X004188Y017055D01*
X004182Y017117D01*
X004180Y017180D01*
X010680Y017430D02*
X010680Y018930D01*
X010930Y019180D01*
X011430Y019180D01*
X011680Y018930D01*
X011680Y017430D01*
X011430Y017180D01*
X010930Y017180D01*
X010680Y017430D01*
X011680Y017430D02*
X011930Y017180D01*
X012430Y017180D01*
X012680Y017430D01*
X012680Y018930D01*
X012930Y019180D01*
X013430Y019180D01*
X013680Y018930D01*
X013680Y017430D01*
X013430Y017180D01*
X012930Y017180D01*
X012680Y017430D01*
X013680Y017430D02*
X013930Y017180D01*
X014430Y017180D01*
X014680Y017430D01*
X014680Y018930D01*
X014930Y019180D01*
X015430Y019180D01*
X015680Y018930D01*
X015680Y017430D01*
X015430Y017180D01*
X014930Y017180D01*
X014680Y017430D01*
X015680Y017430D02*
X015930Y017180D01*
X016430Y017180D01*
X016680Y017430D01*
X016680Y018930D01*
X016930Y019180D01*
X017430Y019180D01*
X017680Y018930D01*
X017680Y017430D01*
X017430Y017180D01*
X016930Y017180D01*
X016680Y017430D01*
X017680Y017430D02*
X017930Y017180D01*
X018430Y017180D01*
X018680Y017430D01*
X018680Y018930D01*
X018930Y019180D01*
X019430Y019180D01*
X019680Y018930D01*
X019680Y017430D01*
X019430Y017180D01*
X018930Y017180D01*
X018680Y017430D01*
X019680Y017430D02*
X019930Y017180D01*
X020430Y017180D01*
X020680Y017430D01*
X020680Y018930D01*
X020930Y019180D01*
X021430Y019180D01*
X021680Y018930D01*
X021680Y017430D01*
X021430Y017180D01*
X020930Y017180D01*
X020680Y017430D01*
X021680Y017430D02*
X021930Y017180D01*
X022430Y017180D01*
X022680Y017430D01*
X022680Y018930D01*
X022930Y019180D01*
X023430Y019180D01*
X023680Y018930D01*
X023680Y017430D01*
X023430Y017180D01*
X022930Y017180D01*
X022680Y017430D01*
X023680Y017430D02*
X023930Y017180D01*
X024430Y017180D01*
X024680Y017430D01*
X024680Y018930D01*
X024430Y019180D01*
X023930Y019180D01*
X023680Y018930D01*
X024680Y018930D02*
X024930Y019180D01*
X025430Y019180D01*
X025680Y018930D01*
X025680Y017430D01*
X025430Y017180D01*
X024930Y017180D01*
X024680Y017430D01*
X025680Y017430D02*
X025930Y017180D01*
X026430Y017180D01*
X026680Y017430D01*
X026680Y018930D01*
X026430Y019180D01*
X025930Y019180D01*
X025680Y018930D01*
X026680Y018930D02*
X026930Y019180D01*
X027430Y019180D01*
X027680Y018930D01*
X027680Y017430D01*
X027430Y017180D01*
X026930Y017180D01*
X026680Y017430D01*
X027680Y017430D02*
X027930Y017180D01*
X028430Y017180D01*
X028680Y017430D01*
X028680Y018930D01*
X028430Y019180D01*
X027930Y019180D01*
X027680Y018930D01*
X028680Y018930D02*
X028930Y019180D01*
X029430Y019180D01*
X029680Y018930D01*
X029680Y017430D01*
X029430Y017180D01*
X028930Y017180D01*
X028680Y017430D01*
X029680Y017430D02*
X029930Y017180D01*
X030430Y017180D01*
X030680Y017430D01*
X030680Y018930D01*
X030430Y019180D01*
X029930Y019180D01*
X029680Y018930D01*
X022680Y018930D02*
X022430Y019180D01*
X021930Y019180D01*
X021680Y018930D01*
X020680Y018930D02*
X020430Y019180D01*
X019930Y019180D01*
X019680Y018930D01*
X018680Y018930D02*
X018430Y019180D01*
X017930Y019180D01*
X017680Y018930D01*
X016680Y018930D02*
X016430Y019180D01*
X015930Y019180D01*
X015680Y018930D01*
X014680Y018930D02*
X014430Y019180D01*
X013930Y019180D01*
X013680Y018930D01*
X012680Y018930D02*
X012430Y019180D01*
X011930Y019180D01*
X011680Y018930D01*
D15*
X008180Y007680D02*
X008180Y007430D01*
X007680Y007430D01*
X007680Y006930D01*
X008680Y006930D01*
X008680Y007430D01*
X008180Y007430D01*
X007680Y006930D02*
X007680Y004930D01*
X008180Y004930D01*
X008180Y004680D01*
X008180Y004930D02*
X008680Y004930D01*
X008680Y006930D01*
M02*
