%
M48
M72
T01C0.0236
T02C0.0276
T03C0.0320
T04C0.0354
T05C0.0394
T06C0.0400
T07C0.0472
T08C0.1180
T09C0.1260
%
T01
X2680Y9180
X15680Y3680
X17180Y15680
X24680Y15680
X35180Y11680
X7180Y19680
T02
X5180Y12680
X5180Y11680
X16180Y7180
X16180Y6180
T03
X18180Y10180
X19180Y10180
X20180Y10180
X21180Y10180
X22180Y10180
X23180Y10180
X24180Y10180
X25180Y10180
X26180Y10180
X27180Y10180
X28180Y10180
X29180Y10180
X30180Y10180
X31180Y10180
X31180Y13180
X30180Y13180
X29180Y13180
X28180Y13180
X27180Y13180
X26180Y13180
X25180Y13180
X24180Y13180
X23180Y13180
X22180Y13180
X21180Y13180
X20180Y13180
X19180Y13180
X18180Y13180
X5180Y16680
X5180Y17680
T04
X8180Y17680
X8180Y14680
X10180Y14180
X10180Y12680
X13180Y12680
X13180Y14180
X16180Y12680
X16180Y9680
X26680Y15680
X31680Y15680
T05
X32180Y17180
X34180Y16180
X34180Y18180
X12680Y10680
X11680Y10680
X10680Y10680
T06
X6180Y7180
X6180Y6180
X6180Y5180
X3680Y5180
X3680Y6180
X18180Y4180
X19180Y4180
X20180Y4180
X21180Y4180
X22180Y4180
X23180Y4180
X24180Y4180
X25180Y4180
X26180Y4180
X27180Y4180
X28180Y4180
X29180Y4180
X30180Y4180
X31180Y4180
X32180Y4180
X33180Y4180
X30180Y17680
X29180Y17680
X28180Y17680
X27180Y17680
X26180Y17680
X25180Y17680
X24180Y17680
X23180Y17680
X22180Y17680
X21180Y17680
X20180Y17680
X19180Y17680
X18180Y17680
X17180Y17680
X16180Y17680
X15180Y17680
X14180Y17680
X13180Y17680
X12180Y17680
X11180Y17680
X11180Y18680
X12180Y18680
X13180Y18680
X14180Y18680
X15180Y18680
X16180Y18680
X17180Y18680
X18180Y18680
X19180Y18680
X20180Y18680
X21180Y18680
X22180Y18680
X23180Y18680
X24180Y18680
X25180Y18680
X26180Y18680
X27180Y18680
X28180Y18680
X29180Y18680
X30180Y18680
T07
X8180Y8180
X8180Y4180
T08
X11180Y4711
X13030Y5893
X11180Y7074
T09
X2180Y2680
X2180Y20180
X34680Y20180
X34680Y2680
M30
