G75*
%MOIN*%
%OFA0B0*%
%FSLAX24Y24*%
%IPPOS*%
%LPD*%
%AMOC8*
5,1,8,0,0,1.08239X$1,22.5*
%
%ADD10C,0.0000*%
%ADD11C,0.0060*%
%ADD12C,0.0600*%
%ADD13C,0.0554*%
%ADD14C,0.0476*%
%ADD15R,0.0476X0.0476*%
%ADD16OC8,0.0520*%
%ADD17R,0.0594X0.0594*%
%ADD18C,0.0594*%
%ADD19C,0.1580*%
%ADD20C,0.0709*%
%ADD21C,0.0520*%
%ADD22OC8,0.0600*%
%ADD23C,0.0740*%
%ADD24C,0.0160*%
%ADD25R,0.0396X0.0396*%
D10*
X000180Y000680D02*
X000180Y022550D01*
X036672Y022550D01*
X036672Y000680D01*
X000180Y000680D01*
X001550Y002680D02*
X001552Y002730D01*
X001558Y002780D01*
X001568Y002829D01*
X001582Y002877D01*
X001599Y002924D01*
X001620Y002969D01*
X001645Y003013D01*
X001673Y003054D01*
X001705Y003093D01*
X001739Y003130D01*
X001776Y003164D01*
X001816Y003194D01*
X001858Y003221D01*
X001902Y003245D01*
X001948Y003266D01*
X001995Y003282D01*
X002043Y003295D01*
X002093Y003304D01*
X002142Y003309D01*
X002193Y003310D01*
X002243Y003307D01*
X002292Y003300D01*
X002341Y003289D01*
X002389Y003274D01*
X002435Y003256D01*
X002480Y003234D01*
X002523Y003208D01*
X002564Y003179D01*
X002603Y003147D01*
X002639Y003112D01*
X002671Y003074D01*
X002701Y003034D01*
X002728Y002991D01*
X002751Y002947D01*
X002770Y002901D01*
X002786Y002853D01*
X002798Y002804D01*
X002806Y002755D01*
X002810Y002705D01*
X002810Y002655D01*
X002806Y002605D01*
X002798Y002556D01*
X002786Y002507D01*
X002770Y002459D01*
X002751Y002413D01*
X002728Y002369D01*
X002701Y002326D01*
X002671Y002286D01*
X002639Y002248D01*
X002603Y002213D01*
X002564Y002181D01*
X002523Y002152D01*
X002480Y002126D01*
X002435Y002104D01*
X002389Y002086D01*
X002341Y002071D01*
X002292Y002060D01*
X002243Y002053D01*
X002193Y002050D01*
X002142Y002051D01*
X002093Y002056D01*
X002043Y002065D01*
X001995Y002078D01*
X001948Y002094D01*
X001902Y002115D01*
X001858Y002139D01*
X001816Y002166D01*
X001776Y002196D01*
X001739Y002230D01*
X001705Y002267D01*
X001673Y002306D01*
X001645Y002347D01*
X001620Y002391D01*
X001599Y002436D01*
X001582Y002483D01*
X001568Y002531D01*
X001558Y002580D01*
X001552Y002630D01*
X001550Y002680D01*
X001550Y020180D02*
X001552Y020230D01*
X001558Y020280D01*
X001568Y020329D01*
X001582Y020377D01*
X001599Y020424D01*
X001620Y020469D01*
X001645Y020513D01*
X001673Y020554D01*
X001705Y020593D01*
X001739Y020630D01*
X001776Y020664D01*
X001816Y020694D01*
X001858Y020721D01*
X001902Y020745D01*
X001948Y020766D01*
X001995Y020782D01*
X002043Y020795D01*
X002093Y020804D01*
X002142Y020809D01*
X002193Y020810D01*
X002243Y020807D01*
X002292Y020800D01*
X002341Y020789D01*
X002389Y020774D01*
X002435Y020756D01*
X002480Y020734D01*
X002523Y020708D01*
X002564Y020679D01*
X002603Y020647D01*
X002639Y020612D01*
X002671Y020574D01*
X002701Y020534D01*
X002728Y020491D01*
X002751Y020447D01*
X002770Y020401D01*
X002786Y020353D01*
X002798Y020304D01*
X002806Y020255D01*
X002810Y020205D01*
X002810Y020155D01*
X002806Y020105D01*
X002798Y020056D01*
X002786Y020007D01*
X002770Y019959D01*
X002751Y019913D01*
X002728Y019869D01*
X002701Y019826D01*
X002671Y019786D01*
X002639Y019748D01*
X002603Y019713D01*
X002564Y019681D01*
X002523Y019652D01*
X002480Y019626D01*
X002435Y019604D01*
X002389Y019586D01*
X002341Y019571D01*
X002292Y019560D01*
X002243Y019553D01*
X002193Y019550D01*
X002142Y019551D01*
X002093Y019556D01*
X002043Y019565D01*
X001995Y019578D01*
X001948Y019594D01*
X001902Y019615D01*
X001858Y019639D01*
X001816Y019666D01*
X001776Y019696D01*
X001739Y019730D01*
X001705Y019767D01*
X001673Y019806D01*
X001645Y019847D01*
X001620Y019891D01*
X001599Y019936D01*
X001582Y019983D01*
X001568Y020031D01*
X001558Y020080D01*
X001552Y020130D01*
X001550Y020180D01*
X034050Y020180D02*
X034052Y020230D01*
X034058Y020280D01*
X034068Y020329D01*
X034082Y020377D01*
X034099Y020424D01*
X034120Y020469D01*
X034145Y020513D01*
X034173Y020554D01*
X034205Y020593D01*
X034239Y020630D01*
X034276Y020664D01*
X034316Y020694D01*
X034358Y020721D01*
X034402Y020745D01*
X034448Y020766D01*
X034495Y020782D01*
X034543Y020795D01*
X034593Y020804D01*
X034642Y020809D01*
X034693Y020810D01*
X034743Y020807D01*
X034792Y020800D01*
X034841Y020789D01*
X034889Y020774D01*
X034935Y020756D01*
X034980Y020734D01*
X035023Y020708D01*
X035064Y020679D01*
X035103Y020647D01*
X035139Y020612D01*
X035171Y020574D01*
X035201Y020534D01*
X035228Y020491D01*
X035251Y020447D01*
X035270Y020401D01*
X035286Y020353D01*
X035298Y020304D01*
X035306Y020255D01*
X035310Y020205D01*
X035310Y020155D01*
X035306Y020105D01*
X035298Y020056D01*
X035286Y020007D01*
X035270Y019959D01*
X035251Y019913D01*
X035228Y019869D01*
X035201Y019826D01*
X035171Y019786D01*
X035139Y019748D01*
X035103Y019713D01*
X035064Y019681D01*
X035023Y019652D01*
X034980Y019626D01*
X034935Y019604D01*
X034889Y019586D01*
X034841Y019571D01*
X034792Y019560D01*
X034743Y019553D01*
X034693Y019550D01*
X034642Y019551D01*
X034593Y019556D01*
X034543Y019565D01*
X034495Y019578D01*
X034448Y019594D01*
X034402Y019615D01*
X034358Y019639D01*
X034316Y019666D01*
X034276Y019696D01*
X034239Y019730D01*
X034205Y019767D01*
X034173Y019806D01*
X034145Y019847D01*
X034120Y019891D01*
X034099Y019936D01*
X034082Y019983D01*
X034068Y020031D01*
X034058Y020080D01*
X034052Y020130D01*
X034050Y020180D01*
X034050Y002680D02*
X034052Y002730D01*
X034058Y002780D01*
X034068Y002829D01*
X034082Y002877D01*
X034099Y002924D01*
X034120Y002969D01*
X034145Y003013D01*
X034173Y003054D01*
X034205Y003093D01*
X034239Y003130D01*
X034276Y003164D01*
X034316Y003194D01*
X034358Y003221D01*
X034402Y003245D01*
X034448Y003266D01*
X034495Y003282D01*
X034543Y003295D01*
X034593Y003304D01*
X034642Y003309D01*
X034693Y003310D01*
X034743Y003307D01*
X034792Y003300D01*
X034841Y003289D01*
X034889Y003274D01*
X034935Y003256D01*
X034980Y003234D01*
X035023Y003208D01*
X035064Y003179D01*
X035103Y003147D01*
X035139Y003112D01*
X035171Y003074D01*
X035201Y003034D01*
X035228Y002991D01*
X035251Y002947D01*
X035270Y002901D01*
X035286Y002853D01*
X035298Y002804D01*
X035306Y002755D01*
X035310Y002705D01*
X035310Y002655D01*
X035306Y002605D01*
X035298Y002556D01*
X035286Y002507D01*
X035270Y002459D01*
X035251Y002413D01*
X035228Y002369D01*
X035201Y002326D01*
X035171Y002286D01*
X035139Y002248D01*
X035103Y002213D01*
X035064Y002181D01*
X035023Y002152D01*
X034980Y002126D01*
X034935Y002104D01*
X034889Y002086D01*
X034841Y002071D01*
X034792Y002060D01*
X034743Y002053D01*
X034693Y002050D01*
X034642Y002051D01*
X034593Y002056D01*
X034543Y002065D01*
X034495Y002078D01*
X034448Y002094D01*
X034402Y002115D01*
X034358Y002139D01*
X034316Y002166D01*
X034276Y002196D01*
X034239Y002230D01*
X034205Y002267D01*
X034173Y002306D01*
X034145Y002347D01*
X034120Y002391D01*
X034099Y002436D01*
X034082Y002483D01*
X034068Y002531D01*
X034058Y002580D01*
X034052Y002630D01*
X034050Y002680D01*
D11*
X002650Y010924D02*
X002436Y011137D01*
X002009Y011137D01*
X002436Y011461D02*
X002543Y011355D01*
X002650Y011461D01*
X002650Y011782D01*
X002330Y011782D01*
X002223Y011675D01*
X002223Y011461D01*
X002436Y011461D02*
X002436Y011782D01*
X002650Y011999D02*
X002650Y012213D01*
X002650Y012106D02*
X002009Y012106D01*
X002009Y011999D01*
X002009Y012429D02*
X002009Y012536D01*
X002650Y012536D01*
X002650Y012642D02*
X002650Y012429D01*
X002650Y012858D02*
X002009Y012858D01*
X002223Y012965D02*
X002223Y013179D01*
X002330Y013286D01*
X002650Y013286D01*
X002543Y013503D02*
X002436Y013610D01*
X002436Y013930D01*
X002330Y013930D02*
X002650Y013930D01*
X002650Y013610D01*
X002543Y013503D01*
X002223Y013610D02*
X002223Y013823D01*
X002330Y013930D01*
X002650Y014148D02*
X002650Y014361D01*
X002650Y014254D02*
X002009Y014254D01*
X002009Y014148D01*
X002009Y014577D02*
X002009Y014684D01*
X002650Y014684D01*
X002650Y014577D02*
X002650Y014791D01*
X002543Y015007D02*
X002436Y015114D01*
X002436Y015434D01*
X002330Y015434D02*
X002650Y015434D01*
X002650Y015114D01*
X002543Y015007D01*
X002223Y015114D02*
X002223Y015327D01*
X002330Y015434D01*
X002223Y016296D02*
X002650Y016510D01*
X002223Y016723D01*
X002116Y016941D02*
X002009Y017047D01*
X002009Y017261D01*
X002116Y017368D01*
X002543Y016941D01*
X002650Y017047D01*
X002650Y017261D01*
X002543Y017368D01*
X002116Y017368D01*
X002543Y017585D02*
X002543Y017692D01*
X002650Y017692D01*
X002650Y017585D01*
X002543Y017585D01*
X002650Y017907D02*
X002650Y018335D01*
X002650Y018121D02*
X002009Y018121D01*
X002223Y017907D01*
X002116Y016941D02*
X002543Y016941D01*
X002223Y012965D02*
X002330Y012858D01*
X002650Y010924D02*
X002436Y010710D01*
X002009Y010710D01*
D12*
X006180Y007180D03*
X006180Y006180D03*
X006180Y005180D03*
X003680Y005180D03*
X003680Y006180D03*
D13*
X010180Y012680D03*
X010180Y014180D03*
X008180Y014680D03*
X008180Y017680D03*
X013180Y014180D03*
X013180Y012680D03*
X016180Y012680D03*
X016180Y009680D03*
D14*
X016180Y006180D03*
X005180Y012680D03*
D15*
X005180Y011680D03*
X016180Y007180D03*
D16*
X005180Y016680D03*
X005180Y017680D03*
D17*
X012680Y010680D03*
D18*
X011680Y010680D03*
X010680Y010680D03*
D19*
X011180Y007074D03*
X013030Y005893D03*
X011180Y004711D03*
D20*
X008180Y004180D03*
X008180Y008180D03*
D21*
X018180Y009920D02*
X018180Y010440D01*
X019180Y010440D02*
X019180Y009920D01*
X020180Y009920D02*
X020180Y010440D01*
X021180Y010440D02*
X021180Y009920D01*
X022180Y009920D02*
X022180Y010440D01*
X023180Y010440D02*
X023180Y009920D01*
X024180Y009920D02*
X024180Y010440D01*
X025180Y010440D02*
X025180Y009920D01*
X026180Y009920D02*
X026180Y010440D01*
X027180Y010440D02*
X027180Y009920D01*
X028180Y009920D02*
X028180Y010440D01*
X029180Y010440D02*
X029180Y009920D01*
X030180Y009920D02*
X030180Y010440D01*
X031180Y010440D02*
X031180Y009920D01*
X031180Y012920D02*
X031180Y013440D01*
X030180Y013440D02*
X030180Y012920D01*
X029180Y012920D02*
X029180Y013440D01*
X028180Y013440D02*
X028180Y012920D01*
X027180Y012920D02*
X027180Y013440D01*
X026180Y013440D02*
X026180Y012920D01*
X025180Y012920D02*
X025180Y013440D01*
X024180Y013440D02*
X024180Y012920D01*
X023180Y012920D02*
X023180Y013440D01*
X022180Y013440D02*
X022180Y012920D01*
X021180Y012920D02*
X021180Y013440D01*
X020180Y013440D02*
X020180Y012920D01*
X019180Y012920D02*
X019180Y013440D01*
X018180Y013440D02*
X018180Y012920D01*
D22*
X018180Y017680D03*
X017180Y017680D03*
X016180Y017680D03*
X015180Y017680D03*
X014180Y017680D03*
X013180Y017680D03*
X012180Y017680D03*
X011180Y017680D03*
X011180Y018680D03*
X012180Y018680D03*
X013180Y018680D03*
X014180Y018680D03*
X015180Y018680D03*
X016180Y018680D03*
X017180Y018680D03*
X018180Y018680D03*
X019180Y018680D03*
X020180Y018680D03*
X021180Y018680D03*
X022180Y018680D03*
X023180Y018680D03*
X024180Y018680D03*
X025180Y018680D03*
X026180Y018680D03*
X027180Y018680D03*
X028180Y018680D03*
X029180Y018680D03*
X030180Y018680D03*
X030180Y017680D03*
X029180Y017680D03*
X028180Y017680D03*
X027180Y017680D03*
X026180Y017680D03*
X025180Y017680D03*
X024180Y017680D03*
X023180Y017680D03*
X022180Y017680D03*
X021180Y017680D03*
X020180Y017680D03*
X019180Y017680D03*
D23*
X026680Y015680D03*
X031680Y015680D03*
X032180Y017180D03*
X034180Y016180D03*
X034180Y018180D03*
X033180Y004180D03*
X032180Y004180D03*
X031180Y004180D03*
X030180Y004180D03*
X029180Y004180D03*
X028180Y004180D03*
X027180Y004180D03*
X026180Y004180D03*
X025180Y004180D03*
X024180Y004180D03*
X023180Y004180D03*
X022180Y004180D03*
X021180Y004180D03*
X020180Y004180D03*
X019180Y004180D03*
X018180Y004180D03*
D24*
X018180Y010180D01*
X019180Y010180D02*
X019180Y004180D01*
X020180Y004180D02*
X020180Y010180D01*
X021180Y010180D02*
X021180Y004180D01*
X022180Y004180D02*
X022180Y010180D01*
X023180Y010180D02*
X023180Y004180D01*
X024180Y004180D02*
X024180Y010180D01*
X025180Y010180D02*
X025180Y004180D01*
X026180Y004180D02*
X026180Y010180D01*
X027180Y010180D02*
X027180Y004180D01*
X028180Y004180D02*
X028180Y010180D01*
X029180Y010180D02*
X029180Y004180D01*
X030180Y004180D02*
X030180Y010180D01*
X031180Y010180D02*
X031180Y004180D01*
X032180Y004180D02*
X032180Y012680D01*
X031680Y013180D01*
X031180Y013180D01*
X030180Y013180D02*
X030180Y017680D01*
X029180Y017680D02*
X029180Y015180D01*
X028180Y014180D01*
X028180Y013180D01*
X027180Y013180D02*
X027180Y012180D01*
X026680Y011680D01*
X024680Y011680D01*
X025180Y012180D01*
X025180Y013180D01*
X024180Y013180D02*
X024180Y013880D01*
X024215Y013880D01*
X024283Y013869D01*
X024349Y013848D01*
X024370Y013837D01*
X024417Y013950D01*
X024670Y014203D01*
X025001Y014340D01*
X025359Y014340D01*
X025460Y014298D01*
X025460Y015323D01*
X025570Y015588D01*
X025670Y015688D01*
X025670Y015813D01*
X025739Y016070D01*
X025872Y016300D01*
X026060Y016488D01*
X026290Y016621D01*
X026547Y016690D01*
X026813Y016690D01*
X027070Y016621D01*
X027300Y016488D01*
X027488Y016300D01*
X027621Y016070D01*
X027690Y015813D01*
X027690Y015547D01*
X027621Y015290D01*
X027488Y015060D01*
X027300Y014872D01*
X027070Y014739D01*
X026900Y014693D01*
X026900Y014298D01*
X027001Y014340D01*
X027359Y014340D01*
X027460Y014298D01*
X027460Y014323D01*
X027570Y014588D01*
X028460Y015478D01*
X028460Y016740D01*
X027791Y016740D01*
X027680Y016851D01*
X027569Y016740D01*
X026791Y016740D01*
X026680Y016851D01*
X026569Y016740D01*
X025791Y016740D01*
X025331Y017200D01*
X025200Y017200D01*
X025200Y017660D01*
X025160Y017660D01*
X025160Y017200D01*
X025029Y017200D01*
X024569Y016740D01*
X023900Y016740D01*
X023900Y013993D01*
X023943Y013950D01*
X023990Y013837D01*
X024011Y013848D01*
X024077Y013869D01*
X024145Y013880D01*
X024180Y013880D01*
X024180Y013180D01*
X024180Y013180D01*
X024180Y013300D02*
X024180Y013300D01*
X024180Y013458D02*
X024180Y013458D01*
X024180Y013617D02*
X024180Y013617D01*
X024180Y013775D02*
X024180Y013775D01*
X023950Y013934D02*
X024410Y013934D01*
X024559Y014092D02*
X023900Y014092D01*
X023900Y014251D02*
X024785Y014251D01*
X025460Y014409D02*
X023900Y014409D01*
X023900Y014568D02*
X025460Y014568D01*
X025460Y014726D02*
X023900Y014726D01*
X023900Y014885D02*
X025460Y014885D01*
X025460Y015043D02*
X023900Y015043D01*
X023900Y015202D02*
X025460Y015202D01*
X025475Y015360D02*
X023900Y015360D01*
X023900Y015519D02*
X025541Y015519D01*
X025659Y015677D02*
X023900Y015677D01*
X023900Y015836D02*
X025676Y015836D01*
X025719Y015994D02*
X023900Y015994D01*
X023900Y016153D02*
X025787Y016153D01*
X025883Y016311D02*
X023900Y016311D01*
X023900Y016470D02*
X026041Y016470D01*
X026316Y016628D02*
X023900Y016628D01*
X024616Y016787D02*
X025744Y016787D01*
X025586Y016945D02*
X024774Y016945D01*
X024933Y017104D02*
X025427Y017104D01*
X025200Y017262D02*
X025160Y017262D01*
X025160Y017421D02*
X025200Y017421D01*
X025200Y017579D02*
X025160Y017579D01*
X026616Y016787D02*
X026744Y016787D01*
X027044Y016628D02*
X028460Y016628D01*
X028460Y016470D02*
X027319Y016470D01*
X027477Y016311D02*
X028460Y016311D01*
X028460Y016153D02*
X027573Y016153D01*
X027641Y015994D02*
X028460Y015994D01*
X028460Y015836D02*
X027684Y015836D01*
X027690Y015677D02*
X028460Y015677D01*
X028460Y015519D02*
X027682Y015519D01*
X027640Y015360D02*
X028342Y015360D01*
X028183Y015202D02*
X027570Y015202D01*
X027471Y015043D02*
X028025Y015043D01*
X027866Y014885D02*
X027313Y014885D01*
X027022Y014726D02*
X027708Y014726D01*
X027561Y014568D02*
X026900Y014568D01*
X026900Y014409D02*
X027496Y014409D01*
X026680Y015680D02*
X026180Y015180D01*
X026180Y013180D01*
X024680Y011680D02*
X017680Y011680D01*
X017180Y011180D01*
X017180Y008180D01*
X016180Y007180D01*
X014680Y007180D01*
X011680Y010180D01*
X011680Y010680D01*
X011680Y011180D01*
X010180Y012680D01*
X008180Y014680D01*
X009022Y015043D02*
X012867Y015043D01*
X012998Y015097D02*
X012660Y014958D01*
X012603Y014900D01*
X012537Y014900D01*
X012272Y014790D01*
X012070Y014588D01*
X011070Y013588D01*
X010960Y013323D01*
X010960Y013194D01*
X010958Y013200D01*
X010700Y013458D01*
X010362Y013597D01*
X010281Y013597D01*
X010155Y013723D01*
X010171Y013723D01*
X010171Y014171D01*
X009723Y014171D01*
X009723Y014155D01*
X009097Y014781D01*
X009097Y014862D01*
X008958Y015200D01*
X008700Y015458D01*
X008362Y015597D01*
X007998Y015597D01*
X007660Y015458D01*
X007402Y015200D01*
X007263Y014862D01*
X007263Y014498D01*
X007402Y014160D01*
X007660Y013902D01*
X007998Y013763D01*
X008079Y013763D01*
X009263Y012579D01*
X009263Y012498D01*
X009402Y012160D01*
X009660Y011902D01*
X009998Y011763D01*
X010079Y011763D01*
X010304Y011538D01*
X010149Y011474D01*
X010075Y011400D01*
X008537Y011400D01*
X008495Y011383D01*
X007790Y012088D01*
X007588Y012290D01*
X007323Y012400D01*
X005841Y012400D01*
X005780Y012460D01*
X005575Y012545D01*
X005588Y012582D01*
X005598Y012647D01*
X005598Y012680D01*
X005598Y012713D01*
X005588Y012778D01*
X005567Y012840D01*
X005537Y012899D01*
X005499Y012952D01*
X005452Y012999D01*
X005399Y013037D01*
X005340Y013067D01*
X005278Y013088D01*
X005213Y013098D01*
X005180Y013098D01*
X005147Y013098D01*
X005082Y013088D01*
X005020Y013067D01*
X004961Y013037D01*
X004908Y012999D01*
X004861Y012952D01*
X004823Y012899D01*
X004793Y012840D01*
X004772Y012778D01*
X004762Y012713D01*
X004762Y012680D01*
X004762Y012647D01*
X004772Y012582D01*
X004785Y012545D01*
X004580Y012460D01*
X004400Y012280D01*
X004302Y012045D01*
X004302Y011315D01*
X004400Y011080D01*
X004580Y010900D01*
X004815Y010802D01*
X005545Y010802D01*
X005780Y010900D01*
X005841Y010960D01*
X006882Y010960D01*
X007460Y010382D01*
X007460Y008866D01*
X007337Y008743D01*
X007186Y008378D01*
X007186Y007982D01*
X007337Y007617D01*
X007617Y007337D01*
X007982Y007186D01*
X008378Y007186D01*
X008743Y007337D01*
X009023Y007617D01*
X009174Y007982D01*
X009174Y008378D01*
X009023Y008743D01*
X008900Y008866D01*
X008900Y009882D01*
X008978Y009960D01*
X010075Y009960D01*
X010149Y009886D01*
X010494Y009743D01*
X010866Y009743D01*
X011050Y009819D01*
X011070Y009772D01*
X014272Y006570D01*
X014537Y006460D01*
X015519Y006460D01*
X015580Y006400D01*
X015785Y006315D01*
X015772Y006278D01*
X015762Y006213D01*
X015762Y006180D01*
X015762Y006147D01*
X015772Y006082D01*
X015793Y006020D01*
X015823Y005961D01*
X015861Y005908D01*
X015908Y005861D01*
X015961Y005823D01*
X016020Y005793D01*
X016082Y005772D01*
X016147Y005762D01*
X016180Y005762D01*
X016213Y005762D01*
X016278Y005772D01*
X016340Y005793D01*
X016399Y005823D01*
X016452Y005861D01*
X016499Y005908D01*
X016537Y005961D01*
X016567Y006020D01*
X016588Y006082D01*
X016598Y006147D01*
X016598Y006180D01*
X016598Y006213D01*
X016588Y006278D01*
X016575Y006315D01*
X016780Y006400D01*
X016960Y006580D01*
X017058Y006815D01*
X017058Y007040D01*
X017460Y007442D01*
X017460Y004888D01*
X017372Y004800D01*
X017239Y004570D01*
X017170Y004313D01*
X017170Y004047D01*
X017239Y003790D01*
X017372Y003560D01*
X017560Y003372D01*
X017790Y003239D01*
X018047Y003170D01*
X018313Y003170D01*
X018570Y003239D01*
X018680Y003302D01*
X018790Y003239D01*
X019047Y003170D01*
X019313Y003170D01*
X019570Y003239D01*
X019680Y003302D01*
X019790Y003239D01*
X020047Y003170D01*
X020313Y003170D01*
X020570Y003239D01*
X020680Y003302D01*
X020790Y003239D01*
X021047Y003170D01*
X021313Y003170D01*
X021570Y003239D01*
X021680Y003302D01*
X021790Y003239D01*
X022047Y003170D01*
X022313Y003170D01*
X022570Y003239D01*
X022680Y003302D01*
X022790Y003239D01*
X023047Y003170D01*
X023313Y003170D01*
X023570Y003239D01*
X023680Y003302D01*
X023790Y003239D01*
X024047Y003170D01*
X024313Y003170D01*
X024570Y003239D01*
X024680Y003302D01*
X024790Y003239D01*
X025047Y003170D01*
X025313Y003170D01*
X025570Y003239D01*
X025680Y003302D01*
X025790Y003239D01*
X026047Y003170D01*
X026313Y003170D01*
X026570Y003239D01*
X026680Y003302D01*
X026790Y003239D01*
X027047Y003170D01*
X027313Y003170D01*
X027570Y003239D01*
X027680Y003302D01*
X027790Y003239D01*
X028047Y003170D01*
X028313Y003170D01*
X028570Y003239D01*
X028680Y003302D01*
X028790Y003239D01*
X029047Y003170D01*
X029313Y003170D01*
X029570Y003239D01*
X029680Y003302D01*
X029790Y003239D01*
X030047Y003170D01*
X030313Y003170D01*
X030570Y003239D01*
X030680Y003302D01*
X030790Y003239D01*
X031047Y003170D01*
X031313Y003170D01*
X031570Y003239D01*
X031680Y003302D01*
X031790Y003239D01*
X032047Y003170D01*
X032313Y003170D01*
X032570Y003239D01*
X032680Y003302D01*
X032790Y003239D01*
X033047Y003170D01*
X033313Y003170D01*
X033530Y003228D01*
X033497Y003170D01*
X033410Y002847D01*
X033410Y002513D01*
X033497Y002190D01*
X033664Y001900D01*
X033900Y001664D01*
X034190Y001497D01*
X034513Y001410D01*
X034847Y001410D01*
X035170Y001497D01*
X035460Y001664D01*
X035696Y001900D01*
X035863Y002190D01*
X035950Y002513D01*
X035950Y002847D01*
X035863Y003170D01*
X035696Y003460D01*
X035460Y003696D01*
X035170Y003863D01*
X034847Y003950D01*
X034513Y003950D01*
X034190Y003863D01*
X034132Y003830D01*
X034190Y004047D01*
X034190Y004313D01*
X034121Y004570D01*
X033988Y004800D01*
X033900Y004888D01*
X033900Y015705D01*
X033969Y015670D01*
X034051Y015644D01*
X034137Y015630D01*
X034162Y015630D01*
X034162Y016162D01*
X034198Y016162D01*
X034198Y016198D01*
X034162Y016198D01*
X034162Y016730D01*
X034137Y016730D01*
X034051Y016716D01*
X033969Y016690D01*
X033900Y016655D01*
X033900Y017209D01*
X034047Y017170D01*
X034313Y017170D01*
X034570Y017239D01*
X034800Y017372D01*
X034988Y017560D01*
X035121Y017790D01*
X035190Y018047D01*
X035190Y018313D01*
X035121Y018570D01*
X034988Y018800D01*
X034872Y018917D01*
X035170Y018997D01*
X035460Y019164D01*
X036032Y019164D01*
X036032Y019006D02*
X035186Y019006D01*
X034941Y018847D02*
X036032Y018847D01*
X036032Y018689D02*
X035053Y018689D01*
X035132Y018530D02*
X036032Y018530D01*
X036032Y018372D02*
X035174Y018372D01*
X035190Y018213D02*
X036032Y018213D01*
X036032Y018055D02*
X035190Y018055D01*
X035150Y017896D02*
X036032Y017896D01*
X036032Y017738D02*
X035091Y017738D01*
X034999Y017579D02*
X036032Y017579D01*
X036032Y017421D02*
X034849Y017421D01*
X034610Y017262D02*
X036032Y017262D01*
X036032Y017104D02*
X033900Y017104D01*
X033900Y016945D02*
X036032Y016945D01*
X036032Y016787D02*
X033900Y016787D01*
X034198Y016730D02*
X034198Y016198D01*
X034730Y016198D01*
X034730Y016223D01*
X034716Y016309D01*
X034690Y016391D01*
X034650Y016468D01*
X034600Y016538D01*
X034538Y016600D01*
X034468Y016650D01*
X034391Y016690D01*
X034309Y016716D01*
X034223Y016730D01*
X034198Y016730D01*
X034198Y016628D02*
X034162Y016628D01*
X034162Y016470D02*
X034198Y016470D01*
X034198Y016311D02*
X034162Y016311D01*
X034198Y016162D02*
X034730Y016162D01*
X034730Y016137D01*
X034716Y016051D01*
X034690Y015969D01*
X034650Y015892D01*
X034600Y015822D01*
X034538Y015760D01*
X034468Y015710D01*
X034391Y015670D01*
X034309Y015644D01*
X034223Y015630D01*
X034198Y015630D01*
X034198Y016162D01*
X034198Y016153D02*
X034162Y016153D01*
X034162Y015994D02*
X034198Y015994D01*
X034198Y015836D02*
X034162Y015836D01*
X034162Y015677D02*
X034198Y015677D01*
X034404Y015677D02*
X036032Y015677D01*
X036032Y015519D02*
X033900Y015519D01*
X033900Y015677D02*
X033956Y015677D01*
X034610Y015836D02*
X036032Y015836D01*
X036032Y015994D02*
X034698Y015994D01*
X034730Y016153D02*
X036032Y016153D01*
X036032Y016311D02*
X034716Y016311D01*
X034649Y016470D02*
X036032Y016470D01*
X036032Y016628D02*
X034499Y016628D01*
X033900Y015360D02*
X036032Y015360D01*
X036032Y015202D02*
X033900Y015202D01*
X033900Y015043D02*
X036032Y015043D01*
X036032Y014885D02*
X033900Y014885D01*
X033900Y014726D02*
X036032Y014726D01*
X036032Y014568D02*
X033900Y014568D01*
X033900Y014409D02*
X036032Y014409D01*
X036032Y014251D02*
X033900Y014251D01*
X033900Y014092D02*
X036032Y014092D01*
X036032Y013934D02*
X033900Y013934D01*
X033900Y013775D02*
X036032Y013775D01*
X036032Y013617D02*
X033900Y013617D01*
X033900Y013458D02*
X036032Y013458D01*
X036032Y013300D02*
X033900Y013300D01*
X033900Y013141D02*
X036032Y013141D01*
X036032Y012983D02*
X033900Y012983D01*
X033900Y012824D02*
X036032Y012824D01*
X036032Y012666D02*
X033900Y012666D01*
X033900Y012507D02*
X036032Y012507D01*
X036032Y012349D02*
X033900Y012349D01*
X033900Y012190D02*
X036032Y012190D01*
X036032Y012032D02*
X033900Y012032D01*
X033900Y011873D02*
X036032Y011873D01*
X036032Y011715D02*
X033900Y011715D01*
X033900Y011556D02*
X036032Y011556D01*
X036032Y011398D02*
X033900Y011398D01*
X033900Y011239D02*
X036032Y011239D01*
X036032Y011081D02*
X033900Y011081D01*
X033900Y010922D02*
X036032Y010922D01*
X036032Y010764D02*
X033900Y010764D01*
X033900Y010605D02*
X036032Y010605D01*
X036032Y010447D02*
X033900Y010447D01*
X033900Y010288D02*
X036032Y010288D01*
X036032Y010130D02*
X033900Y010130D01*
X033900Y009971D02*
X036032Y009971D01*
X036032Y009813D02*
X033900Y009813D01*
X033900Y009654D02*
X036032Y009654D01*
X036032Y009496D02*
X033900Y009496D01*
X033900Y009337D02*
X036032Y009337D01*
X036032Y009179D02*
X033900Y009179D01*
X033900Y009020D02*
X036032Y009020D01*
X036032Y008862D02*
X033900Y008862D01*
X033900Y008703D02*
X036032Y008703D01*
X036032Y008545D02*
X033900Y008545D01*
X033900Y008386D02*
X036032Y008386D01*
X036032Y008228D02*
X033900Y008228D01*
X033900Y008069D02*
X036032Y008069D01*
X036032Y007911D02*
X033900Y007911D01*
X033900Y007752D02*
X036032Y007752D01*
X036032Y007594D02*
X033900Y007594D01*
X033900Y007435D02*
X036032Y007435D01*
X036032Y007277D02*
X033900Y007277D01*
X033900Y007118D02*
X036032Y007118D01*
X036032Y006960D02*
X033900Y006960D01*
X033900Y006801D02*
X036032Y006801D01*
X036032Y006643D02*
X033900Y006643D01*
X033900Y006484D02*
X036032Y006484D01*
X036032Y006326D02*
X033900Y006326D01*
X033900Y006167D02*
X036032Y006167D01*
X036032Y006009D02*
X033900Y006009D01*
X033900Y005850D02*
X036032Y005850D01*
X036032Y005692D02*
X033900Y005692D01*
X033900Y005533D02*
X036032Y005533D01*
X036032Y005375D02*
X033900Y005375D01*
X033900Y005216D02*
X036032Y005216D01*
X036032Y005058D02*
X033900Y005058D01*
X033900Y004899D02*
X036032Y004899D01*
X036032Y004741D02*
X034023Y004741D01*
X034114Y004582D02*
X036032Y004582D01*
X036032Y004424D02*
X034160Y004424D01*
X034190Y004265D02*
X036032Y004265D01*
X036032Y004107D02*
X034190Y004107D01*
X034163Y003948D02*
X034506Y003948D01*
X034854Y003948D02*
X036032Y003948D01*
X036032Y003790D02*
X035298Y003790D01*
X035525Y003631D02*
X036032Y003631D01*
X036032Y003473D02*
X035683Y003473D01*
X035780Y003314D02*
X036032Y003314D01*
X036032Y003156D02*
X035867Y003156D01*
X035910Y002997D02*
X036032Y002997D01*
X036032Y002839D02*
X035950Y002839D01*
X035950Y002680D02*
X036032Y002680D01*
X036032Y002521D02*
X035950Y002521D01*
X035910Y002363D02*
X036032Y002363D01*
X036032Y002204D02*
X035867Y002204D01*
X035780Y002046D02*
X036032Y002046D01*
X036032Y001887D02*
X035683Y001887D01*
X035525Y001729D02*
X036032Y001729D01*
X036032Y001570D02*
X035298Y001570D01*
X034854Y001412D02*
X036032Y001412D01*
X036032Y001320D02*
X036032Y021910D01*
X000820Y021910D01*
X000820Y001320D01*
X036032Y001320D01*
X034506Y001412D02*
X002354Y001412D01*
X002347Y001410D02*
X002670Y001497D01*
X002960Y001664D01*
X003196Y001900D01*
X003363Y002190D01*
X003450Y002513D01*
X003450Y002847D01*
X003363Y003170D01*
X003196Y003460D01*
X002960Y003696D01*
X002670Y003863D01*
X002347Y003950D01*
X002013Y003950D01*
X001690Y003863D01*
X001400Y003696D01*
X001164Y003460D01*
X000997Y003170D01*
X000910Y002847D01*
X000910Y002513D01*
X000997Y002190D01*
X001164Y001900D01*
X001400Y001664D01*
X001690Y001497D01*
X002013Y001410D01*
X002347Y001410D01*
X002006Y001412D02*
X000820Y001412D01*
X000820Y001570D02*
X001562Y001570D01*
X001335Y001729D02*
X000820Y001729D01*
X000820Y001887D02*
X001177Y001887D01*
X001080Y002046D02*
X000820Y002046D01*
X000820Y002204D02*
X000993Y002204D01*
X000950Y002363D02*
X000820Y002363D01*
X000820Y002521D02*
X000910Y002521D01*
X000910Y002680D02*
X000820Y002680D01*
X000820Y002839D02*
X000910Y002839D01*
X000950Y002997D02*
X000820Y002997D01*
X000820Y003156D02*
X000993Y003156D01*
X001080Y003314D02*
X000820Y003314D01*
X000820Y003473D02*
X001177Y003473D01*
X001335Y003631D02*
X000820Y003631D01*
X000820Y003790D02*
X001562Y003790D01*
X002006Y003948D02*
X000820Y003948D01*
X000820Y004107D02*
X006235Y004107D01*
X006102Y004240D02*
X006772Y003570D01*
X007037Y003460D01*
X007494Y003460D01*
X007617Y003337D01*
X007982Y003186D01*
X008378Y003186D01*
X008743Y003337D01*
X009023Y003617D01*
X009174Y003982D01*
X009174Y004378D01*
X009023Y004743D01*
X008743Y005023D01*
X008378Y005174D01*
X007982Y005174D01*
X007617Y005023D01*
X007494Y004900D01*
X007478Y004900D01*
X007120Y005258D01*
X007120Y005367D01*
X007081Y005460D01*
X010430Y005460D01*
X010694Y005570D01*
X010815Y005691D01*
X010952Y005654D01*
X010911Y005645D01*
X010808Y005609D01*
X010710Y005562D01*
X010618Y005504D01*
X010533Y005436D01*
X010456Y005359D01*
X010388Y005274D01*
X010330Y005181D01*
X010282Y005083D01*
X010246Y004980D01*
X010222Y004874D01*
X010213Y004791D01*
X011100Y004791D01*
X011100Y004631D01*
X011260Y004631D01*
X011260Y003744D01*
X011343Y003754D01*
X011449Y003778D01*
X011552Y003814D01*
X011650Y003861D01*
X011742Y003919D01*
X011827Y003987D01*
X011904Y004064D01*
X011972Y004149D01*
X012030Y004242D01*
X012078Y004340D01*
X012114Y004443D01*
X012138Y004549D01*
X012147Y004631D01*
X011260Y004631D01*
X011260Y004791D01*
X012147Y004791D01*
X012138Y004874D01*
X012114Y004980D01*
X012078Y005083D01*
X012030Y005181D01*
X011972Y005274D01*
X011904Y005359D01*
X011827Y005436D01*
X011742Y005504D01*
X011650Y005562D01*
X011552Y005609D01*
X011449Y005645D01*
X011408Y005654D01*
X011732Y005741D01*
X012058Y005929D01*
X012101Y005973D01*
X012950Y005973D01*
X012950Y006860D01*
X012868Y006850D01*
X012761Y006826D01*
X012659Y006790D01*
X012573Y006749D01*
X012610Y006885D01*
X012610Y007262D01*
X012513Y007626D01*
X012324Y007952D01*
X012058Y008218D01*
X011732Y008406D01*
X011368Y008504D01*
X010992Y008504D01*
X010628Y008406D01*
X010302Y008218D01*
X010036Y007952D01*
X009847Y007626D01*
X009750Y007262D01*
X009750Y006900D01*
X007081Y006900D01*
X007120Y006993D01*
X007120Y007367D01*
X006977Y007712D01*
X006712Y007977D01*
X006367Y008120D01*
X005993Y008120D01*
X005648Y007977D01*
X005383Y007712D01*
X005240Y007367D01*
X005240Y006993D01*
X005279Y006900D01*
X004289Y006900D01*
X004212Y006977D01*
X003867Y007120D01*
X003493Y007120D01*
X003148Y006977D01*
X002883Y006712D01*
X002740Y006367D01*
X002740Y005993D01*
X002883Y005648D01*
X003148Y005383D01*
X003230Y005349D01*
X003212Y005292D01*
X003200Y005218D01*
X003200Y005200D01*
X003660Y005200D01*
X003660Y005160D01*
X003200Y005160D01*
X003200Y005142D01*
X003212Y005068D01*
X003235Y004996D01*
X003269Y004928D01*
X003314Y004867D01*
X003367Y004814D01*
X003428Y004769D01*
X003496Y004735D01*
X003568Y004712D01*
X003642Y004700D01*
X003660Y004700D01*
X003660Y005160D01*
X003700Y005160D01*
X003700Y005200D01*
X004160Y005200D01*
X004160Y005218D01*
X004148Y005292D01*
X004130Y005349D01*
X004212Y005383D01*
X004289Y005460D01*
X005279Y005460D01*
X005240Y005367D01*
X005240Y004993D01*
X005383Y004648D01*
X005648Y004383D01*
X005993Y004240D01*
X006102Y004240D01*
X005933Y004265D02*
X000820Y004265D01*
X000820Y004424D02*
X005607Y004424D01*
X005449Y004582D02*
X000820Y004582D01*
X000820Y004741D02*
X003485Y004741D01*
X003660Y004741D02*
X003700Y004741D01*
X003700Y004700D02*
X003718Y004700D01*
X003792Y004712D01*
X003864Y004735D01*
X003932Y004769D01*
X003993Y004814D01*
X004046Y004867D01*
X004091Y004928D01*
X004125Y004996D01*
X004148Y005068D01*
X004160Y005142D01*
X004160Y005160D01*
X003700Y005160D01*
X003700Y004700D01*
X003875Y004741D02*
X005345Y004741D01*
X005279Y004899D02*
X004069Y004899D01*
X004145Y005058D02*
X005240Y005058D01*
X005240Y005216D02*
X004160Y005216D01*
X004192Y005375D02*
X005243Y005375D01*
X006180Y005180D02*
X007180Y004180D01*
X008180Y004180D01*
X009095Y003790D02*
X010878Y003790D01*
X010911Y003778D02*
X011017Y003754D01*
X011100Y003744D01*
X011100Y004631D01*
X010213Y004631D01*
X010222Y004549D01*
X010246Y004443D01*
X010282Y004340D01*
X010330Y004242D01*
X010388Y004149D01*
X010456Y004064D01*
X010533Y003987D01*
X010618Y003919D01*
X010710Y003861D01*
X010808Y003814D01*
X010911Y003778D01*
X011100Y003790D02*
X011260Y003790D01*
X011260Y003948D02*
X011100Y003948D01*
X011100Y004107D02*
X011260Y004107D01*
X011260Y004265D02*
X011100Y004265D01*
X011100Y004424D02*
X011260Y004424D01*
X011260Y004582D02*
X011100Y004582D01*
X011100Y004741D02*
X009024Y004741D01*
X009090Y004582D02*
X010218Y004582D01*
X010253Y004424D02*
X009155Y004424D01*
X009174Y004265D02*
X010318Y004265D01*
X010422Y004107D02*
X009174Y004107D01*
X009160Y003948D02*
X010582Y003948D01*
X011482Y003790D02*
X017239Y003790D01*
X017197Y003948D02*
X011778Y003948D01*
X011938Y004107D02*
X017170Y004107D01*
X017170Y004265D02*
X012042Y004265D01*
X012107Y004424D02*
X017200Y004424D01*
X017246Y004582D02*
X012142Y004582D01*
X012132Y004899D02*
X017460Y004899D01*
X017460Y005058D02*
X013525Y005058D01*
X013500Y005042D02*
X013593Y005100D01*
X013678Y005168D01*
X013755Y005245D01*
X013823Y005330D01*
X013881Y005423D01*
X013928Y005521D01*
X013964Y005624D01*
X013988Y005730D01*
X013998Y005813D01*
X013110Y005813D01*
X013110Y005973D01*
X012950Y005973D01*
X012950Y005813D01*
X012063Y005813D01*
X012073Y005730D01*
X012097Y005624D01*
X012133Y005521D01*
X012180Y005423D01*
X012238Y005330D01*
X012306Y005245D01*
X012383Y005168D01*
X012468Y005100D01*
X012560Y005042D01*
X012659Y004995D01*
X012761Y004959D01*
X012868Y004935D01*
X012950Y004925D01*
X012950Y005813D01*
X013110Y005813D01*
X013110Y004925D01*
X013193Y004935D01*
X013299Y004959D01*
X013402Y004995D01*
X013500Y005042D01*
X013726Y005216D02*
X017460Y005216D01*
X017460Y005375D02*
X013850Y005375D01*
X013932Y005533D02*
X017460Y005533D01*
X017460Y005692D02*
X013979Y005692D01*
X013998Y005973D02*
X013988Y006055D01*
X013964Y006162D01*
X013928Y006264D01*
X013881Y006363D01*
X013823Y006455D01*
X013755Y006540D01*
X013678Y006617D01*
X013593Y006685D01*
X013500Y006743D01*
X013402Y006790D01*
X013299Y006826D01*
X013193Y006850D01*
X013110Y006860D01*
X013110Y005973D01*
X013998Y005973D01*
X013993Y006009D02*
X015798Y006009D01*
X015762Y006167D02*
X013962Y006167D01*
X013899Y006326D02*
X015759Y006326D01*
X015762Y006180D02*
X016180Y006180D01*
X016598Y006180D01*
X016180Y006180D01*
X016180Y006180D01*
X016180Y005762D01*
X016180Y006180D01*
X016180Y006180D01*
X016180Y006180D01*
X015762Y006180D01*
X015923Y005850D02*
X013110Y005850D01*
X013110Y005692D02*
X012950Y005692D01*
X012950Y005850D02*
X011920Y005850D01*
X012081Y005692D02*
X011547Y005692D01*
X011696Y005533D02*
X012129Y005533D01*
X012210Y005375D02*
X011889Y005375D01*
X012009Y005216D02*
X012335Y005216D01*
X012536Y005058D02*
X012087Y005058D01*
X011260Y004741D02*
X017337Y004741D01*
X017331Y003631D02*
X009029Y003631D01*
X008879Y003473D02*
X017459Y003473D01*
X017660Y003314D02*
X008688Y003314D01*
X007672Y003314D02*
X003280Y003314D01*
X003367Y003156D02*
X033493Y003156D01*
X033450Y002997D02*
X003410Y002997D01*
X003450Y002839D02*
X033410Y002839D01*
X033410Y002680D02*
X003450Y002680D01*
X003450Y002521D02*
X033410Y002521D01*
X033450Y002363D02*
X003410Y002363D01*
X003367Y002204D02*
X033493Y002204D01*
X033580Y002046D02*
X003280Y002046D01*
X003183Y001887D02*
X033677Y001887D01*
X033835Y001729D02*
X003025Y001729D01*
X002798Y001570D02*
X034062Y001570D01*
X033180Y004180D02*
X033180Y018680D01*
X032180Y019680D01*
X010180Y019680D01*
X009680Y019180D01*
X009680Y017180D01*
X010680Y016180D01*
X014680Y016180D01*
X017680Y013180D01*
X018180Y013180D01*
X019180Y013180D02*
X019180Y017680D01*
X020180Y017680D02*
X020180Y013180D01*
X021180Y013180D02*
X021180Y017680D01*
X022180Y017680D02*
X022180Y013180D01*
X023180Y013180D02*
X023180Y017680D01*
X027616Y016787D02*
X027744Y016787D01*
X031680Y016680D02*
X031680Y015680D01*
X031680Y016680D02*
X032180Y017180D01*
X033769Y019109D02*
X033588Y019290D01*
X032588Y020290D01*
X032323Y020400D01*
X010037Y020400D01*
X009772Y020290D01*
X009570Y020088D01*
X009070Y019588D01*
X008960Y019323D01*
X008960Y018194D01*
X008958Y018200D01*
X008700Y018458D01*
X008362Y018597D01*
X007998Y018597D01*
X007660Y018458D01*
X007603Y018400D01*
X005733Y018400D01*
X005553Y018580D01*
X004807Y018580D01*
X004280Y018053D01*
X004280Y017307D01*
X004740Y016847D01*
X004740Y016680D01*
X005180Y016680D01*
X005620Y016680D01*
X005620Y016847D01*
X005733Y016960D01*
X007603Y016960D01*
X007660Y016902D01*
X007998Y016763D01*
X008362Y016763D01*
X008700Y016902D01*
X008958Y017160D01*
X008960Y017166D01*
X008960Y017037D01*
X009070Y016772D01*
X009272Y016570D01*
X010272Y015570D01*
X010537Y015460D01*
X014382Y015460D01*
X016245Y013597D01*
X015998Y013597D01*
X015660Y013458D01*
X015603Y013400D01*
X013757Y013400D01*
X013727Y013430D01*
X013958Y013660D01*
X014097Y013998D01*
X014097Y014362D01*
X013958Y014700D01*
X013700Y014958D01*
X013362Y015097D01*
X012998Y015097D01*
X013493Y015043D02*
X014799Y015043D01*
X014957Y014885D02*
X013773Y014885D01*
X013931Y014726D02*
X015116Y014726D01*
X015274Y014568D02*
X014012Y014568D01*
X014078Y014409D02*
X015433Y014409D01*
X015591Y014251D02*
X014097Y014251D01*
X014097Y014092D02*
X015750Y014092D01*
X015908Y013934D02*
X014071Y013934D01*
X014005Y013775D02*
X016067Y013775D01*
X016225Y013617D02*
X013914Y013617D01*
X013755Y013458D02*
X015662Y013458D01*
X016180Y012680D02*
X013180Y012680D01*
X011680Y012180D02*
X011680Y013180D01*
X012680Y014180D01*
X013180Y014180D01*
X012499Y014885D02*
X009088Y014885D01*
X009152Y014726D02*
X012208Y014726D01*
X012049Y014568D02*
X010424Y014568D01*
X010420Y014571D02*
X010355Y014604D01*
X010287Y014626D01*
X010216Y014637D01*
X010189Y014637D01*
X010189Y014189D01*
X010171Y014189D01*
X010171Y014637D01*
X010144Y014637D01*
X010073Y014626D01*
X010005Y014604D01*
X009940Y014571D01*
X009882Y014529D01*
X009831Y014478D01*
X009789Y014420D01*
X009756Y014355D01*
X009734Y014287D01*
X009723Y014216D01*
X009723Y014189D01*
X010171Y014189D01*
X010171Y014171D01*
X010189Y014171D01*
X010189Y014189D01*
X010637Y014189D01*
X010637Y014216D01*
X010626Y014287D01*
X010604Y014355D01*
X010571Y014420D01*
X010529Y014478D01*
X010478Y014529D01*
X010420Y014571D01*
X010576Y014409D02*
X011891Y014409D01*
X011732Y014251D02*
X010632Y014251D01*
X010637Y014171D02*
X010189Y014171D01*
X010189Y013723D01*
X010216Y013723D01*
X010287Y013734D01*
X010355Y013756D01*
X010420Y013789D01*
X010478Y013831D01*
X010529Y013882D01*
X010571Y013940D01*
X010604Y014005D01*
X010626Y014073D01*
X010637Y014144D01*
X010637Y014171D01*
X010629Y014092D02*
X011574Y014092D01*
X011415Y013934D02*
X010566Y013934D01*
X010392Y013775D02*
X011257Y013775D01*
X011098Y013617D02*
X010262Y013617D01*
X010189Y013775D02*
X010171Y013775D01*
X010171Y013934D02*
X010189Y013934D01*
X010189Y014092D02*
X010171Y014092D01*
X010171Y014251D02*
X010189Y014251D01*
X010189Y014409D02*
X010171Y014409D01*
X010171Y014568D02*
X010189Y014568D01*
X009936Y014568D02*
X009311Y014568D01*
X009469Y014409D02*
X009784Y014409D01*
X009728Y014251D02*
X009628Y014251D01*
X008956Y015202D02*
X014640Y015202D01*
X014482Y015360D02*
X008797Y015360D01*
X008552Y015519D02*
X010396Y015519D01*
X010165Y015677D02*
X003553Y015677D01*
X003553Y015519D02*
X007808Y015519D01*
X007563Y015360D02*
X003553Y015360D01*
X003553Y015202D02*
X007404Y015202D01*
X007338Y015043D02*
X003553Y015043D01*
X003553Y014885D02*
X007272Y014885D01*
X007263Y014726D02*
X003553Y014726D01*
X003553Y014568D02*
X007263Y014568D01*
X007300Y014409D02*
X003553Y014409D01*
X003553Y014251D02*
X007365Y014251D01*
X007471Y014092D02*
X003553Y014092D01*
X003553Y013934D02*
X007629Y013934D01*
X007968Y013775D02*
X003553Y013775D01*
X003553Y013617D02*
X008225Y013617D01*
X008384Y013458D02*
X003553Y013458D01*
X003553Y013300D02*
X008542Y013300D01*
X008701Y013141D02*
X003553Y013141D01*
X003553Y012983D02*
X004892Y012983D01*
X004787Y012824D02*
X003553Y012824D01*
X003553Y012666D02*
X004762Y012666D01*
X004762Y012680D02*
X005180Y012680D01*
X005180Y012680D01*
X005180Y013098D01*
X005180Y012680D01*
X005598Y012680D01*
X005180Y012680D01*
X005180Y012680D01*
X005180Y012680D01*
X004762Y012680D01*
X004692Y012507D02*
X003553Y012507D01*
X003553Y012349D02*
X004468Y012349D01*
X004362Y012190D02*
X003553Y012190D01*
X003553Y012032D02*
X004302Y012032D01*
X004302Y011873D02*
X003553Y011873D01*
X003553Y011715D02*
X004302Y011715D01*
X004302Y011556D02*
X003553Y011556D01*
X003553Y011398D02*
X004302Y011398D01*
X004334Y011239D02*
X003553Y011239D01*
X003553Y011081D02*
X004399Y011081D01*
X004557Y010922D02*
X003553Y010922D01*
X003553Y010764D02*
X007078Y010764D01*
X006920Y010922D02*
X005803Y010922D01*
X005180Y011680D02*
X007180Y011680D01*
X008180Y010680D01*
X008180Y010180D01*
X008680Y010680D01*
X010680Y010680D01*
X011034Y009813D02*
X011053Y009813D01*
X011188Y009654D02*
X008900Y009654D01*
X008900Y009496D02*
X011346Y009496D01*
X011505Y009337D02*
X008900Y009337D01*
X008900Y009179D02*
X011663Y009179D01*
X011822Y009020D02*
X008900Y009020D01*
X008905Y008862D02*
X011980Y008862D01*
X012139Y008703D02*
X009040Y008703D01*
X009105Y008545D02*
X012297Y008545D01*
X012456Y008386D02*
X011767Y008386D01*
X012042Y008228D02*
X012614Y008228D01*
X012773Y008069D02*
X012207Y008069D01*
X012348Y007911D02*
X012931Y007911D01*
X013090Y007752D02*
X012440Y007752D01*
X012521Y007594D02*
X013248Y007594D01*
X013407Y007435D02*
X012564Y007435D01*
X012606Y007277D02*
X013565Y007277D01*
X013724Y007118D02*
X012610Y007118D01*
X012610Y006960D02*
X013882Y006960D01*
X014041Y006801D02*
X013371Y006801D01*
X013110Y006801D02*
X012950Y006801D01*
X012950Y006643D02*
X013110Y006643D01*
X013110Y006484D02*
X012950Y006484D01*
X012950Y006326D02*
X013110Y006326D01*
X013110Y006167D02*
X012950Y006167D01*
X012950Y006009D02*
X013110Y006009D01*
X013110Y005533D02*
X012950Y005533D01*
X012950Y005375D02*
X013110Y005375D01*
X013110Y005216D02*
X012950Y005216D01*
X012950Y005058D02*
X013110Y005058D01*
X013799Y006484D02*
X014479Y006484D01*
X014199Y006643D02*
X013646Y006643D01*
X012690Y006801D02*
X012587Y006801D01*
X011180Y007074D02*
X010286Y006180D01*
X006180Y006180D01*
X003680Y006180D01*
X002740Y006167D02*
X000820Y006167D01*
X000820Y006009D02*
X002740Y006009D01*
X002799Y005850D02*
X000820Y005850D01*
X000820Y005692D02*
X002865Y005692D01*
X002998Y005533D02*
X000820Y005533D01*
X000820Y005375D02*
X003168Y005375D01*
X003200Y005216D02*
X000820Y005216D01*
X000820Y005058D02*
X003215Y005058D01*
X003291Y004899D02*
X000820Y004899D01*
X002354Y003948D02*
X006394Y003948D01*
X006552Y003790D02*
X002798Y003790D01*
X003025Y003631D02*
X006711Y003631D01*
X007007Y003473D02*
X003183Y003473D01*
X003660Y004899D02*
X003700Y004899D01*
X003700Y005058D02*
X003660Y005058D01*
X002740Y006326D02*
X000820Y006326D01*
X000820Y006484D02*
X002788Y006484D01*
X002854Y006643D02*
X000820Y006643D01*
X000820Y006801D02*
X002972Y006801D01*
X003130Y006960D02*
X000820Y006960D01*
X000820Y007118D02*
X003488Y007118D01*
X003872Y007118D02*
X005240Y007118D01*
X005240Y007277D02*
X000820Y007277D01*
X000820Y007435D02*
X005268Y007435D01*
X005334Y007594D02*
X000820Y007594D01*
X000820Y007752D02*
X005423Y007752D01*
X005581Y007911D02*
X000820Y007911D01*
X000820Y008069D02*
X005870Y008069D01*
X006490Y008069D02*
X007186Y008069D01*
X007186Y008228D02*
X000820Y008228D01*
X000820Y008386D02*
X007189Y008386D01*
X007255Y008545D02*
X000820Y008545D01*
X000820Y008703D02*
X007320Y008703D01*
X007455Y008862D02*
X000820Y008862D01*
X000820Y009020D02*
X007460Y009020D01*
X007460Y009179D02*
X000820Y009179D01*
X000820Y009337D02*
X007460Y009337D01*
X007460Y009496D02*
X000820Y009496D01*
X000820Y009654D02*
X007460Y009654D01*
X007460Y009813D02*
X003000Y009813D01*
X003018Y009815D02*
X003059Y009823D01*
X003099Y009834D01*
X003139Y009847D01*
X003178Y009863D01*
X003215Y009882D01*
X003251Y009903D01*
X003286Y009926D01*
X003320Y009952D01*
X003351Y009979D01*
X003381Y010009D01*
X003408Y010040D01*
X003434Y010074D01*
X003457Y010109D01*
X003478Y010145D01*
X003497Y010182D01*
X003513Y010221D01*
X003526Y010261D01*
X003537Y010301D01*
X003545Y010342D01*
X003551Y010384D01*
X003553Y010426D01*
X003553Y016824D01*
X003551Y016866D01*
X003545Y016907D01*
X003537Y016948D01*
X003526Y016989D01*
X003513Y017029D01*
X003497Y017067D01*
X003478Y017105D01*
X003457Y017141D01*
X003434Y017176D01*
X003408Y017209D01*
X003381Y017241D01*
X003351Y017270D01*
X003320Y017298D01*
X003286Y017324D01*
X003251Y017347D01*
X003215Y017368D01*
X003178Y017386D01*
X003139Y017402D01*
X003099Y017416D01*
X003059Y017427D01*
X003018Y017435D01*
X002976Y017440D01*
X002934Y017443D01*
X001726Y017443D01*
X001684Y017440D01*
X001642Y017435D01*
X001601Y017427D01*
X001561Y017416D01*
X001521Y017402D01*
X001482Y017386D01*
X001445Y017368D01*
X001409Y017347D01*
X001374Y017324D01*
X001340Y017298D01*
X001309Y017270D01*
X001279Y017241D01*
X001252Y017209D01*
X001226Y017176D01*
X001203Y017141D01*
X001182Y017105D01*
X001163Y017067D01*
X001147Y017029D01*
X001134Y016989D01*
X001123Y016948D01*
X001115Y016907D01*
X001109Y016866D01*
X001107Y016824D01*
X001107Y010426D01*
X001109Y010384D01*
X001115Y010342D01*
X001123Y010301D01*
X001134Y010261D01*
X001147Y010221D01*
X001163Y010182D01*
X001182Y010145D01*
X001203Y010109D01*
X001226Y010074D01*
X001252Y010040D01*
X001279Y010009D01*
X001309Y009979D01*
X001340Y009952D01*
X001374Y009926D01*
X001409Y009903D01*
X001445Y009882D01*
X001482Y009863D01*
X001521Y009847D01*
X001561Y009834D01*
X001601Y009823D01*
X001642Y009815D01*
X001684Y009809D01*
X001726Y009807D01*
X002934Y009807D01*
X002976Y009809D01*
X003018Y009815D01*
X003342Y009971D02*
X007460Y009971D01*
X007460Y010130D02*
X003469Y010130D01*
X003533Y010288D02*
X007460Y010288D01*
X007395Y010447D02*
X003553Y010447D01*
X003553Y010605D02*
X007237Y010605D01*
X008180Y010180D02*
X008180Y008180D01*
X009174Y008228D02*
X010318Y008228D01*
X010153Y008069D02*
X009174Y008069D01*
X009145Y007911D02*
X010012Y007911D01*
X009920Y007752D02*
X009079Y007752D01*
X009000Y007594D02*
X009839Y007594D01*
X009796Y007435D02*
X008841Y007435D01*
X008597Y007277D02*
X009754Y007277D01*
X009750Y007118D02*
X007120Y007118D01*
X007120Y007277D02*
X007763Y007277D01*
X007519Y007435D02*
X007092Y007435D01*
X007026Y007594D02*
X007360Y007594D01*
X007281Y007752D02*
X006937Y007752D01*
X006779Y007911D02*
X007215Y007911D01*
X007106Y006960D02*
X009750Y006960D01*
X009171Y008386D02*
X010593Y008386D01*
X010326Y009813D02*
X008900Y009813D01*
X008531Y011398D02*
X008481Y011398D01*
X008322Y011556D02*
X010286Y011556D01*
X010127Y011715D02*
X008164Y011715D01*
X008005Y011873D02*
X009732Y011873D01*
X009531Y012032D02*
X007847Y012032D01*
X007688Y012190D02*
X009390Y012190D01*
X009325Y012349D02*
X007448Y012349D01*
X008859Y012983D02*
X005468Y012983D01*
X005573Y012824D02*
X009018Y012824D01*
X009176Y012666D02*
X005598Y012666D01*
X005668Y012507D02*
X009263Y012507D01*
X010698Y013458D02*
X011016Y013458D01*
X010960Y013300D02*
X010858Y013300D01*
X011680Y012180D02*
X012680Y011180D01*
X012680Y010680D01*
X013680Y009680D01*
X016180Y009680D01*
X017453Y007435D02*
X017460Y007435D01*
X017460Y007277D02*
X017295Y007277D01*
X017136Y007118D02*
X017460Y007118D01*
X017460Y006960D02*
X017058Y006960D01*
X017052Y006801D02*
X017460Y006801D01*
X017460Y006643D02*
X016986Y006643D01*
X016865Y006484D02*
X017460Y006484D01*
X017460Y006326D02*
X016601Y006326D01*
X016598Y006167D02*
X017460Y006167D01*
X017460Y006009D02*
X016562Y006009D01*
X016437Y005850D02*
X017460Y005850D01*
X016180Y005850D02*
X016180Y005850D01*
X016180Y006009D02*
X016180Y006009D01*
X016180Y006167D02*
X016180Y006167D01*
X010664Y005533D02*
X010606Y005533D01*
X010471Y005375D02*
X007117Y005375D01*
X007162Y005216D02*
X010351Y005216D01*
X010273Y005058D02*
X008660Y005058D01*
X008867Y004899D02*
X010228Y004899D01*
X007700Y005058D02*
X007321Y005058D01*
X005254Y006960D02*
X004230Y006960D01*
X001660Y009813D02*
X000820Y009813D01*
X000820Y009971D02*
X001318Y009971D01*
X001191Y010130D02*
X000820Y010130D01*
X000820Y010288D02*
X001127Y010288D01*
X001107Y010447D02*
X000820Y010447D01*
X000820Y010605D02*
X001107Y010605D01*
X001107Y010764D02*
X000820Y010764D01*
X000820Y010922D02*
X001107Y010922D01*
X001107Y011081D02*
X000820Y011081D01*
X000820Y011239D02*
X001107Y011239D01*
X001107Y011398D02*
X000820Y011398D01*
X000820Y011556D02*
X001107Y011556D01*
X001107Y011715D02*
X000820Y011715D01*
X000820Y011873D02*
X001107Y011873D01*
X001107Y012032D02*
X000820Y012032D01*
X000820Y012190D02*
X001107Y012190D01*
X001107Y012349D02*
X000820Y012349D01*
X000820Y012507D02*
X001107Y012507D01*
X001107Y012666D02*
X000820Y012666D01*
X000820Y012824D02*
X001107Y012824D01*
X001107Y012983D02*
X000820Y012983D01*
X000820Y013141D02*
X001107Y013141D01*
X001107Y013300D02*
X000820Y013300D01*
X000820Y013458D02*
X001107Y013458D01*
X001107Y013617D02*
X000820Y013617D01*
X000820Y013775D02*
X001107Y013775D01*
X001107Y013934D02*
X000820Y013934D01*
X000820Y014092D02*
X001107Y014092D01*
X001107Y014251D02*
X000820Y014251D01*
X000820Y014409D02*
X001107Y014409D01*
X001107Y014568D02*
X000820Y014568D01*
X000820Y014726D02*
X001107Y014726D01*
X001107Y014885D02*
X000820Y014885D01*
X000820Y015043D02*
X001107Y015043D01*
X001107Y015202D02*
X000820Y015202D01*
X000820Y015360D02*
X001107Y015360D01*
X001107Y015519D02*
X000820Y015519D01*
X000820Y015677D02*
X001107Y015677D01*
X001107Y015836D02*
X000820Y015836D01*
X000820Y015994D02*
X001107Y015994D01*
X001107Y016153D02*
X000820Y016153D01*
X000820Y016311D02*
X001107Y016311D01*
X001107Y016470D02*
X000820Y016470D01*
X000820Y016628D02*
X001107Y016628D01*
X001107Y016787D02*
X000820Y016787D01*
X000820Y016945D02*
X001122Y016945D01*
X001181Y017104D02*
X000820Y017104D01*
X000820Y017262D02*
X001301Y017262D01*
X001579Y017421D02*
X000820Y017421D01*
X000820Y017579D02*
X004280Y017579D01*
X004280Y017421D02*
X003081Y017421D01*
X003359Y017262D02*
X004325Y017262D01*
X004484Y017104D02*
X003479Y017104D01*
X003538Y016945D02*
X004642Y016945D01*
X004740Y016787D02*
X003553Y016787D01*
X003553Y016628D02*
X004740Y016628D01*
X004740Y016680D02*
X004740Y016498D01*
X004998Y016240D01*
X005180Y016240D01*
X005362Y016240D01*
X005620Y016498D01*
X005620Y016680D01*
X005180Y016680D01*
X005180Y016680D01*
X005180Y016240D01*
X005180Y016680D01*
X005180Y016680D01*
X005180Y016680D01*
X004740Y016680D01*
X004768Y016470D02*
X003553Y016470D01*
X003553Y016311D02*
X004927Y016311D01*
X005180Y016311D02*
X005180Y016311D01*
X005180Y016470D02*
X005180Y016470D01*
X005180Y016628D02*
X005180Y016628D01*
X005620Y016628D02*
X009214Y016628D01*
X009064Y016787D02*
X008420Y016787D01*
X008742Y016945D02*
X008998Y016945D01*
X008960Y017104D02*
X008901Y017104D01*
X008180Y017680D02*
X005180Y017680D01*
X004440Y018213D02*
X000820Y018213D01*
X000820Y018055D02*
X004282Y018055D01*
X004280Y017896D02*
X000820Y017896D01*
X000820Y017738D02*
X004280Y017738D01*
X004599Y018372D02*
X000820Y018372D01*
X000820Y018530D02*
X004757Y018530D01*
X005603Y018530D02*
X007835Y018530D01*
X008525Y018530D02*
X008960Y018530D01*
X008960Y018372D02*
X008786Y018372D01*
X008944Y018213D02*
X008960Y018213D01*
X008960Y018689D02*
X000820Y018689D01*
X000820Y018847D02*
X008960Y018847D01*
X008960Y019006D02*
X002686Y019006D01*
X002670Y018997D02*
X002960Y019164D01*
X008960Y019164D01*
X008960Y019323D02*
X003118Y019323D01*
X003196Y019400D02*
X002960Y019164D01*
X003196Y019400D02*
X003363Y019690D01*
X003450Y020013D01*
X003450Y020347D01*
X003363Y020670D01*
X003196Y020960D01*
X002960Y021196D01*
X002670Y021363D01*
X002347Y021450D01*
X002013Y021450D01*
X001690Y021363D01*
X001400Y021196D01*
X001164Y020960D01*
X000997Y020670D01*
X000910Y020347D01*
X000910Y020013D01*
X000997Y019690D01*
X001164Y019400D01*
X001400Y019164D01*
X000820Y019164D01*
X000820Y019006D02*
X001674Y019006D01*
X001690Y018997D02*
X002013Y018910D01*
X002347Y018910D01*
X002670Y018997D01*
X003243Y019481D02*
X009025Y019481D01*
X009121Y019640D02*
X003334Y019640D01*
X003392Y019798D02*
X009280Y019798D01*
X009438Y019957D02*
X003435Y019957D01*
X003450Y020115D02*
X009597Y020115D01*
X009755Y020274D02*
X003450Y020274D01*
X003427Y020432D02*
X033433Y020432D01*
X033410Y020347D02*
X033410Y020013D01*
X033497Y019690D01*
X033664Y019400D01*
X033900Y019164D01*
X033714Y019164D01*
X033769Y019109D02*
X033790Y019121D01*
X033916Y019155D01*
X033900Y019164D01*
X033742Y019323D02*
X033556Y019323D01*
X033617Y019481D02*
X033397Y019481D01*
X033526Y019640D02*
X033239Y019640D01*
X033080Y019798D02*
X033468Y019798D01*
X033425Y019957D02*
X032922Y019957D01*
X032763Y020115D02*
X033410Y020115D01*
X033410Y020274D02*
X032605Y020274D01*
X033410Y020347D02*
X033497Y020670D01*
X033664Y020960D01*
X033900Y021196D01*
X034190Y021363D01*
X034513Y021450D01*
X034847Y021450D01*
X035170Y021363D01*
X035460Y021196D01*
X035696Y020960D01*
X035863Y020670D01*
X035950Y020347D01*
X035950Y020013D01*
X035863Y019690D01*
X035696Y019400D01*
X035460Y019164D01*
X035618Y019323D02*
X036032Y019323D01*
X036032Y019481D02*
X035743Y019481D01*
X035834Y019640D02*
X036032Y019640D01*
X036032Y019798D02*
X035892Y019798D01*
X035935Y019957D02*
X036032Y019957D01*
X036032Y020115D02*
X035950Y020115D01*
X035950Y020274D02*
X036032Y020274D01*
X036032Y020432D02*
X035927Y020432D01*
X035885Y020591D02*
X036032Y020591D01*
X036032Y020749D02*
X035818Y020749D01*
X035726Y020908D02*
X036032Y020908D01*
X036032Y021066D02*
X035590Y021066D01*
X035411Y021225D02*
X036032Y021225D01*
X036032Y021383D02*
X035097Y021383D01*
X036032Y021542D02*
X000820Y021542D01*
X000820Y021700D02*
X036032Y021700D01*
X036032Y021859D02*
X000820Y021859D01*
X000820Y021383D02*
X001763Y021383D01*
X001449Y021225D02*
X000820Y021225D01*
X000820Y021066D02*
X001270Y021066D01*
X001134Y020908D02*
X000820Y020908D01*
X000820Y020749D02*
X001042Y020749D01*
X000975Y020591D02*
X000820Y020591D01*
X000820Y020432D02*
X000933Y020432D01*
X000910Y020274D02*
X000820Y020274D01*
X000820Y020115D02*
X000910Y020115D01*
X000925Y019957D02*
X000820Y019957D01*
X000820Y019798D02*
X000968Y019798D01*
X001026Y019640D02*
X000820Y019640D01*
X000820Y019481D02*
X001117Y019481D01*
X001242Y019323D02*
X000820Y019323D01*
X001400Y019164D02*
X001690Y018997D01*
X003385Y020591D02*
X033475Y020591D01*
X033542Y020749D02*
X003318Y020749D01*
X003226Y020908D02*
X033634Y020908D01*
X033770Y021066D02*
X003090Y021066D01*
X002911Y021225D02*
X033949Y021225D01*
X034263Y021383D02*
X002597Y021383D01*
X005718Y016945D02*
X007618Y016945D01*
X007940Y016787D02*
X005620Y016787D01*
X005592Y016470D02*
X009372Y016470D01*
X009531Y016311D02*
X005433Y016311D01*
X003553Y016153D02*
X009689Y016153D01*
X009848Y015994D02*
X003553Y015994D01*
X003553Y015836D02*
X010006Y015836D01*
X005180Y012983D02*
X005180Y012983D01*
X005180Y012824D02*
X005180Y012824D01*
X015138Y016740D02*
X015569Y016740D01*
X016029Y017200D01*
X016160Y017200D01*
X016160Y017660D01*
X016200Y017660D01*
X016200Y017200D01*
X016331Y017200D01*
X016791Y016740D01*
X017569Y016740D01*
X017680Y016851D01*
X017791Y016740D01*
X018460Y016740D01*
X018460Y014298D01*
X018359Y014340D01*
X018001Y014340D01*
X017674Y014204D01*
X015290Y016588D01*
X015138Y016740D01*
X015250Y016628D02*
X018460Y016628D01*
X018460Y016470D02*
X015409Y016470D01*
X015567Y016311D02*
X018460Y016311D01*
X018460Y016153D02*
X015726Y016153D01*
X015884Y015994D02*
X018460Y015994D01*
X018460Y015836D02*
X016043Y015836D01*
X016201Y015677D02*
X018460Y015677D01*
X018460Y015519D02*
X016360Y015519D01*
X016518Y015360D02*
X018460Y015360D01*
X018460Y015202D02*
X016677Y015202D01*
X016835Y015043D02*
X018460Y015043D01*
X018460Y014885D02*
X016994Y014885D01*
X017152Y014726D02*
X018460Y014726D01*
X018460Y014568D02*
X017311Y014568D01*
X017469Y014409D02*
X018460Y014409D01*
X017785Y014251D02*
X017628Y014251D01*
X017616Y016787D02*
X017744Y016787D01*
X016744Y016787D02*
X015616Y016787D01*
X015774Y016945D02*
X016586Y016945D01*
X016427Y017104D02*
X015933Y017104D01*
X016160Y017262D02*
X016200Y017262D01*
X016200Y017421D02*
X016160Y017421D01*
X016160Y017579D02*
X016200Y017579D01*
D25*
X017180Y015680D03*
X024680Y015680D03*
X035180Y011680D03*
X015680Y003680D03*
X002680Y009180D03*
X007180Y019680D03*
M02*
