G75*
%MOIN*%
%OFA0B0*%
%FSLAX24Y24*%
%IPPOS*%
%LPD*%
%AMOC8*
5,1,8,0,0,1.08239X$1,22.5*
%
%ADD10C,0.1340*%
%ADD11C,0.0680*%
%ADD12C,0.0634*%
%ADD13C,0.0556*%
%ADD14R,0.0556X0.0556*%
%ADD15OC8,0.0600*%
%ADD16R,0.0674X0.0674*%
%ADD17C,0.0674*%
%ADD18C,0.1660*%
%ADD19C,0.0789*%
%ADD20C,0.0600*%
%ADD21OC8,0.0680*%
%ADD22C,0.0820*%
%ADD23R,0.0476X0.0476*%
D10*
X002180Y002680D03*
X002180Y020180D03*
X034680Y020180D03*
X034680Y002680D03*
D11*
X006180Y005180D03*
X006180Y006180D03*
X006180Y007180D03*
X003680Y006180D03*
X003680Y005180D03*
D12*
X010180Y012680D03*
X010180Y014180D03*
X008180Y014680D03*
X008180Y017680D03*
X013180Y014180D03*
X013180Y012680D03*
X016180Y012680D03*
X016180Y009680D03*
D13*
X016180Y006180D03*
X005180Y012680D03*
D14*
X005180Y011680D03*
X016180Y007180D03*
D15*
X005180Y016680D03*
X005180Y017680D03*
D16*
X012680Y010680D03*
D17*
X011680Y010680D03*
X010680Y010680D03*
D18*
X011180Y007074D03*
X013030Y005893D03*
X011180Y004711D03*
D19*
X008180Y004180D03*
X008180Y008180D03*
D20*
X018180Y009920D02*
X018180Y010440D01*
X019180Y010440D02*
X019180Y009920D01*
X020180Y009920D02*
X020180Y010440D01*
X021180Y010440D02*
X021180Y009920D01*
X022180Y009920D02*
X022180Y010440D01*
X023180Y010440D02*
X023180Y009920D01*
X024180Y009920D02*
X024180Y010440D01*
X025180Y010440D02*
X025180Y009920D01*
X026180Y009920D02*
X026180Y010440D01*
X027180Y010440D02*
X027180Y009920D01*
X028180Y009920D02*
X028180Y010440D01*
X029180Y010440D02*
X029180Y009920D01*
X030180Y009920D02*
X030180Y010440D01*
X031180Y010440D02*
X031180Y009920D01*
X031180Y012920D02*
X031180Y013440D01*
X030180Y013440D02*
X030180Y012920D01*
X029180Y012920D02*
X029180Y013440D01*
X028180Y013440D02*
X028180Y012920D01*
X027180Y012920D02*
X027180Y013440D01*
X026180Y013440D02*
X026180Y012920D01*
X025180Y012920D02*
X025180Y013440D01*
X024180Y013440D02*
X024180Y012920D01*
X023180Y012920D02*
X023180Y013440D01*
X022180Y013440D02*
X022180Y012920D01*
X021180Y012920D02*
X021180Y013440D01*
X020180Y013440D02*
X020180Y012920D01*
X019180Y012920D02*
X019180Y013440D01*
X018180Y013440D02*
X018180Y012920D01*
D21*
X018180Y017680D03*
X017180Y017680D03*
X016180Y017680D03*
X015180Y017680D03*
X014180Y017680D03*
X013180Y017680D03*
X012180Y017680D03*
X011180Y017680D03*
X011180Y018680D03*
X012180Y018680D03*
X013180Y018680D03*
X014180Y018680D03*
X015180Y018680D03*
X016180Y018680D03*
X017180Y018680D03*
X018180Y018680D03*
X019180Y018680D03*
X020180Y018680D03*
X021180Y018680D03*
X022180Y018680D03*
X023180Y018680D03*
X024180Y018680D03*
X025180Y018680D03*
X026180Y018680D03*
X027180Y018680D03*
X028180Y018680D03*
X029180Y018680D03*
X030180Y018680D03*
X030180Y017680D03*
X029180Y017680D03*
X028180Y017680D03*
X027180Y017680D03*
X026180Y017680D03*
X025180Y017680D03*
X024180Y017680D03*
X023180Y017680D03*
X022180Y017680D03*
X021180Y017680D03*
X020180Y017680D03*
X019180Y017680D03*
D22*
X026680Y015680D03*
X031680Y015680D03*
X032180Y017180D03*
X034180Y016180D03*
X034180Y018180D03*
X033180Y004180D03*
X032180Y004180D03*
X031180Y004180D03*
X030180Y004180D03*
X029180Y004180D03*
X028180Y004180D03*
X027180Y004180D03*
X026180Y004180D03*
X025180Y004180D03*
X024180Y004180D03*
X023180Y004180D03*
X022180Y004180D03*
X021180Y004180D03*
X020180Y004180D03*
X019180Y004180D03*
X018180Y004180D03*
D23*
X015680Y003680D03*
X002680Y009180D03*
X017180Y015680D03*
X024680Y015680D03*
X035180Y011680D03*
X007180Y019680D03*
M02*
