G75*
%MOIN*%
%OFA0B0*%
%FSLAX25Y25*%
%IPPOS*%
%LPD*%
%AMOC8*
5,1,8,0,0,1.08239X$1,22.5*
%
%ADD10C,0.00600*%
D10*
X0022235Y0093680D02*
X0020100Y0095815D01*
X0022235Y0097950D01*
X0026505Y0097950D01*
X0024370Y0101193D02*
X0024370Y0103328D01*
X0023303Y0104395D01*
X0020100Y0104395D01*
X0020100Y0101193D01*
X0021168Y0100125D01*
X0022235Y0101193D01*
X0022235Y0104395D01*
X0020100Y0106571D02*
X0020100Y0108706D01*
X0020100Y0107638D02*
X0026505Y0107638D01*
X0026505Y0106571D01*
X0026505Y0110868D02*
X0026505Y0111935D01*
X0020100Y0111935D01*
X0020100Y0110868D02*
X0020100Y0113003D01*
X0020100Y0115165D02*
X0026505Y0115165D01*
X0024370Y0116232D02*
X0024370Y0118367D01*
X0023303Y0119435D01*
X0020100Y0119435D01*
X0021168Y0121610D02*
X0022235Y0122678D01*
X0022235Y0125880D01*
X0023303Y0125880D02*
X0020100Y0125880D01*
X0020100Y0122678D01*
X0021168Y0121610D01*
X0024370Y0122678D02*
X0024370Y0124813D01*
X0023303Y0125880D01*
X0026505Y0128056D02*
X0026505Y0129123D01*
X0020100Y0129123D01*
X0020100Y0128056D02*
X0020100Y0130191D01*
X0020100Y0132353D02*
X0020100Y0134488D01*
X0020100Y0133420D02*
X0026505Y0133420D01*
X0026505Y0132353D01*
X0024370Y0137717D02*
X0024370Y0139852D01*
X0023303Y0140920D01*
X0020100Y0140920D01*
X0020100Y0137717D01*
X0021168Y0136650D01*
X0022235Y0137717D01*
X0022235Y0140920D01*
X0024370Y0149541D02*
X0020100Y0151676D01*
X0024370Y0153811D01*
X0025438Y0155986D02*
X0021168Y0155986D01*
X0025438Y0160256D01*
X0021168Y0160256D01*
X0020100Y0159189D01*
X0020100Y0157054D01*
X0021168Y0155986D01*
X0025438Y0155986D02*
X0026505Y0157054D01*
X0026505Y0159189D01*
X0025438Y0160256D01*
X0021168Y0162432D02*
X0021168Y0163499D01*
X0020100Y0163499D01*
X0020100Y0162432D01*
X0021168Y0162432D01*
X0021168Y0165654D02*
X0020100Y0166722D01*
X0020100Y0168857D01*
X0021168Y0169925D01*
X0023303Y0169925D01*
X0024370Y0168857D01*
X0024370Y0167790D01*
X0023303Y0165654D01*
X0026505Y0165654D01*
X0026505Y0169925D01*
X0024370Y0116232D02*
X0023303Y0115165D01*
X0022235Y0093680D02*
X0026505Y0093680D01*
M02*
