G75*
%MOIN*%
%OFA0B0*%
%FSLAX25Y25*%
%IPPOS*%
%LPD*%
%AMOC8*
5,1,8,0,0,1.08239X$1,22.5*
%
%ADD10C,0.13398*%
%ADD11C,0.06800*%
%ADD12C,0.06343*%
%ADD13C,0.05556*%
%ADD14R,0.05556X0.05556*%
%ADD15OC8,0.06000*%
%ADD16R,0.06737X0.06737*%
%ADD17C,0.06737*%
%ADD18C,0.16600*%
%ADD19C,0.07887*%
%ADD20C,0.06000*%
%ADD21C,0.08200*%
%ADD22OC8,0.06800*%
%ADD23R,0.08200X0.08200*%
%ADD24R,0.05162X0.05162*%
%ADD25C,0.05950*%
D10*
X0021800Y0026800D03*
X0021800Y0236800D03*
X0346800Y0236800D03*
X0346800Y0026800D03*
D11*
X0061800Y0051800D03*
X0061800Y0061800D03*
X0061800Y0071800D03*
X0036800Y0061800D03*
X0036800Y0051800D03*
D12*
X0101800Y0126800D03*
X0101800Y0141800D03*
X0081800Y0146800D03*
X0081800Y0176800D03*
X0131800Y0141800D03*
X0131800Y0126800D03*
X0161800Y0126800D03*
X0161800Y0096800D03*
D13*
X0151800Y0061800D03*
X0051800Y0126800D03*
D14*
X0051800Y0116800D03*
X0151800Y0071800D03*
D15*
X0051800Y0166800D03*
X0051800Y0176800D03*
D16*
X0126800Y0106800D03*
D17*
X0116800Y0106800D03*
X0106800Y0106800D03*
D18*
X0111800Y0070737D03*
X0130304Y0058926D03*
X0111800Y0047115D03*
D19*
X0081800Y0041800D03*
X0081800Y0081800D03*
D20*
X0181800Y0099200D02*
X0181800Y0104400D01*
X0191800Y0104400D02*
X0191800Y0099200D01*
X0201800Y0099200D02*
X0201800Y0104400D01*
X0211800Y0104400D02*
X0211800Y0099200D01*
X0221800Y0099200D02*
X0221800Y0104400D01*
X0231800Y0104400D02*
X0231800Y0099200D01*
X0241800Y0099200D02*
X0241800Y0104400D01*
X0251800Y0104400D02*
X0251800Y0099200D01*
X0261800Y0099200D02*
X0261800Y0104400D01*
X0271800Y0104400D02*
X0271800Y0099200D01*
X0281800Y0099200D02*
X0281800Y0104400D01*
X0291800Y0104400D02*
X0291800Y0099200D01*
X0301800Y0099200D02*
X0301800Y0104400D01*
X0311800Y0104400D02*
X0311800Y0099200D01*
X0311800Y0129200D02*
X0311800Y0134400D01*
X0301800Y0134400D02*
X0301800Y0129200D01*
X0291800Y0129200D02*
X0291800Y0134400D01*
X0281800Y0134400D02*
X0281800Y0129200D01*
X0271800Y0129200D02*
X0271800Y0134400D01*
X0261800Y0134400D02*
X0261800Y0129200D01*
X0251800Y0129200D02*
X0251800Y0134400D01*
X0241800Y0134400D02*
X0241800Y0129200D01*
X0231800Y0129200D02*
X0231800Y0134400D01*
X0221800Y0134400D02*
X0221800Y0129200D01*
X0211800Y0129200D02*
X0211800Y0134400D01*
X0201800Y0134400D02*
X0201800Y0129200D01*
X0191800Y0129200D02*
X0191800Y0134400D01*
X0181800Y0134400D02*
X0181800Y0129200D01*
X0201800Y0204200D02*
X0201800Y0209400D01*
X0211800Y0209400D02*
X0211800Y0204200D01*
X0221800Y0204200D02*
X0221800Y0209400D01*
X0231800Y0209400D02*
X0231800Y0204200D01*
X0241800Y0204200D02*
X0241800Y0209400D01*
X0251800Y0209400D02*
X0251800Y0204200D01*
X0261800Y0204200D02*
X0261800Y0209400D01*
X0271800Y0209400D02*
X0271800Y0204200D01*
X0271800Y0234200D02*
X0271800Y0239400D01*
X0261800Y0239400D02*
X0261800Y0234200D01*
X0251800Y0234200D02*
X0251800Y0239400D01*
X0241800Y0239400D02*
X0241800Y0234200D01*
X0231800Y0234200D02*
X0231800Y0239400D01*
X0221800Y0239400D02*
X0221800Y0234200D01*
X0211800Y0234200D02*
X0211800Y0239400D01*
X0201800Y0239400D02*
X0201800Y0234200D01*
D21*
X0266800Y0156800D03*
X0316800Y0156800D03*
X0321800Y0171800D03*
X0341800Y0161800D03*
X0341800Y0181800D03*
X0321800Y0041800D03*
X0311800Y0041800D03*
X0301800Y0041800D03*
X0291800Y0041800D03*
X0281800Y0041800D03*
X0271800Y0041800D03*
X0261800Y0041800D03*
X0251800Y0041800D03*
X0241800Y0041800D03*
X0231800Y0041800D03*
X0221800Y0041800D03*
X0211800Y0041800D03*
X0201800Y0041800D03*
X0191800Y0041800D03*
X0181800Y0041800D03*
X0171800Y0041800D03*
X0086800Y0216800D03*
X0086800Y0226800D03*
X0086800Y0236800D03*
D22*
X0111800Y0186800D03*
X0111800Y0176800D03*
X0121800Y0176800D03*
X0131800Y0176800D03*
X0131800Y0186800D03*
X0121800Y0186800D03*
X0141800Y0186800D03*
X0141800Y0176800D03*
X0151800Y0176800D03*
X0161800Y0176800D03*
X0161800Y0186800D03*
X0151800Y0186800D03*
X0171800Y0186800D03*
X0171800Y0176800D03*
X0181800Y0176800D03*
X0181800Y0186800D03*
X0191800Y0186800D03*
X0201800Y0186800D03*
X0201800Y0176800D03*
X0191800Y0176800D03*
X0211800Y0176800D03*
X0211800Y0186800D03*
X0221800Y0186800D03*
X0231800Y0186800D03*
X0231800Y0176800D03*
X0221800Y0176800D03*
X0241800Y0176800D03*
X0241800Y0186800D03*
X0251800Y0186800D03*
X0251800Y0176800D03*
X0261800Y0176800D03*
X0271800Y0176800D03*
X0271800Y0186800D03*
X0261800Y0186800D03*
X0281800Y0186800D03*
X0281800Y0176800D03*
X0291800Y0176800D03*
X0301800Y0176800D03*
X0301800Y0186800D03*
X0291800Y0186800D03*
D23*
X0086800Y0206800D03*
D24*
X0051800Y0211800D03*
X0171800Y0156800D03*
X0246800Y0156800D03*
X0351800Y0116800D03*
X0146800Y0031800D03*
X0026800Y0091800D03*
D25*
X0171800Y0071800D03*
X0171800Y0126800D03*
M02*
