%
M48
M72
T01C0.02362
T02C0.02756
T03C0.03150
T04C0.03200
T05C0.03543
T06C0.03937
T07C0.04000
T08C0.04724
T09C0.11800
T10C0.12598
%
T01
X26800Y91800
X146800Y31800
X171800Y156800
X246800Y156800
X351800Y116800
X51800Y211800
T02
X51800Y126800
X51800Y116800
X151800Y71800
X151800Y61800
T03
X171800Y71800
X171800Y126800
T04
X181800Y131800
X191800Y131800
X201800Y131800
X211800Y131800
X221800Y131800
X231800Y131800
X241800Y131800
X251800Y131800
X261800Y131800
X271800Y131800
X281800Y131800
X291800Y131800
X301800Y131800
X311800Y131800
X311800Y101800
X301800Y101800
X291800Y101800
X281800Y101800
X271800Y101800
X261800Y101800
X251800Y101800
X241800Y101800
X231800Y101800
X221800Y101800
X211800Y101800
X201800Y101800
X191800Y101800
X181800Y101800
X51800Y166800
X51800Y176800
X201800Y206800
X211800Y206800
X221800Y206800
X231800Y206800
X241800Y206800
X251800Y206800
X261800Y206800
X271800Y206800
X271800Y236800
X261800Y236800
X251800Y236800
X241800Y236800
X231800Y236800
X221800Y236800
X211800Y236800
X201800Y236800
T05
X266800Y156800
X316800Y156800
X161800Y126800
X131800Y126800
X131800Y141800
X101800Y141800
X101800Y126800
X81800Y146800
X81800Y176800
X161800Y96800
T06
X126800Y106800
X116800Y106800
X106800Y106800
X321800Y171800
X341800Y161800
X341800Y181800
T07
X301800Y176800
X291800Y176800
X291800Y186800
X301800Y186800
X281800Y186800
X281800Y176800
X271800Y176800
X261800Y176800
X261800Y186800
X271800Y186800
X251800Y186800
X251800Y176800
X241800Y176800
X241800Y186800
X231800Y186800
X221800Y186800
X221800Y176800
X231800Y176800
X211800Y176800
X211800Y186800
X201800Y186800
X191800Y186800
X191800Y176800
X201800Y176800
X181800Y176800
X181800Y186800
X171800Y186800
X171800Y176800
X161800Y176800
X151800Y176800
X151800Y186800
X161800Y186800
X141800Y186800
X141800Y176800
X131800Y176800
X121800Y176800
X121800Y186800
X131800Y186800
X111800Y186800
X111800Y176800
X86800Y206800
X86800Y216800
X86800Y226800
X86800Y236800
X61800Y71800
X61800Y61800
X61800Y51800
X36800Y51800
X36800Y61800
X171800Y41800
X181800Y41800
X191800Y41800
X201800Y41800
X211800Y41800
X221800Y41800
X231800Y41800
X241800Y41800
X251800Y41800
X261800Y41800
X271800Y41800
X281800Y41800
X291800Y41800
X301800Y41800
X311800Y41800
X321800Y41800
T08
X81800Y41800
X81800Y81800
T09
X111800Y70737
X130304Y58926
X111800Y47115
T10
X21800Y26800
X21800Y236800
X346800Y236800
X346800Y26800
M30
