G75*
%MOIN*%
%OFA0B0*%
%FSLAX25Y25*%
%IPPOS*%
%LPD*%
%AMOC8*
5,1,8,0,0,1.08239X$1,22.5*
%
%ADD10C,0.00600*%
%ADD11C,0.00400*%
%ADD12C,0.00500*%
%ADD13C,0.00800*%
%ADD14C,0.00300*%
%ADD15C,0.00100*%
%ADD16C,0.01000*%
D10*
X0232100Y0019235D02*
X0234235Y0017100D01*
X0236370Y0019235D01*
X0236370Y0023505D01*
X0239613Y0021370D02*
X0241748Y0021370D01*
X0242816Y0020303D01*
X0242816Y0017100D01*
X0239613Y0017100D01*
X0238545Y0018168D01*
X0239613Y0019235D01*
X0242816Y0019235D01*
X0244991Y0017100D02*
X0247126Y0017100D01*
X0246059Y0017100D02*
X0246059Y0023505D01*
X0244991Y0023505D01*
X0249288Y0023505D02*
X0250356Y0023505D01*
X0250356Y0017100D01*
X0251423Y0017100D02*
X0249288Y0017100D01*
X0253585Y0017100D02*
X0253585Y0023505D01*
X0254653Y0021370D02*
X0253585Y0020303D01*
X0254653Y0021370D02*
X0256788Y0021370D01*
X0257855Y0020303D01*
X0257855Y0017100D01*
X0260030Y0018168D02*
X0261098Y0019235D01*
X0264301Y0019235D01*
X0264301Y0020303D02*
X0264301Y0017100D01*
X0261098Y0017100D01*
X0260030Y0018168D01*
X0263233Y0021370D02*
X0264301Y0020303D01*
X0263233Y0021370D02*
X0261098Y0021370D01*
X0266476Y0023505D02*
X0267544Y0023505D01*
X0267544Y0017100D01*
X0268611Y0017100D02*
X0266476Y0017100D01*
X0270773Y0017100D02*
X0272908Y0017100D01*
X0271841Y0017100D02*
X0271841Y0023505D01*
X0270773Y0023505D01*
X0276138Y0021370D02*
X0278273Y0021370D01*
X0279340Y0020303D01*
X0279340Y0017100D01*
X0276138Y0017100D01*
X0275070Y0018168D01*
X0276138Y0019235D01*
X0279340Y0019235D01*
X0287961Y0021370D02*
X0290096Y0017100D01*
X0292231Y0021370D01*
X0294406Y0022438D02*
X0295474Y0023505D01*
X0297609Y0023505D01*
X0298677Y0022438D01*
X0294406Y0018168D01*
X0295474Y0017100D01*
X0297609Y0017100D01*
X0298677Y0018168D01*
X0298677Y0022438D01*
X0304075Y0022438D02*
X0305142Y0023505D01*
X0307277Y0023505D01*
X0308345Y0022438D01*
X0308345Y0021370D01*
X0307277Y0020303D01*
X0308345Y0019235D01*
X0308345Y0018168D01*
X0307277Y0017100D01*
X0305142Y0017100D01*
X0304075Y0018168D01*
X0301920Y0018168D02*
X0301920Y0017100D01*
X0300852Y0017100D01*
X0300852Y0018168D01*
X0301920Y0018168D01*
X0306210Y0020303D02*
X0307277Y0020303D01*
X0294406Y0018168D02*
X0294406Y0022438D01*
X0232100Y0023505D02*
X0232100Y0019235D01*
X0234300Y0171800D02*
X0229300Y0171800D01*
X0226800Y0174300D01*
X0226800Y0189300D01*
X0229300Y0191800D01*
X0234300Y0191800D01*
X0236800Y0189300D01*
X0236800Y0174300D01*
X0234300Y0171800D01*
X0236800Y0174300D02*
X0239300Y0171800D01*
X0244300Y0171800D01*
X0246800Y0174300D01*
X0246800Y0189300D01*
X0244300Y0191800D01*
X0239300Y0191800D01*
X0236800Y0189300D01*
X0246800Y0189300D02*
X0249300Y0191800D01*
X0254300Y0191800D01*
X0256800Y0189300D01*
X0256800Y0174300D01*
X0254300Y0171800D01*
X0249300Y0171800D01*
X0246800Y0174300D01*
X0256800Y0174300D02*
X0259300Y0171800D01*
X0264300Y0171800D01*
X0266800Y0174300D01*
X0266800Y0189300D01*
X0264300Y0191800D01*
X0259300Y0191800D01*
X0256800Y0189300D01*
X0266800Y0189300D02*
X0269300Y0191800D01*
X0274300Y0191800D01*
X0276800Y0189300D01*
X0276800Y0174300D01*
X0274300Y0171800D01*
X0269300Y0171800D01*
X0266800Y0174300D01*
X0276800Y0174300D02*
X0279300Y0171800D01*
X0284300Y0171800D01*
X0286800Y0174300D01*
X0286800Y0189300D01*
X0284300Y0191800D01*
X0279300Y0191800D01*
X0276800Y0189300D01*
X0286800Y0189300D02*
X0289300Y0191800D01*
X0294300Y0191800D01*
X0296800Y0189300D01*
X0296800Y0174300D01*
X0294300Y0171800D01*
X0289300Y0171800D01*
X0286800Y0174300D01*
X0296800Y0174300D02*
X0299300Y0171800D01*
X0304300Y0171800D01*
X0306800Y0174300D01*
X0306800Y0189300D01*
X0304300Y0191800D01*
X0299300Y0191800D01*
X0296800Y0189300D01*
X0276800Y0210300D02*
X0276800Y0233300D01*
X0196800Y0233300D01*
X0196800Y0225800D01*
X0196926Y0225798D01*
X0197051Y0225792D01*
X0197176Y0225782D01*
X0197301Y0225768D01*
X0197426Y0225751D01*
X0197550Y0225729D01*
X0197673Y0225704D01*
X0197795Y0225674D01*
X0197916Y0225641D01*
X0198036Y0225604D01*
X0198155Y0225564D01*
X0198272Y0225519D01*
X0198389Y0225471D01*
X0198503Y0225419D01*
X0198616Y0225364D01*
X0198727Y0225305D01*
X0198836Y0225243D01*
X0198943Y0225177D01*
X0199048Y0225108D01*
X0199151Y0225036D01*
X0199252Y0224961D01*
X0199350Y0224882D01*
X0199445Y0224800D01*
X0199538Y0224716D01*
X0199628Y0224628D01*
X0199716Y0224538D01*
X0199800Y0224445D01*
X0199882Y0224350D01*
X0199961Y0224252D01*
X0200036Y0224151D01*
X0200108Y0224048D01*
X0200177Y0223943D01*
X0200243Y0223836D01*
X0200305Y0223727D01*
X0200364Y0223616D01*
X0200419Y0223503D01*
X0200471Y0223389D01*
X0200519Y0223272D01*
X0200564Y0223155D01*
X0200604Y0223036D01*
X0200641Y0222916D01*
X0200674Y0222795D01*
X0200704Y0222673D01*
X0200729Y0222550D01*
X0200751Y0222426D01*
X0200768Y0222301D01*
X0200782Y0222176D01*
X0200792Y0222051D01*
X0200798Y0221926D01*
X0200800Y0221800D01*
X0200798Y0221674D01*
X0200792Y0221549D01*
X0200782Y0221424D01*
X0200768Y0221299D01*
X0200751Y0221174D01*
X0200729Y0221050D01*
X0200704Y0220927D01*
X0200674Y0220805D01*
X0200641Y0220684D01*
X0200604Y0220564D01*
X0200564Y0220445D01*
X0200519Y0220328D01*
X0200471Y0220211D01*
X0200419Y0220097D01*
X0200364Y0219984D01*
X0200305Y0219873D01*
X0200243Y0219764D01*
X0200177Y0219657D01*
X0200108Y0219552D01*
X0200036Y0219449D01*
X0199961Y0219348D01*
X0199882Y0219250D01*
X0199800Y0219155D01*
X0199716Y0219062D01*
X0199628Y0218972D01*
X0199538Y0218884D01*
X0199445Y0218800D01*
X0199350Y0218718D01*
X0199252Y0218639D01*
X0199151Y0218564D01*
X0199048Y0218492D01*
X0198943Y0218423D01*
X0198836Y0218357D01*
X0198727Y0218295D01*
X0198616Y0218236D01*
X0198503Y0218181D01*
X0198389Y0218129D01*
X0198272Y0218081D01*
X0198155Y0218036D01*
X0198036Y0217996D01*
X0197916Y0217959D01*
X0197795Y0217926D01*
X0197673Y0217896D01*
X0197550Y0217871D01*
X0197426Y0217849D01*
X0197301Y0217832D01*
X0197176Y0217818D01*
X0197051Y0217808D01*
X0196926Y0217802D01*
X0196800Y0217800D01*
X0196800Y0210300D01*
X0276800Y0210300D01*
X0226800Y0189300D02*
X0224300Y0191800D01*
X0219300Y0191800D01*
X0216800Y0189300D01*
X0216800Y0174300D01*
X0214300Y0171800D01*
X0209300Y0171800D01*
X0206800Y0174300D01*
X0206800Y0189300D01*
X0209300Y0191800D01*
X0214300Y0191800D01*
X0216800Y0189300D01*
X0206800Y0189300D02*
X0204300Y0191800D01*
X0199300Y0191800D01*
X0196800Y0189300D01*
X0196800Y0174300D01*
X0194300Y0171800D01*
X0189300Y0171800D01*
X0186800Y0174300D01*
X0186800Y0189300D01*
X0189300Y0191800D01*
X0194300Y0191800D01*
X0196800Y0189300D01*
X0186800Y0189300D02*
X0184300Y0191800D01*
X0179300Y0191800D01*
X0176800Y0189300D01*
X0176800Y0174300D01*
X0174300Y0171800D01*
X0169300Y0171800D01*
X0166800Y0174300D01*
X0166800Y0189300D01*
X0169300Y0191800D01*
X0174300Y0191800D01*
X0176800Y0189300D01*
X0166800Y0189300D02*
X0164300Y0191800D01*
X0159300Y0191800D01*
X0156800Y0189300D01*
X0156800Y0174300D01*
X0154300Y0171800D01*
X0149300Y0171800D01*
X0146800Y0174300D01*
X0146800Y0189300D01*
X0149300Y0191800D01*
X0154300Y0191800D01*
X0156800Y0189300D01*
X0146800Y0189300D02*
X0144300Y0191800D01*
X0139300Y0191800D01*
X0136800Y0189300D01*
X0136800Y0174300D01*
X0134300Y0171800D01*
X0129300Y0171800D01*
X0126800Y0174300D01*
X0126800Y0189300D01*
X0129300Y0191800D01*
X0134300Y0191800D01*
X0136800Y0189300D01*
X0126800Y0189300D02*
X0124300Y0191800D01*
X0119300Y0191800D01*
X0116800Y0189300D01*
X0114300Y0191800D01*
X0109300Y0191800D01*
X0106800Y0189300D01*
X0106800Y0174300D01*
X0109300Y0171800D01*
X0114300Y0171800D01*
X0116800Y0174300D01*
X0116800Y0189300D01*
X0116800Y0174300D02*
X0119300Y0171800D01*
X0124300Y0171800D01*
X0126800Y0174300D01*
X0136800Y0174300D02*
X0139300Y0171800D01*
X0144300Y0171800D01*
X0146800Y0174300D01*
X0156800Y0174300D02*
X0159300Y0171800D01*
X0164300Y0171800D01*
X0166800Y0174300D01*
X0176800Y0174300D02*
X0179300Y0171800D01*
X0184300Y0171800D01*
X0186800Y0174300D01*
X0196800Y0174300D02*
X0199300Y0171800D01*
X0204300Y0171800D01*
X0206800Y0174300D01*
X0216800Y0174300D02*
X0219300Y0171800D01*
X0224300Y0171800D01*
X0226800Y0174300D01*
X0041800Y0171800D02*
X0041803Y0172045D01*
X0041812Y0172291D01*
X0041827Y0172536D01*
X0041848Y0172780D01*
X0041875Y0173024D01*
X0041908Y0173267D01*
X0041947Y0173510D01*
X0041992Y0173751D01*
X0042043Y0173991D01*
X0042100Y0174230D01*
X0042162Y0174467D01*
X0042231Y0174703D01*
X0042305Y0174937D01*
X0042385Y0175169D01*
X0042470Y0175399D01*
X0042561Y0175627D01*
X0042658Y0175852D01*
X0042760Y0176076D01*
X0042868Y0176296D01*
X0042981Y0176514D01*
X0043099Y0176729D01*
X0043223Y0176941D01*
X0043351Y0177150D01*
X0043485Y0177356D01*
X0043624Y0177558D01*
X0043768Y0177757D01*
X0043917Y0177952D01*
X0044070Y0178144D01*
X0044228Y0178332D01*
X0044390Y0178516D01*
X0044558Y0178695D01*
X0044729Y0178871D01*
X0044905Y0179042D01*
X0045084Y0179210D01*
X0045268Y0179372D01*
X0045456Y0179530D01*
X0045648Y0179683D01*
X0045843Y0179832D01*
X0046042Y0179976D01*
X0046244Y0180115D01*
X0046450Y0180249D01*
X0046659Y0180377D01*
X0046871Y0180501D01*
X0047086Y0180619D01*
X0047304Y0180732D01*
X0047524Y0180840D01*
X0047748Y0180942D01*
X0047973Y0181039D01*
X0048201Y0181130D01*
X0048431Y0181215D01*
X0048663Y0181295D01*
X0048897Y0181369D01*
X0049133Y0181438D01*
X0049370Y0181500D01*
X0049609Y0181557D01*
X0049849Y0181608D01*
X0050090Y0181653D01*
X0050333Y0181692D01*
X0050576Y0181725D01*
X0050820Y0181752D01*
X0051064Y0181773D01*
X0051309Y0181788D01*
X0051555Y0181797D01*
X0051800Y0181800D01*
X0052045Y0181797D01*
X0052291Y0181788D01*
X0052536Y0181773D01*
X0052780Y0181752D01*
X0053024Y0181725D01*
X0053267Y0181692D01*
X0053510Y0181653D01*
X0053751Y0181608D01*
X0053991Y0181557D01*
X0054230Y0181500D01*
X0054467Y0181438D01*
X0054703Y0181369D01*
X0054937Y0181295D01*
X0055169Y0181215D01*
X0055399Y0181130D01*
X0055627Y0181039D01*
X0055852Y0180942D01*
X0056076Y0180840D01*
X0056296Y0180732D01*
X0056514Y0180619D01*
X0056729Y0180501D01*
X0056941Y0180377D01*
X0057150Y0180249D01*
X0057356Y0180115D01*
X0057558Y0179976D01*
X0057757Y0179832D01*
X0057952Y0179683D01*
X0058144Y0179530D01*
X0058332Y0179372D01*
X0058516Y0179210D01*
X0058695Y0179042D01*
X0058871Y0178871D01*
X0059042Y0178695D01*
X0059210Y0178516D01*
X0059372Y0178332D01*
X0059530Y0178144D01*
X0059683Y0177952D01*
X0059832Y0177757D01*
X0059976Y0177558D01*
X0060115Y0177356D01*
X0060249Y0177150D01*
X0060377Y0176941D01*
X0060501Y0176729D01*
X0060619Y0176514D01*
X0060732Y0176296D01*
X0060840Y0176076D01*
X0060942Y0175852D01*
X0061039Y0175627D01*
X0061130Y0175399D01*
X0061215Y0175169D01*
X0061295Y0174937D01*
X0061369Y0174703D01*
X0061438Y0174467D01*
X0061500Y0174230D01*
X0061557Y0173991D01*
X0061608Y0173751D01*
X0061653Y0173510D01*
X0061692Y0173267D01*
X0061725Y0173024D01*
X0061752Y0172780D01*
X0061773Y0172536D01*
X0061788Y0172291D01*
X0061797Y0172045D01*
X0061800Y0171800D01*
X0061797Y0171555D01*
X0061788Y0171309D01*
X0061773Y0171064D01*
X0061752Y0170820D01*
X0061725Y0170576D01*
X0061692Y0170333D01*
X0061653Y0170090D01*
X0061608Y0169849D01*
X0061557Y0169609D01*
X0061500Y0169370D01*
X0061438Y0169133D01*
X0061369Y0168897D01*
X0061295Y0168663D01*
X0061215Y0168431D01*
X0061130Y0168201D01*
X0061039Y0167973D01*
X0060942Y0167748D01*
X0060840Y0167524D01*
X0060732Y0167304D01*
X0060619Y0167086D01*
X0060501Y0166871D01*
X0060377Y0166659D01*
X0060249Y0166450D01*
X0060115Y0166244D01*
X0059976Y0166042D01*
X0059832Y0165843D01*
X0059683Y0165648D01*
X0059530Y0165456D01*
X0059372Y0165268D01*
X0059210Y0165084D01*
X0059042Y0164905D01*
X0058871Y0164729D01*
X0058695Y0164558D01*
X0058516Y0164390D01*
X0058332Y0164228D01*
X0058144Y0164070D01*
X0057952Y0163917D01*
X0057757Y0163768D01*
X0057558Y0163624D01*
X0057356Y0163485D01*
X0057150Y0163351D01*
X0056941Y0163223D01*
X0056729Y0163099D01*
X0056514Y0162981D01*
X0056296Y0162868D01*
X0056076Y0162760D01*
X0055852Y0162658D01*
X0055627Y0162561D01*
X0055399Y0162470D01*
X0055169Y0162385D01*
X0054937Y0162305D01*
X0054703Y0162231D01*
X0054467Y0162162D01*
X0054230Y0162100D01*
X0053991Y0162043D01*
X0053751Y0161992D01*
X0053510Y0161947D01*
X0053267Y0161908D01*
X0053024Y0161875D01*
X0052780Y0161848D01*
X0052536Y0161827D01*
X0052291Y0161812D01*
X0052045Y0161803D01*
X0051800Y0161800D01*
X0051555Y0161803D01*
X0051309Y0161812D01*
X0051064Y0161827D01*
X0050820Y0161848D01*
X0050576Y0161875D01*
X0050333Y0161908D01*
X0050090Y0161947D01*
X0049849Y0161992D01*
X0049609Y0162043D01*
X0049370Y0162100D01*
X0049133Y0162162D01*
X0048897Y0162231D01*
X0048663Y0162305D01*
X0048431Y0162385D01*
X0048201Y0162470D01*
X0047973Y0162561D01*
X0047748Y0162658D01*
X0047524Y0162760D01*
X0047304Y0162868D01*
X0047086Y0162981D01*
X0046871Y0163099D01*
X0046659Y0163223D01*
X0046450Y0163351D01*
X0046244Y0163485D01*
X0046042Y0163624D01*
X0045843Y0163768D01*
X0045648Y0163917D01*
X0045456Y0164070D01*
X0045268Y0164228D01*
X0045084Y0164390D01*
X0044905Y0164558D01*
X0044729Y0164729D01*
X0044558Y0164905D01*
X0044390Y0165084D01*
X0044228Y0165268D01*
X0044070Y0165456D01*
X0043917Y0165648D01*
X0043768Y0165843D01*
X0043624Y0166042D01*
X0043485Y0166244D01*
X0043351Y0166450D01*
X0043223Y0166659D01*
X0043099Y0166871D01*
X0042981Y0167086D01*
X0042868Y0167304D01*
X0042760Y0167524D01*
X0042658Y0167748D01*
X0042561Y0167973D01*
X0042470Y0168201D01*
X0042385Y0168431D01*
X0042305Y0168663D01*
X0042231Y0168897D01*
X0042162Y0169133D01*
X0042100Y0169370D01*
X0042043Y0169609D01*
X0041992Y0169849D01*
X0041947Y0170090D01*
X0041908Y0170333D01*
X0041875Y0170576D01*
X0041848Y0170820D01*
X0041827Y0171064D01*
X0041812Y0171309D01*
X0041803Y0171555D01*
X0041800Y0171800D01*
D11*
X0097000Y0202000D02*
X0097000Y0206604D01*
X0099302Y0206604D01*
X0100069Y0205837D01*
X0100069Y0204302D01*
X0099302Y0203535D01*
X0097000Y0203535D01*
X0098535Y0203535D02*
X0100069Y0202000D01*
X0101604Y0202767D02*
X0102371Y0202000D01*
X0103906Y0202000D01*
X0104673Y0202767D01*
X0104673Y0205837D01*
X0103906Y0206604D01*
X0102371Y0206604D01*
X0101604Y0205837D01*
X0101604Y0202767D01*
X0106208Y0202000D02*
X0107742Y0203535D01*
X0109277Y0202000D01*
X0109277Y0206604D01*
X0106208Y0206604D02*
X0106208Y0202000D01*
X0110812Y0201233D02*
X0113881Y0201233D01*
X0115416Y0202767D02*
X0118485Y0205837D01*
X0118485Y0202767D01*
X0117718Y0202000D01*
X0116183Y0202000D01*
X0115416Y0202767D01*
X0115416Y0205837D01*
X0116183Y0206604D01*
X0117718Y0206604D01*
X0118485Y0205837D01*
X0113881Y0236233D02*
X0110812Y0236233D01*
X0109277Y0237000D02*
X0107742Y0238535D01*
X0106208Y0237000D01*
X0106208Y0241604D01*
X0104673Y0240837D02*
X0103906Y0241604D01*
X0102371Y0241604D01*
X0101604Y0240837D01*
X0101604Y0237767D01*
X0102371Y0237000D01*
X0103906Y0237000D01*
X0104673Y0237767D01*
X0104673Y0240837D01*
X0100069Y0240837D02*
X0100069Y0239302D01*
X0099302Y0238535D01*
X0097000Y0238535D01*
X0098535Y0238535D02*
X0100069Y0237000D01*
X0097000Y0237000D02*
X0097000Y0241604D01*
X0099302Y0241604D01*
X0100069Y0240837D01*
X0109277Y0241604D02*
X0109277Y0237000D01*
X0115416Y0237767D02*
X0116183Y0237000D01*
X0117718Y0237000D01*
X0118485Y0237767D01*
X0118485Y0238535D01*
X0117718Y0239302D01*
X0116950Y0239302D01*
X0117718Y0239302D02*
X0118485Y0240069D01*
X0118485Y0240837D01*
X0117718Y0241604D01*
X0116183Y0241604D01*
X0115416Y0240837D01*
X0322000Y0055837D02*
X0322000Y0052767D01*
X0322767Y0052000D01*
X0324302Y0052000D01*
X0325069Y0052767D01*
X0325069Y0055837D01*
X0324302Y0056604D01*
X0322767Y0056604D01*
X0322000Y0055837D01*
X0326604Y0056604D02*
X0326604Y0052767D01*
X0327371Y0052000D01*
X0328906Y0052000D01*
X0329673Y0052767D01*
X0329673Y0056604D01*
X0331208Y0056604D02*
X0334277Y0056604D01*
X0332742Y0056604D02*
X0332742Y0052000D01*
X0335812Y0051233D02*
X0338881Y0051233D01*
X0340416Y0052000D02*
X0343485Y0052000D01*
X0341950Y0052000D02*
X0341950Y0056604D01*
X0340416Y0055069D01*
X0345020Y0054302D02*
X0345020Y0056604D01*
X0348089Y0056604D01*
X0347322Y0055069D02*
X0348089Y0054302D01*
X0348089Y0052767D01*
X0347322Y0052000D01*
X0345787Y0052000D01*
X0345020Y0052767D01*
X0345020Y0054302D02*
X0346554Y0055069D01*
X0347322Y0055069D01*
X0163485Y0045837D02*
X0163485Y0042767D01*
X0162718Y0042000D01*
X0161183Y0042000D01*
X0160416Y0042767D01*
X0163485Y0045837D01*
X0162718Y0046604D01*
X0161183Y0046604D01*
X0160416Y0045837D01*
X0160416Y0042767D01*
X0158881Y0041233D02*
X0155812Y0041233D01*
X0152742Y0042000D02*
X0152742Y0046604D01*
X0151208Y0046604D02*
X0154277Y0046604D01*
X0149673Y0046604D02*
X0149673Y0042767D01*
X0148906Y0042000D01*
X0147371Y0042000D01*
X0146604Y0042767D01*
X0146604Y0046604D01*
X0145069Y0045837D02*
X0144302Y0046604D01*
X0142767Y0046604D01*
X0142000Y0045837D01*
X0142000Y0042767D01*
X0142767Y0042000D01*
X0144302Y0042000D01*
X0145069Y0042767D01*
X0145069Y0045837D01*
D12*
X0070363Y0038906D02*
X0053237Y0038906D01*
X0053237Y0084694D01*
X0070363Y0084694D01*
X0070363Y0038906D01*
X0295237Y0155350D02*
X0297039Y0155350D01*
X0296138Y0155350D02*
X0296138Y0158052D01*
X0295237Y0157152D01*
X0298184Y0155800D02*
X0298634Y0155800D01*
X0298634Y0155350D01*
X0298184Y0155350D01*
X0298184Y0155800D01*
X0299657Y0155350D02*
X0301459Y0157152D01*
X0301459Y0157602D01*
X0301008Y0158052D01*
X0300107Y0158052D01*
X0299657Y0157602D01*
X0299657Y0155350D02*
X0301459Y0155350D01*
X0302603Y0155350D02*
X0302603Y0158052D01*
X0303054Y0156701D02*
X0304405Y0155350D01*
X0302603Y0156251D02*
X0304405Y0158052D01*
X0321800Y0161800D02*
X0341800Y0161800D01*
X0341800Y0181800D01*
X0321800Y0181800D01*
X0321800Y0161800D01*
X0331800Y0166800D02*
X0331800Y0171800D01*
X0323894Y0171800D02*
X0323896Y0171994D01*
X0323904Y0172188D01*
X0323915Y0172382D01*
X0323932Y0172575D01*
X0323953Y0172768D01*
X0323980Y0172960D01*
X0324010Y0173152D01*
X0324046Y0173342D01*
X0324086Y0173532D01*
X0324131Y0173721D01*
X0324180Y0173909D01*
X0324234Y0174095D01*
X0324293Y0174280D01*
X0324356Y0174463D01*
X0324424Y0174645D01*
X0324496Y0174825D01*
X0324572Y0175004D01*
X0324653Y0175180D01*
X0324738Y0175355D01*
X0324828Y0175527D01*
X0324921Y0175697D01*
X0325019Y0175864D01*
X0325121Y0176030D01*
X0325226Y0176192D01*
X0325336Y0176352D01*
X0325450Y0176510D01*
X0325567Y0176664D01*
X0325689Y0176816D01*
X0325814Y0176964D01*
X0325942Y0177109D01*
X0326074Y0177252D01*
X0326210Y0177390D01*
X0326348Y0177526D01*
X0326491Y0177658D01*
X0326636Y0177786D01*
X0326784Y0177911D01*
X0326936Y0178033D01*
X0327090Y0178150D01*
X0327248Y0178264D01*
X0327408Y0178374D01*
X0327570Y0178479D01*
X0327736Y0178581D01*
X0327903Y0178679D01*
X0328073Y0178772D01*
X0328245Y0178862D01*
X0328420Y0178947D01*
X0328596Y0179028D01*
X0328775Y0179104D01*
X0328955Y0179176D01*
X0329137Y0179244D01*
X0329320Y0179307D01*
X0329505Y0179366D01*
X0329691Y0179420D01*
X0329879Y0179469D01*
X0330068Y0179514D01*
X0330258Y0179554D01*
X0330448Y0179590D01*
X0330640Y0179620D01*
X0330832Y0179647D01*
X0331025Y0179668D01*
X0331218Y0179685D01*
X0331412Y0179696D01*
X0331606Y0179704D01*
X0331800Y0179706D01*
X0331994Y0179704D01*
X0332188Y0179696D01*
X0332382Y0179685D01*
X0332575Y0179668D01*
X0332768Y0179647D01*
X0332960Y0179620D01*
X0333152Y0179590D01*
X0333342Y0179554D01*
X0333532Y0179514D01*
X0333721Y0179469D01*
X0333909Y0179420D01*
X0334095Y0179366D01*
X0334280Y0179307D01*
X0334463Y0179244D01*
X0334645Y0179176D01*
X0334825Y0179104D01*
X0335004Y0179028D01*
X0335180Y0178947D01*
X0335355Y0178862D01*
X0335527Y0178772D01*
X0335697Y0178679D01*
X0335864Y0178581D01*
X0336030Y0178479D01*
X0336192Y0178374D01*
X0336352Y0178264D01*
X0336510Y0178150D01*
X0336664Y0178033D01*
X0336816Y0177911D01*
X0336964Y0177786D01*
X0337109Y0177658D01*
X0337252Y0177526D01*
X0337390Y0177390D01*
X0337526Y0177252D01*
X0337658Y0177109D01*
X0337786Y0176964D01*
X0337911Y0176816D01*
X0338033Y0176664D01*
X0338150Y0176510D01*
X0338264Y0176352D01*
X0338374Y0176192D01*
X0338479Y0176030D01*
X0338581Y0175864D01*
X0338679Y0175697D01*
X0338772Y0175527D01*
X0338862Y0175355D01*
X0338947Y0175180D01*
X0339028Y0175004D01*
X0339104Y0174825D01*
X0339176Y0174645D01*
X0339244Y0174463D01*
X0339307Y0174280D01*
X0339366Y0174095D01*
X0339420Y0173909D01*
X0339469Y0173721D01*
X0339514Y0173532D01*
X0339554Y0173342D01*
X0339590Y0173152D01*
X0339620Y0172960D01*
X0339647Y0172768D01*
X0339668Y0172575D01*
X0339685Y0172382D01*
X0339696Y0172188D01*
X0339704Y0171994D01*
X0339706Y0171800D01*
X0339704Y0171606D01*
X0339696Y0171412D01*
X0339685Y0171218D01*
X0339668Y0171025D01*
X0339647Y0170832D01*
X0339620Y0170640D01*
X0339590Y0170448D01*
X0339554Y0170258D01*
X0339514Y0170068D01*
X0339469Y0169879D01*
X0339420Y0169691D01*
X0339366Y0169505D01*
X0339307Y0169320D01*
X0339244Y0169137D01*
X0339176Y0168955D01*
X0339104Y0168775D01*
X0339028Y0168596D01*
X0338947Y0168420D01*
X0338862Y0168245D01*
X0338772Y0168073D01*
X0338679Y0167903D01*
X0338581Y0167736D01*
X0338479Y0167570D01*
X0338374Y0167408D01*
X0338264Y0167248D01*
X0338150Y0167090D01*
X0338033Y0166936D01*
X0337911Y0166784D01*
X0337786Y0166636D01*
X0337658Y0166491D01*
X0337526Y0166348D01*
X0337390Y0166210D01*
X0337252Y0166074D01*
X0337109Y0165942D01*
X0336964Y0165814D01*
X0336816Y0165689D01*
X0336664Y0165567D01*
X0336510Y0165450D01*
X0336352Y0165336D01*
X0336192Y0165226D01*
X0336030Y0165121D01*
X0335864Y0165019D01*
X0335697Y0164921D01*
X0335527Y0164828D01*
X0335355Y0164738D01*
X0335180Y0164653D01*
X0335004Y0164572D01*
X0334825Y0164496D01*
X0334645Y0164424D01*
X0334463Y0164356D01*
X0334280Y0164293D01*
X0334095Y0164234D01*
X0333909Y0164180D01*
X0333721Y0164131D01*
X0333532Y0164086D01*
X0333342Y0164046D01*
X0333152Y0164010D01*
X0332960Y0163980D01*
X0332768Y0163953D01*
X0332575Y0163932D01*
X0332382Y0163915D01*
X0332188Y0163904D01*
X0331994Y0163896D01*
X0331800Y0163894D01*
X0331606Y0163896D01*
X0331412Y0163904D01*
X0331218Y0163915D01*
X0331025Y0163932D01*
X0330832Y0163953D01*
X0330640Y0163980D01*
X0330448Y0164010D01*
X0330258Y0164046D01*
X0330068Y0164086D01*
X0329879Y0164131D01*
X0329691Y0164180D01*
X0329505Y0164234D01*
X0329320Y0164293D01*
X0329137Y0164356D01*
X0328955Y0164424D01*
X0328775Y0164496D01*
X0328596Y0164572D01*
X0328420Y0164653D01*
X0328245Y0164738D01*
X0328073Y0164828D01*
X0327903Y0164921D01*
X0327736Y0165019D01*
X0327570Y0165121D01*
X0327408Y0165226D01*
X0327248Y0165336D01*
X0327090Y0165450D01*
X0326936Y0165567D01*
X0326784Y0165689D01*
X0326636Y0165814D01*
X0326491Y0165942D01*
X0326348Y0166074D01*
X0326210Y0166210D01*
X0326074Y0166348D01*
X0325942Y0166491D01*
X0325814Y0166636D01*
X0325689Y0166784D01*
X0325567Y0166936D01*
X0325450Y0167090D01*
X0325336Y0167248D01*
X0325226Y0167408D01*
X0325121Y0167570D01*
X0325019Y0167736D01*
X0324921Y0167903D01*
X0324828Y0168073D01*
X0324738Y0168245D01*
X0324653Y0168420D01*
X0324572Y0168596D01*
X0324496Y0168775D01*
X0324424Y0168955D01*
X0324356Y0169137D01*
X0324293Y0169320D01*
X0324234Y0169505D01*
X0324180Y0169691D01*
X0324131Y0169879D01*
X0324086Y0170068D01*
X0324046Y0170258D01*
X0324010Y0170448D01*
X0323980Y0170640D01*
X0323953Y0170832D01*
X0323932Y0171025D01*
X0323915Y0171218D01*
X0323904Y0171412D01*
X0323896Y0171606D01*
X0323894Y0171800D01*
X0326800Y0171800D02*
X0331800Y0171800D01*
X0331800Y0176800D01*
X0331800Y0171800D02*
X0336800Y0171800D01*
D13*
X0309517Y0163296D02*
X0309517Y0150304D01*
X0274083Y0150304D01*
X0274083Y0163296D01*
X0309517Y0163296D01*
X0315800Y0128800D02*
X0316800Y0128800D01*
X0316800Y0104800D01*
X0315800Y0104800D01*
X0314300Y0046800D02*
X0309300Y0046800D01*
X0306800Y0044300D01*
X0304300Y0046800D01*
X0299300Y0046800D01*
X0296800Y0044300D01*
X0294300Y0046800D01*
X0289300Y0046800D01*
X0286800Y0044300D01*
X0284300Y0046800D01*
X0279300Y0046800D01*
X0276800Y0044300D01*
X0274300Y0046800D01*
X0269300Y0046800D01*
X0266800Y0044300D01*
X0264300Y0046800D01*
X0259300Y0046800D01*
X0256800Y0044300D01*
X0254300Y0046800D01*
X0249300Y0046800D01*
X0246800Y0044300D01*
X0244300Y0046800D01*
X0239300Y0046800D01*
X0236800Y0044300D01*
X0234300Y0046800D01*
X0229300Y0046800D01*
X0226800Y0044300D01*
X0224300Y0046800D01*
X0219300Y0046800D01*
X0216800Y0044300D01*
X0214300Y0046800D01*
X0209300Y0046800D01*
X0206800Y0044300D01*
X0204300Y0046800D01*
X0199300Y0046800D01*
X0196800Y0044300D01*
X0194300Y0046800D01*
X0189300Y0046800D01*
X0186800Y0044300D01*
X0184300Y0046800D01*
X0179300Y0046800D01*
X0176800Y0044300D01*
X0174300Y0046800D01*
X0169300Y0046800D01*
X0166800Y0044300D01*
X0166800Y0039300D01*
X0169300Y0036800D01*
X0174300Y0036800D01*
X0176800Y0039300D01*
X0179300Y0036800D01*
X0184300Y0036800D01*
X0186800Y0039300D01*
X0189300Y0036800D01*
X0194300Y0036800D01*
X0196800Y0039300D01*
X0199300Y0036800D01*
X0204300Y0036800D01*
X0206800Y0039300D01*
X0209300Y0036800D01*
X0214300Y0036800D01*
X0216800Y0039300D01*
X0219300Y0036800D01*
X0224300Y0036800D01*
X0226800Y0039300D01*
X0229300Y0036800D01*
X0234300Y0036800D01*
X0236800Y0039300D01*
X0239300Y0036800D01*
X0244300Y0036800D01*
X0246800Y0039300D01*
X0249300Y0036800D01*
X0254300Y0036800D01*
X0256800Y0039300D01*
X0259300Y0036800D01*
X0264300Y0036800D01*
X0266800Y0039300D01*
X0269300Y0036800D01*
X0274300Y0036800D01*
X0276800Y0039300D01*
X0279300Y0036800D01*
X0284300Y0036800D01*
X0286800Y0039300D01*
X0289300Y0036800D01*
X0294300Y0036800D01*
X0296800Y0039300D01*
X0299300Y0036800D01*
X0304300Y0036800D01*
X0306800Y0039300D01*
X0309300Y0036800D01*
X0314300Y0036800D01*
X0316800Y0039300D01*
X0319300Y0036800D01*
X0324300Y0036800D01*
X0326800Y0039300D01*
X0326800Y0044300D01*
X0324300Y0046800D01*
X0319300Y0046800D01*
X0316800Y0044300D01*
X0314300Y0046800D01*
X0326800Y0044300D02*
X0326800Y0039300D01*
X0177800Y0104800D02*
X0176800Y0104800D01*
X0176800Y0111800D01*
X0176940Y0111802D01*
X0177080Y0111808D01*
X0177220Y0111818D01*
X0177360Y0111831D01*
X0177499Y0111849D01*
X0177638Y0111871D01*
X0177775Y0111896D01*
X0177913Y0111925D01*
X0178049Y0111958D01*
X0178184Y0111995D01*
X0178318Y0112036D01*
X0178451Y0112081D01*
X0178583Y0112129D01*
X0178713Y0112181D01*
X0178842Y0112236D01*
X0178969Y0112295D01*
X0179095Y0112358D01*
X0179219Y0112424D01*
X0179340Y0112493D01*
X0179460Y0112566D01*
X0179578Y0112643D01*
X0179693Y0112722D01*
X0179807Y0112805D01*
X0179917Y0112891D01*
X0180026Y0112980D01*
X0180132Y0113072D01*
X0180235Y0113167D01*
X0180336Y0113264D01*
X0180433Y0113365D01*
X0180528Y0113468D01*
X0180620Y0113574D01*
X0180709Y0113683D01*
X0180795Y0113793D01*
X0180878Y0113907D01*
X0180957Y0114022D01*
X0181034Y0114140D01*
X0181107Y0114260D01*
X0181176Y0114381D01*
X0181242Y0114505D01*
X0181305Y0114631D01*
X0181364Y0114758D01*
X0181419Y0114887D01*
X0181471Y0115017D01*
X0181519Y0115149D01*
X0181564Y0115282D01*
X0181605Y0115416D01*
X0181642Y0115551D01*
X0181675Y0115687D01*
X0181704Y0115825D01*
X0181729Y0115962D01*
X0181751Y0116101D01*
X0181769Y0116240D01*
X0181782Y0116380D01*
X0181792Y0116520D01*
X0181798Y0116660D01*
X0181800Y0116800D01*
X0181798Y0116940D01*
X0181792Y0117080D01*
X0181782Y0117220D01*
X0181769Y0117360D01*
X0181751Y0117499D01*
X0181729Y0117638D01*
X0181704Y0117775D01*
X0181675Y0117913D01*
X0181642Y0118049D01*
X0181605Y0118184D01*
X0181564Y0118318D01*
X0181519Y0118451D01*
X0181471Y0118583D01*
X0181419Y0118713D01*
X0181364Y0118842D01*
X0181305Y0118969D01*
X0181242Y0119095D01*
X0181176Y0119219D01*
X0181107Y0119340D01*
X0181034Y0119460D01*
X0180957Y0119578D01*
X0180878Y0119693D01*
X0180795Y0119807D01*
X0180709Y0119917D01*
X0180620Y0120026D01*
X0180528Y0120132D01*
X0180433Y0120235D01*
X0180336Y0120336D01*
X0180235Y0120433D01*
X0180132Y0120528D01*
X0180026Y0120620D01*
X0179917Y0120709D01*
X0179807Y0120795D01*
X0179693Y0120878D01*
X0179578Y0120957D01*
X0179460Y0121034D01*
X0179340Y0121107D01*
X0179219Y0121176D01*
X0179095Y0121242D01*
X0178969Y0121305D01*
X0178842Y0121364D01*
X0178713Y0121419D01*
X0178583Y0121471D01*
X0178451Y0121519D01*
X0178318Y0121564D01*
X0178184Y0121605D01*
X0178049Y0121642D01*
X0177913Y0121675D01*
X0177775Y0121704D01*
X0177638Y0121729D01*
X0177499Y0121751D01*
X0177360Y0121769D01*
X0177220Y0121782D01*
X0177080Y0121792D01*
X0176940Y0121798D01*
X0176800Y0121800D01*
X0176800Y0128800D01*
X0177800Y0128800D01*
X0164800Y0121800D02*
X0164800Y0101800D01*
X0161800Y0101800D01*
X0161800Y0100800D01*
X0161800Y0101800D02*
X0158800Y0101800D01*
X0158800Y0121800D01*
X0161800Y0121800D01*
X0161800Y0122800D01*
X0161800Y0121800D02*
X0164800Y0121800D01*
X0136800Y0114300D02*
X0136800Y0099300D01*
X0096800Y0099300D01*
X0096800Y0114300D01*
X0136800Y0114300D01*
X0126800Y0123800D02*
X0126800Y0126800D01*
X0127800Y0126800D01*
X0126800Y0126800D02*
X0126800Y0129800D01*
X0106800Y0129800D01*
X0106800Y0126800D01*
X0105800Y0126800D01*
X0106800Y0126800D02*
X0106800Y0123800D01*
X0126800Y0123800D01*
X0126800Y0138800D02*
X0106800Y0138800D01*
X0106800Y0141800D01*
X0105800Y0141800D01*
X0106800Y0141800D02*
X0106800Y0144800D01*
X0126800Y0144800D01*
X0126800Y0141800D01*
X0127800Y0141800D01*
X0126800Y0141800D02*
X0126800Y0138800D01*
X0084800Y0151800D02*
X0081800Y0151800D01*
X0081800Y0150800D01*
X0081800Y0151800D02*
X0078800Y0151800D01*
X0078800Y0171800D01*
X0081800Y0171800D01*
X0081800Y0172800D01*
X0081800Y0171800D02*
X0084800Y0171800D01*
X0084800Y0151800D01*
X0059300Y0161800D02*
X0044300Y0161800D01*
X0056800Y0129300D02*
X0056800Y0124300D01*
X0039005Y0121800D02*
X0039009Y0122114D01*
X0039020Y0122428D01*
X0039040Y0122741D01*
X0039067Y0123054D01*
X0039101Y0123366D01*
X0039143Y0123677D01*
X0039193Y0123987D01*
X0039251Y0124296D01*
X0039316Y0124603D01*
X0039388Y0124909D01*
X0039468Y0125213D01*
X0039556Y0125514D01*
X0039651Y0125814D01*
X0039753Y0126111D01*
X0039862Y0126405D01*
X0039979Y0126696D01*
X0040103Y0126985D01*
X0040233Y0127271D01*
X0040371Y0127553D01*
X0040516Y0127832D01*
X0040667Y0128107D01*
X0040825Y0128378D01*
X0040990Y0128645D01*
X0041161Y0128909D01*
X0041339Y0129167D01*
X0041523Y0129422D01*
X0041713Y0129672D01*
X0041909Y0129917D01*
X0042112Y0130157D01*
X0042320Y0130393D01*
X0042533Y0130623D01*
X0042753Y0130847D01*
X0042977Y0131067D01*
X0043207Y0131280D01*
X0043443Y0131488D01*
X0043683Y0131691D01*
X0043928Y0131887D01*
X0044178Y0132077D01*
X0044433Y0132261D01*
X0044691Y0132439D01*
X0044955Y0132610D01*
X0045222Y0132775D01*
X0045493Y0132933D01*
X0045768Y0133084D01*
X0046047Y0133229D01*
X0046329Y0133367D01*
X0046615Y0133497D01*
X0046904Y0133621D01*
X0047195Y0133738D01*
X0047489Y0133847D01*
X0047786Y0133949D01*
X0048086Y0134044D01*
X0048387Y0134132D01*
X0048691Y0134212D01*
X0048997Y0134284D01*
X0049304Y0134349D01*
X0049613Y0134407D01*
X0049923Y0134457D01*
X0050234Y0134499D01*
X0050546Y0134533D01*
X0050859Y0134560D01*
X0051172Y0134580D01*
X0051486Y0134591D01*
X0051800Y0134595D01*
X0052114Y0134591D01*
X0052428Y0134580D01*
X0052741Y0134560D01*
X0053054Y0134533D01*
X0053366Y0134499D01*
X0053677Y0134457D01*
X0053987Y0134407D01*
X0054296Y0134349D01*
X0054603Y0134284D01*
X0054909Y0134212D01*
X0055213Y0134132D01*
X0055514Y0134044D01*
X0055814Y0133949D01*
X0056111Y0133847D01*
X0056405Y0133738D01*
X0056696Y0133621D01*
X0056985Y0133497D01*
X0057271Y0133367D01*
X0057553Y0133229D01*
X0057832Y0133084D01*
X0058107Y0132933D01*
X0058378Y0132775D01*
X0058645Y0132610D01*
X0058909Y0132439D01*
X0059167Y0132261D01*
X0059422Y0132077D01*
X0059672Y0131887D01*
X0059917Y0131691D01*
X0060157Y0131488D01*
X0060393Y0131280D01*
X0060623Y0131067D01*
X0060847Y0130847D01*
X0061067Y0130623D01*
X0061280Y0130393D01*
X0061488Y0130157D01*
X0061691Y0129917D01*
X0061887Y0129672D01*
X0062077Y0129422D01*
X0062261Y0129167D01*
X0062439Y0128909D01*
X0062610Y0128645D01*
X0062775Y0128378D01*
X0062933Y0128107D01*
X0063084Y0127832D01*
X0063229Y0127553D01*
X0063367Y0127271D01*
X0063497Y0126985D01*
X0063621Y0126696D01*
X0063738Y0126405D01*
X0063847Y0126111D01*
X0063949Y0125814D01*
X0064044Y0125514D01*
X0064132Y0125213D01*
X0064212Y0124909D01*
X0064284Y0124603D01*
X0064349Y0124296D01*
X0064407Y0123987D01*
X0064457Y0123677D01*
X0064499Y0123366D01*
X0064533Y0123054D01*
X0064560Y0122741D01*
X0064580Y0122428D01*
X0064591Y0122114D01*
X0064595Y0121800D01*
X0064591Y0121486D01*
X0064580Y0121172D01*
X0064560Y0120859D01*
X0064533Y0120546D01*
X0064499Y0120234D01*
X0064457Y0119923D01*
X0064407Y0119613D01*
X0064349Y0119304D01*
X0064284Y0118997D01*
X0064212Y0118691D01*
X0064132Y0118387D01*
X0064044Y0118086D01*
X0063949Y0117786D01*
X0063847Y0117489D01*
X0063738Y0117195D01*
X0063621Y0116904D01*
X0063497Y0116615D01*
X0063367Y0116329D01*
X0063229Y0116047D01*
X0063084Y0115768D01*
X0062933Y0115493D01*
X0062775Y0115222D01*
X0062610Y0114955D01*
X0062439Y0114691D01*
X0062261Y0114433D01*
X0062077Y0114178D01*
X0061887Y0113928D01*
X0061691Y0113683D01*
X0061488Y0113443D01*
X0061280Y0113207D01*
X0061067Y0112977D01*
X0060847Y0112753D01*
X0060623Y0112533D01*
X0060393Y0112320D01*
X0060157Y0112112D01*
X0059917Y0111909D01*
X0059672Y0111713D01*
X0059422Y0111523D01*
X0059167Y0111339D01*
X0058909Y0111161D01*
X0058645Y0110990D01*
X0058378Y0110825D01*
X0058107Y0110667D01*
X0057832Y0110516D01*
X0057553Y0110371D01*
X0057271Y0110233D01*
X0056985Y0110103D01*
X0056696Y0109979D01*
X0056405Y0109862D01*
X0056111Y0109753D01*
X0055814Y0109651D01*
X0055514Y0109556D01*
X0055213Y0109468D01*
X0054909Y0109388D01*
X0054603Y0109316D01*
X0054296Y0109251D01*
X0053987Y0109193D01*
X0053677Y0109143D01*
X0053366Y0109101D01*
X0053054Y0109067D01*
X0052741Y0109040D01*
X0052428Y0109020D01*
X0052114Y0109009D01*
X0051800Y0109005D01*
X0051486Y0109009D01*
X0051172Y0109020D01*
X0050859Y0109040D01*
X0050546Y0109067D01*
X0050234Y0109101D01*
X0049923Y0109143D01*
X0049613Y0109193D01*
X0049304Y0109251D01*
X0048997Y0109316D01*
X0048691Y0109388D01*
X0048387Y0109468D01*
X0048086Y0109556D01*
X0047786Y0109651D01*
X0047489Y0109753D01*
X0047195Y0109862D01*
X0046904Y0109979D01*
X0046615Y0110103D01*
X0046329Y0110233D01*
X0046047Y0110371D01*
X0045768Y0110516D01*
X0045493Y0110667D01*
X0045222Y0110825D01*
X0044955Y0110990D01*
X0044691Y0111161D01*
X0044433Y0111339D01*
X0044178Y0111523D01*
X0043928Y0111713D01*
X0043683Y0111909D01*
X0043443Y0112112D01*
X0043207Y0112320D01*
X0042977Y0112533D01*
X0042753Y0112753D01*
X0042533Y0112977D01*
X0042320Y0113207D01*
X0042112Y0113443D01*
X0041909Y0113683D01*
X0041713Y0113928D01*
X0041523Y0114178D01*
X0041339Y0114433D01*
X0041161Y0114691D01*
X0040990Y0114955D01*
X0040825Y0115222D01*
X0040667Y0115493D01*
X0040516Y0115768D01*
X0040371Y0116047D01*
X0040233Y0116329D01*
X0040103Y0116615D01*
X0039979Y0116904D01*
X0039862Y0117195D01*
X0039753Y0117489D01*
X0039651Y0117786D01*
X0039556Y0118086D01*
X0039468Y0118387D01*
X0039388Y0118691D01*
X0039316Y0118997D01*
X0039251Y0119304D01*
X0039193Y0119613D01*
X0039143Y0119923D01*
X0039101Y0120234D01*
X0039067Y0120546D01*
X0039040Y0120859D01*
X0039020Y0121172D01*
X0039009Y0121486D01*
X0039005Y0121800D01*
X0096800Y0099300D02*
X0096800Y0096800D01*
X0136800Y0096800D01*
X0136800Y0099300D01*
X0129517Y0070737D02*
X0121249Y0070737D01*
X0129517Y0070737D02*
X0129517Y0067981D01*
X0148178Y0064261D02*
X0148178Y0059261D01*
X0141957Y0066800D02*
X0141960Y0067042D01*
X0141969Y0067283D01*
X0141984Y0067524D01*
X0142004Y0067765D01*
X0142031Y0068005D01*
X0142064Y0068244D01*
X0142102Y0068483D01*
X0142146Y0068720D01*
X0142196Y0068957D01*
X0142252Y0069192D01*
X0142314Y0069425D01*
X0142381Y0069657D01*
X0142454Y0069888D01*
X0142532Y0070116D01*
X0142617Y0070342D01*
X0142706Y0070567D01*
X0142801Y0070789D01*
X0142902Y0071008D01*
X0143008Y0071226D01*
X0143119Y0071440D01*
X0143236Y0071652D01*
X0143357Y0071860D01*
X0143484Y0072066D01*
X0143616Y0072268D01*
X0143753Y0072468D01*
X0143894Y0072663D01*
X0144040Y0072856D01*
X0144191Y0073044D01*
X0144347Y0073229D01*
X0144507Y0073410D01*
X0144671Y0073587D01*
X0144840Y0073760D01*
X0145013Y0073929D01*
X0145190Y0074093D01*
X0145371Y0074253D01*
X0145556Y0074409D01*
X0145744Y0074560D01*
X0145937Y0074706D01*
X0146132Y0074847D01*
X0146332Y0074984D01*
X0146534Y0075116D01*
X0146740Y0075243D01*
X0146948Y0075364D01*
X0147160Y0075481D01*
X0147374Y0075592D01*
X0147592Y0075698D01*
X0147811Y0075799D01*
X0148033Y0075894D01*
X0148258Y0075983D01*
X0148484Y0076068D01*
X0148712Y0076146D01*
X0148943Y0076219D01*
X0149175Y0076286D01*
X0149408Y0076348D01*
X0149643Y0076404D01*
X0149880Y0076454D01*
X0150117Y0076498D01*
X0150356Y0076536D01*
X0150595Y0076569D01*
X0150835Y0076596D01*
X0151076Y0076616D01*
X0151317Y0076631D01*
X0151558Y0076640D01*
X0151800Y0076643D01*
X0152042Y0076640D01*
X0152283Y0076631D01*
X0152524Y0076616D01*
X0152765Y0076596D01*
X0153005Y0076569D01*
X0153244Y0076536D01*
X0153483Y0076498D01*
X0153720Y0076454D01*
X0153957Y0076404D01*
X0154192Y0076348D01*
X0154425Y0076286D01*
X0154657Y0076219D01*
X0154888Y0076146D01*
X0155116Y0076068D01*
X0155342Y0075983D01*
X0155567Y0075894D01*
X0155789Y0075799D01*
X0156008Y0075698D01*
X0156226Y0075592D01*
X0156440Y0075481D01*
X0156652Y0075364D01*
X0156860Y0075243D01*
X0157066Y0075116D01*
X0157268Y0074984D01*
X0157468Y0074847D01*
X0157663Y0074706D01*
X0157856Y0074560D01*
X0158044Y0074409D01*
X0158229Y0074253D01*
X0158410Y0074093D01*
X0158587Y0073929D01*
X0158760Y0073760D01*
X0158929Y0073587D01*
X0159093Y0073410D01*
X0159253Y0073229D01*
X0159409Y0073044D01*
X0159560Y0072856D01*
X0159706Y0072663D01*
X0159847Y0072468D01*
X0159984Y0072268D01*
X0160116Y0072066D01*
X0160243Y0071860D01*
X0160364Y0071652D01*
X0160481Y0071440D01*
X0160592Y0071226D01*
X0160698Y0071008D01*
X0160799Y0070789D01*
X0160894Y0070567D01*
X0160983Y0070342D01*
X0161068Y0070116D01*
X0161146Y0069888D01*
X0161219Y0069657D01*
X0161286Y0069425D01*
X0161348Y0069192D01*
X0161404Y0068957D01*
X0161454Y0068720D01*
X0161498Y0068483D01*
X0161536Y0068244D01*
X0161569Y0068005D01*
X0161596Y0067765D01*
X0161616Y0067524D01*
X0161631Y0067283D01*
X0161640Y0067042D01*
X0161643Y0066800D01*
X0161640Y0066558D01*
X0161631Y0066317D01*
X0161616Y0066076D01*
X0161596Y0065835D01*
X0161569Y0065595D01*
X0161536Y0065356D01*
X0161498Y0065117D01*
X0161454Y0064880D01*
X0161404Y0064643D01*
X0161348Y0064408D01*
X0161286Y0064175D01*
X0161219Y0063943D01*
X0161146Y0063712D01*
X0161068Y0063484D01*
X0160983Y0063258D01*
X0160894Y0063033D01*
X0160799Y0062811D01*
X0160698Y0062592D01*
X0160592Y0062374D01*
X0160481Y0062160D01*
X0160364Y0061948D01*
X0160243Y0061740D01*
X0160116Y0061534D01*
X0159984Y0061332D01*
X0159847Y0061132D01*
X0159706Y0060937D01*
X0159560Y0060744D01*
X0159409Y0060556D01*
X0159253Y0060371D01*
X0159093Y0060190D01*
X0158929Y0060013D01*
X0158760Y0059840D01*
X0158587Y0059671D01*
X0158410Y0059507D01*
X0158229Y0059347D01*
X0158044Y0059191D01*
X0157856Y0059040D01*
X0157663Y0058894D01*
X0157468Y0058753D01*
X0157268Y0058616D01*
X0157066Y0058484D01*
X0156860Y0058357D01*
X0156652Y0058236D01*
X0156440Y0058119D01*
X0156226Y0058008D01*
X0156008Y0057902D01*
X0155789Y0057801D01*
X0155567Y0057706D01*
X0155342Y0057617D01*
X0155116Y0057532D01*
X0154888Y0057454D01*
X0154657Y0057381D01*
X0154425Y0057314D01*
X0154192Y0057252D01*
X0153957Y0057196D01*
X0153720Y0057146D01*
X0153483Y0057102D01*
X0153244Y0057064D01*
X0153005Y0057031D01*
X0152765Y0057004D01*
X0152524Y0056984D01*
X0152283Y0056969D01*
X0152042Y0056960D01*
X0151800Y0056957D01*
X0151558Y0056960D01*
X0151317Y0056969D01*
X0151076Y0056984D01*
X0150835Y0057004D01*
X0150595Y0057031D01*
X0150356Y0057064D01*
X0150117Y0057102D01*
X0149880Y0057146D01*
X0149643Y0057196D01*
X0149408Y0057252D01*
X0149175Y0057314D01*
X0148943Y0057381D01*
X0148712Y0057454D01*
X0148484Y0057532D01*
X0148258Y0057617D01*
X0148033Y0057706D01*
X0147811Y0057801D01*
X0147592Y0057902D01*
X0147374Y0058008D01*
X0147160Y0058119D01*
X0146948Y0058236D01*
X0146740Y0058357D01*
X0146534Y0058484D01*
X0146332Y0058616D01*
X0146132Y0058753D01*
X0145937Y0058894D01*
X0145744Y0059040D01*
X0145556Y0059191D01*
X0145371Y0059347D01*
X0145190Y0059507D01*
X0145013Y0059671D01*
X0144840Y0059840D01*
X0144671Y0060013D01*
X0144507Y0060190D01*
X0144347Y0060371D01*
X0144191Y0060556D01*
X0144040Y0060744D01*
X0143894Y0060937D01*
X0143753Y0061132D01*
X0143616Y0061332D01*
X0143484Y0061534D01*
X0143357Y0061740D01*
X0143236Y0061948D01*
X0143119Y0062160D01*
X0143008Y0062374D01*
X0142902Y0062592D01*
X0142801Y0062811D01*
X0142706Y0063033D01*
X0142617Y0063258D01*
X0142532Y0063484D01*
X0142454Y0063712D01*
X0142381Y0063943D01*
X0142314Y0064175D01*
X0142252Y0064408D01*
X0142196Y0064643D01*
X0142146Y0064880D01*
X0142102Y0065117D01*
X0142064Y0065356D01*
X0142031Y0065595D01*
X0142004Y0065835D01*
X0141984Y0066076D01*
X0141969Y0066317D01*
X0141960Y0066558D01*
X0141957Y0066800D01*
X0129517Y0049477D02*
X0129517Y0028611D01*
X0094083Y0028611D01*
X0094083Y0070737D01*
X0102351Y0070737D01*
X0041800Y0064300D02*
X0041800Y0059300D01*
X0039300Y0056800D01*
X0041800Y0054300D01*
X0041800Y0049300D01*
X0039300Y0046800D01*
X0034300Y0046800D01*
X0031800Y0049300D01*
X0031800Y0054300D01*
X0034300Y0056800D01*
X0031800Y0059300D01*
X0031800Y0064300D01*
X0034300Y0066800D01*
X0039300Y0066800D01*
X0041800Y0064300D01*
X0166800Y0044300D02*
X0166800Y0039300D01*
X0089300Y0201800D02*
X0084300Y0201800D01*
X0081800Y0204300D01*
X0081800Y0209300D01*
X0084300Y0211800D01*
X0081800Y0214300D01*
X0081800Y0219300D01*
X0084300Y0221800D01*
X0081800Y0224300D01*
X0081800Y0229300D01*
X0084300Y0231800D01*
X0081800Y0234300D01*
X0081800Y0239300D01*
X0084300Y0241800D01*
X0089300Y0241800D01*
X0091800Y0239300D01*
X0091800Y0234300D01*
X0089300Y0231800D01*
X0091800Y0229300D01*
X0091800Y0224300D01*
X0089300Y0221800D01*
X0091800Y0219300D01*
X0091800Y0214300D01*
X0089300Y0211800D01*
X0091800Y0209300D01*
X0091800Y0204300D01*
X0089300Y0201800D01*
D14*
X0082366Y0168938D02*
X0080431Y0168938D01*
X0082366Y0167003D01*
X0082850Y0167487D01*
X0082850Y0168455D01*
X0082366Y0168938D01*
X0082366Y0167003D02*
X0080431Y0167003D01*
X0079948Y0167487D01*
X0079948Y0168455D01*
X0080431Y0168938D01*
X0080431Y0165992D02*
X0079948Y0165508D01*
X0079948Y0164541D01*
X0080431Y0164057D01*
X0080915Y0164057D01*
X0081399Y0164541D01*
X0081399Y0165992D01*
X0082366Y0165992D02*
X0080431Y0165992D01*
X0082366Y0165992D02*
X0082850Y0165508D01*
X0082850Y0164541D01*
X0082366Y0164057D01*
X0082366Y0163045D02*
X0082850Y0162562D01*
X0082850Y0161594D01*
X0082366Y0161110D01*
X0081399Y0162078D02*
X0081399Y0162562D01*
X0081883Y0163045D01*
X0082366Y0163045D01*
X0081399Y0162562D02*
X0080915Y0163045D01*
X0080431Y0163045D01*
X0079948Y0162562D01*
X0079948Y0161594D01*
X0080431Y0161110D01*
X0108950Y0142369D02*
X0109434Y0142852D01*
X0110401Y0142852D01*
X0110885Y0142369D01*
X0110885Y0141885D01*
X0110401Y0141401D01*
X0110885Y0140917D01*
X0110885Y0140434D01*
X0110401Y0139950D01*
X0109434Y0139950D01*
X0108950Y0140434D01*
X0109917Y0141401D02*
X0110401Y0141401D01*
X0111897Y0141885D02*
X0111897Y0142369D01*
X0112380Y0142852D01*
X0113348Y0142852D01*
X0113831Y0142369D01*
X0113831Y0140434D01*
X0113348Y0139950D01*
X0112380Y0139950D01*
X0111897Y0140434D01*
X0112380Y0141401D02*
X0113831Y0141401D01*
X0114843Y0140434D02*
X0116778Y0142369D01*
X0116778Y0140434D01*
X0116294Y0139950D01*
X0115327Y0139950D01*
X0114843Y0140434D01*
X0114843Y0142369D01*
X0115327Y0142852D01*
X0116294Y0142852D01*
X0116778Y0142369D01*
X0112380Y0141401D02*
X0111897Y0141885D01*
X0117078Y0128652D02*
X0117078Y0125750D01*
X0118045Y0125750D02*
X0116110Y0125750D01*
X0116110Y0127685D02*
X0117078Y0128652D01*
X0119057Y0128169D02*
X0119541Y0128652D01*
X0120508Y0128652D01*
X0120992Y0128169D01*
X0120992Y0127685D01*
X0119057Y0125750D01*
X0120992Y0125750D01*
X0122003Y0126234D02*
X0123938Y0128169D01*
X0123938Y0126234D01*
X0123455Y0125750D01*
X0122487Y0125750D01*
X0122003Y0126234D01*
X0122003Y0128169D01*
X0122487Y0128652D01*
X0123455Y0128652D01*
X0123938Y0128169D01*
X0160748Y0111294D02*
X0160748Y0110327D01*
X0161231Y0109843D01*
X0163166Y0109843D01*
X0161231Y0111778D01*
X0163166Y0111778D01*
X0163650Y0111294D01*
X0163650Y0110327D01*
X0163166Y0109843D01*
X0163650Y0108831D02*
X0163650Y0106897D01*
X0161715Y0108831D01*
X0161231Y0108831D01*
X0160748Y0108348D01*
X0160748Y0107380D01*
X0161231Y0106897D01*
X0160748Y0104917D02*
X0163650Y0104917D01*
X0163650Y0103950D02*
X0163650Y0105885D01*
X0161715Y0103950D02*
X0160748Y0104917D01*
X0160748Y0111294D02*
X0161231Y0111778D01*
X0163248Y0070225D02*
X0163248Y0068290D01*
X0166150Y0068290D01*
X0166150Y0067278D02*
X0164215Y0067278D01*
X0164699Y0068290D02*
X0164699Y0069257D01*
X0166150Y0067278D02*
X0166150Y0065827D01*
X0165666Y0065343D01*
X0164215Y0065343D01*
X0163731Y0064331D02*
X0165666Y0062397D01*
X0166150Y0062880D01*
X0166150Y0063848D01*
X0165666Y0064331D01*
X0163731Y0064331D01*
X0163248Y0063848D01*
X0163248Y0062880D01*
X0163731Y0062397D01*
X0165666Y0062397D01*
X0166150Y0061385D02*
X0166150Y0059450D01*
X0166150Y0060417D02*
X0163248Y0060417D01*
X0164215Y0059450D01*
X0037850Y0114717D02*
X0037850Y0116652D01*
X0037850Y0115685D02*
X0034948Y0115685D01*
X0035915Y0114717D01*
X0035431Y0117664D02*
X0034948Y0118148D01*
X0034948Y0119115D01*
X0035431Y0119599D01*
X0037366Y0117664D01*
X0037850Y0118148D01*
X0037850Y0119115D01*
X0037366Y0119599D01*
X0035431Y0119599D01*
X0035431Y0120610D02*
X0034948Y0121094D01*
X0034948Y0122062D01*
X0035431Y0122545D01*
X0037366Y0120610D01*
X0037850Y0121094D01*
X0037850Y0122062D01*
X0037366Y0122545D01*
X0035431Y0122545D01*
X0035915Y0123557D02*
X0037366Y0123557D01*
X0037850Y0124041D01*
X0037850Y0125492D01*
X0035915Y0125492D01*
X0036399Y0126503D02*
X0036399Y0127471D01*
X0037850Y0126503D02*
X0034948Y0126503D01*
X0034948Y0128438D01*
X0035431Y0120610D02*
X0037366Y0120610D01*
X0037366Y0117664D02*
X0035431Y0117664D01*
D15*
X0059609Y0161471D02*
X0059069Y0162191D01*
X0059070Y0162190D02*
X0059303Y0162371D01*
X0059531Y0162557D01*
X0059755Y0162749D01*
X0059974Y0162946D01*
X0060188Y0163148D01*
X0060397Y0163356D01*
X0060600Y0163569D01*
X0060799Y0163786D01*
X0060992Y0164009D01*
X0061180Y0164236D01*
X0061362Y0164467D01*
X0061539Y0164703D01*
X0061709Y0164944D01*
X0061874Y0165188D01*
X0062032Y0165436D01*
X0062185Y0165688D01*
X0062331Y0165944D01*
X0062471Y0166203D01*
X0062605Y0166466D01*
X0062732Y0166731D01*
X0062853Y0167000D01*
X0062967Y0167272D01*
X0063074Y0167546D01*
X0063175Y0167823D01*
X0063269Y0168102D01*
X0063356Y0168384D01*
X0063436Y0168667D01*
X0063509Y0168953D01*
X0063575Y0169240D01*
X0063634Y0169529D01*
X0063686Y0169819D01*
X0063731Y0170110D01*
X0063769Y0170402D01*
X0063799Y0170695D01*
X0063823Y0170989D01*
X0063839Y0171283D01*
X0063848Y0171577D01*
X0063850Y0171872D01*
X0063844Y0172167D01*
X0063832Y0172461D01*
X0063812Y0172755D01*
X0063785Y0173048D01*
X0063751Y0173341D01*
X0063710Y0173633D01*
X0063661Y0173923D01*
X0063606Y0174213D01*
X0063544Y0174500D01*
X0063474Y0174787D01*
X0063397Y0175071D01*
X0063314Y0175354D01*
X0063224Y0175634D01*
X0063127Y0175912D01*
X0063023Y0176188D01*
X0062912Y0176461D01*
X0062795Y0176731D01*
X0062671Y0176999D01*
X0062541Y0177263D01*
X0062404Y0177524D01*
X0062261Y0177781D01*
X0062111Y0178035D01*
X0061956Y0178286D01*
X0061794Y0178532D01*
X0061627Y0178774D01*
X0061453Y0179012D01*
X0061274Y0179246D01*
X0061089Y0179476D01*
X0060899Y0179700D01*
X0060703Y0179921D01*
X0060502Y0180136D01*
X0060295Y0180346D01*
X0060084Y0180551D01*
X0059867Y0180751D01*
X0059646Y0180946D01*
X0059420Y0181135D01*
X0059190Y0181318D01*
X0058955Y0181496D01*
X0058715Y0181668D01*
X0058472Y0181834D01*
X0058225Y0181994D01*
X0057974Y0182148D01*
X0057719Y0182296D01*
X0057460Y0182438D01*
X0057199Y0182573D01*
X0056934Y0182702D01*
X0056666Y0182824D01*
X0056395Y0182940D01*
X0056121Y0183049D01*
X0055845Y0183151D01*
X0055566Y0183246D01*
X0055285Y0183335D01*
X0055002Y0183417D01*
X0054717Y0183492D01*
X0054430Y0183559D01*
X0054142Y0183620D01*
X0053852Y0183674D01*
X0053561Y0183721D01*
X0053269Y0183760D01*
X0052977Y0183792D01*
X0052683Y0183818D01*
X0052389Y0183836D01*
X0052095Y0183846D01*
X0051800Y0183850D01*
X0051505Y0183846D01*
X0051211Y0183836D01*
X0050917Y0183818D01*
X0050623Y0183792D01*
X0050331Y0183760D01*
X0050039Y0183721D01*
X0049748Y0183674D01*
X0049458Y0183620D01*
X0049170Y0183559D01*
X0048883Y0183492D01*
X0048598Y0183417D01*
X0048315Y0183335D01*
X0048034Y0183246D01*
X0047755Y0183151D01*
X0047479Y0183049D01*
X0047205Y0182940D01*
X0046934Y0182824D01*
X0046666Y0182702D01*
X0046401Y0182573D01*
X0046140Y0182438D01*
X0045881Y0182296D01*
X0045626Y0182148D01*
X0045375Y0181994D01*
X0045128Y0181834D01*
X0044885Y0181668D01*
X0044645Y0181496D01*
X0044410Y0181318D01*
X0044180Y0181135D01*
X0043954Y0180946D01*
X0043733Y0180751D01*
X0043516Y0180551D01*
X0043305Y0180346D01*
X0043098Y0180136D01*
X0042897Y0179921D01*
X0042701Y0179700D01*
X0042511Y0179476D01*
X0042326Y0179246D01*
X0042147Y0179012D01*
X0041973Y0178774D01*
X0041806Y0178532D01*
X0041644Y0178286D01*
X0041489Y0178035D01*
X0041339Y0177781D01*
X0041196Y0177524D01*
X0041059Y0177263D01*
X0040929Y0176999D01*
X0040805Y0176731D01*
X0040688Y0176461D01*
X0040577Y0176188D01*
X0040473Y0175912D01*
X0040376Y0175634D01*
X0040286Y0175354D01*
X0040203Y0175071D01*
X0040126Y0174787D01*
X0040056Y0174500D01*
X0039994Y0174213D01*
X0039939Y0173923D01*
X0039890Y0173633D01*
X0039849Y0173341D01*
X0039815Y0173048D01*
X0039788Y0172755D01*
X0039768Y0172461D01*
X0039756Y0172167D01*
X0039750Y0171872D01*
X0039752Y0171577D01*
X0039761Y0171283D01*
X0039777Y0170989D01*
X0039801Y0170695D01*
X0039831Y0170402D01*
X0039869Y0170110D01*
X0039914Y0169819D01*
X0039966Y0169529D01*
X0040025Y0169240D01*
X0040091Y0168953D01*
X0040164Y0168667D01*
X0040244Y0168384D01*
X0040331Y0168102D01*
X0040425Y0167823D01*
X0040526Y0167546D01*
X0040633Y0167272D01*
X0040747Y0167000D01*
X0040868Y0166731D01*
X0040995Y0166466D01*
X0041129Y0166203D01*
X0041269Y0165944D01*
X0041415Y0165688D01*
X0041568Y0165436D01*
X0041726Y0165188D01*
X0041891Y0164944D01*
X0042061Y0164703D01*
X0042238Y0164467D01*
X0042420Y0164236D01*
X0042608Y0164009D01*
X0042801Y0163786D01*
X0043000Y0163569D01*
X0043203Y0163356D01*
X0043412Y0163148D01*
X0043626Y0162946D01*
X0043845Y0162749D01*
X0044069Y0162557D01*
X0044297Y0162371D01*
X0044530Y0162190D01*
X0043991Y0161471D01*
X0043990Y0161470D01*
X0043740Y0161664D01*
X0043494Y0161864D01*
X0043254Y0162070D01*
X0043019Y0162282D01*
X0042789Y0162500D01*
X0042564Y0162723D01*
X0042345Y0162951D01*
X0042131Y0163185D01*
X0041923Y0163424D01*
X0041721Y0163668D01*
X0041526Y0163917D01*
X0041336Y0164171D01*
X0041153Y0164429D01*
X0040976Y0164691D01*
X0040805Y0164958D01*
X0040641Y0165229D01*
X0040484Y0165504D01*
X0040333Y0165782D01*
X0040189Y0166065D01*
X0040053Y0166350D01*
X0039923Y0166639D01*
X0039800Y0166931D01*
X0039685Y0167226D01*
X0039577Y0167523D01*
X0039476Y0167824D01*
X0039382Y0168126D01*
X0039296Y0168431D01*
X0039217Y0168738D01*
X0039146Y0169046D01*
X0039083Y0169356D01*
X0039027Y0169668D01*
X0038978Y0169981D01*
X0038938Y0170295D01*
X0038905Y0170610D01*
X0038880Y0170926D01*
X0038862Y0171242D01*
X0038852Y0171558D01*
X0038850Y0171875D01*
X0038856Y0172192D01*
X0038869Y0172508D01*
X0038891Y0172824D01*
X0038919Y0173139D01*
X0038956Y0173454D01*
X0039000Y0173767D01*
X0039052Y0174080D01*
X0039112Y0174391D01*
X0039179Y0174700D01*
X0039254Y0175008D01*
X0039336Y0175314D01*
X0039425Y0175617D01*
X0039522Y0175919D01*
X0039627Y0176218D01*
X0039739Y0176514D01*
X0039857Y0176808D01*
X0039983Y0177098D01*
X0040116Y0177385D01*
X0040257Y0177670D01*
X0040404Y0177950D01*
X0040557Y0178227D01*
X0040718Y0178500D01*
X0040885Y0178769D01*
X0041059Y0179034D01*
X0041239Y0179294D01*
X0041425Y0179550D01*
X0041618Y0179801D01*
X0041816Y0180048D01*
X0042021Y0180290D01*
X0042231Y0180526D01*
X0042448Y0180758D01*
X0042670Y0180983D01*
X0042897Y0181204D01*
X0043129Y0181419D01*
X0043367Y0181628D01*
X0043610Y0181831D01*
X0043858Y0182029D01*
X0044110Y0182220D01*
X0044367Y0182405D01*
X0044629Y0182583D01*
X0044895Y0182755D01*
X0045164Y0182921D01*
X0045438Y0183080D01*
X0045716Y0183232D01*
X0045997Y0183377D01*
X0046282Y0183516D01*
X0046570Y0183647D01*
X0046862Y0183771D01*
X0047156Y0183889D01*
X0047453Y0183999D01*
X0047752Y0184101D01*
X0048054Y0184196D01*
X0048358Y0184284D01*
X0048665Y0184365D01*
X0048973Y0184438D01*
X0049283Y0184503D01*
X0049594Y0184561D01*
X0049907Y0184611D01*
X0050221Y0184653D01*
X0050535Y0184688D01*
X0050851Y0184715D01*
X0051167Y0184735D01*
X0051483Y0184746D01*
X0051800Y0184750D01*
X0052117Y0184746D01*
X0052433Y0184735D01*
X0052749Y0184715D01*
X0053065Y0184688D01*
X0053379Y0184653D01*
X0053693Y0184611D01*
X0054006Y0184561D01*
X0054317Y0184503D01*
X0054627Y0184438D01*
X0054935Y0184365D01*
X0055242Y0184284D01*
X0055546Y0184196D01*
X0055848Y0184101D01*
X0056147Y0183999D01*
X0056444Y0183889D01*
X0056738Y0183771D01*
X0057030Y0183647D01*
X0057318Y0183516D01*
X0057603Y0183377D01*
X0057884Y0183232D01*
X0058162Y0183080D01*
X0058436Y0182921D01*
X0058705Y0182755D01*
X0058971Y0182583D01*
X0059233Y0182405D01*
X0059490Y0182220D01*
X0059742Y0182029D01*
X0059990Y0181831D01*
X0060233Y0181628D01*
X0060471Y0181419D01*
X0060703Y0181204D01*
X0060930Y0180983D01*
X0061152Y0180758D01*
X0061369Y0180526D01*
X0061579Y0180290D01*
X0061784Y0180048D01*
X0061982Y0179801D01*
X0062175Y0179550D01*
X0062361Y0179294D01*
X0062541Y0179034D01*
X0062715Y0178769D01*
X0062882Y0178500D01*
X0063043Y0178227D01*
X0063196Y0177950D01*
X0063343Y0177670D01*
X0063484Y0177385D01*
X0063617Y0177098D01*
X0063743Y0176808D01*
X0063861Y0176514D01*
X0063973Y0176218D01*
X0064078Y0175919D01*
X0064175Y0175617D01*
X0064264Y0175314D01*
X0064346Y0175008D01*
X0064421Y0174700D01*
X0064488Y0174391D01*
X0064548Y0174080D01*
X0064600Y0173767D01*
X0064644Y0173454D01*
X0064681Y0173139D01*
X0064709Y0172824D01*
X0064731Y0172508D01*
X0064744Y0172192D01*
X0064750Y0171875D01*
X0064748Y0171558D01*
X0064738Y0171242D01*
X0064720Y0170926D01*
X0064695Y0170610D01*
X0064662Y0170295D01*
X0064622Y0169981D01*
X0064573Y0169668D01*
X0064517Y0169356D01*
X0064454Y0169046D01*
X0064383Y0168738D01*
X0064304Y0168431D01*
X0064218Y0168126D01*
X0064124Y0167824D01*
X0064023Y0167523D01*
X0063915Y0167226D01*
X0063800Y0166931D01*
X0063677Y0166639D01*
X0063547Y0166350D01*
X0063411Y0166065D01*
X0063267Y0165782D01*
X0063116Y0165504D01*
X0062959Y0165229D01*
X0062795Y0164958D01*
X0062624Y0164691D01*
X0062447Y0164429D01*
X0062264Y0164171D01*
X0062074Y0163917D01*
X0061879Y0163668D01*
X0061677Y0163424D01*
X0061469Y0163185D01*
X0061255Y0162951D01*
X0061036Y0162723D01*
X0060811Y0162500D01*
X0060581Y0162282D01*
X0060346Y0162070D01*
X0060106Y0161864D01*
X0059860Y0161664D01*
X0059610Y0161470D01*
X0059554Y0161545D01*
X0059802Y0161738D01*
X0060046Y0161937D01*
X0060284Y0162141D01*
X0060518Y0162351D01*
X0060746Y0162567D01*
X0060969Y0162789D01*
X0061187Y0163016D01*
X0061399Y0163248D01*
X0061605Y0163485D01*
X0061806Y0163727D01*
X0062000Y0163975D01*
X0062188Y0164226D01*
X0062370Y0164483D01*
X0062546Y0164743D01*
X0062715Y0165008D01*
X0062878Y0165277D01*
X0063034Y0165550D01*
X0063184Y0165826D01*
X0063326Y0166106D01*
X0063462Y0166390D01*
X0063591Y0166677D01*
X0063713Y0166967D01*
X0063827Y0167259D01*
X0063935Y0167555D01*
X0064035Y0167853D01*
X0064128Y0168153D01*
X0064213Y0168456D01*
X0064291Y0168760D01*
X0064362Y0169066D01*
X0064425Y0169374D01*
X0064481Y0169684D01*
X0064529Y0169994D01*
X0064569Y0170306D01*
X0064602Y0170619D01*
X0064627Y0170932D01*
X0064644Y0171246D01*
X0064654Y0171560D01*
X0064656Y0171875D01*
X0064650Y0172189D01*
X0064637Y0172503D01*
X0064616Y0172817D01*
X0064587Y0173130D01*
X0064551Y0173442D01*
X0064507Y0173753D01*
X0064455Y0174063D01*
X0064396Y0174372D01*
X0064329Y0174679D01*
X0064255Y0174985D01*
X0064174Y0175288D01*
X0064085Y0175590D01*
X0063988Y0175889D01*
X0063885Y0176186D01*
X0063774Y0176480D01*
X0063656Y0176771D01*
X0063531Y0177060D01*
X0063399Y0177345D01*
X0063260Y0177627D01*
X0063114Y0177905D01*
X0062961Y0178180D01*
X0062802Y0178451D01*
X0062636Y0178718D01*
X0062463Y0178981D01*
X0062285Y0179240D01*
X0062100Y0179494D01*
X0061908Y0179743D01*
X0061711Y0179988D01*
X0061508Y0180228D01*
X0061299Y0180463D01*
X0061084Y0180693D01*
X0060864Y0180917D01*
X0060639Y0181136D01*
X0060408Y0181349D01*
X0060172Y0181557D01*
X0059930Y0181759D01*
X0059685Y0181954D01*
X0059434Y0182144D01*
X0059179Y0182328D01*
X0058919Y0182505D01*
X0058655Y0182676D01*
X0058387Y0182840D01*
X0058115Y0182998D01*
X0057840Y0183149D01*
X0057560Y0183293D01*
X0057278Y0183431D01*
X0056992Y0183561D01*
X0056703Y0183685D01*
X0056410Y0183801D01*
X0056116Y0183910D01*
X0055818Y0184012D01*
X0055519Y0184106D01*
X0055216Y0184194D01*
X0054912Y0184274D01*
X0054607Y0184346D01*
X0054299Y0184411D01*
X0053990Y0184468D01*
X0053679Y0184518D01*
X0053368Y0184560D01*
X0053055Y0184595D01*
X0052742Y0184621D01*
X0052428Y0184641D01*
X0052114Y0184652D01*
X0051800Y0184656D01*
X0051486Y0184652D01*
X0051172Y0184641D01*
X0050858Y0184621D01*
X0050545Y0184595D01*
X0050232Y0184560D01*
X0049921Y0184518D01*
X0049610Y0184468D01*
X0049301Y0184411D01*
X0048993Y0184346D01*
X0048688Y0184274D01*
X0048384Y0184194D01*
X0048081Y0184106D01*
X0047782Y0184012D01*
X0047484Y0183910D01*
X0047190Y0183801D01*
X0046897Y0183685D01*
X0046608Y0183561D01*
X0046322Y0183431D01*
X0046040Y0183293D01*
X0045760Y0183149D01*
X0045485Y0182998D01*
X0045213Y0182840D01*
X0044945Y0182676D01*
X0044681Y0182505D01*
X0044421Y0182328D01*
X0044166Y0182144D01*
X0043915Y0181954D01*
X0043670Y0181759D01*
X0043428Y0181557D01*
X0043192Y0181349D01*
X0042961Y0181136D01*
X0042736Y0180917D01*
X0042516Y0180693D01*
X0042301Y0180463D01*
X0042092Y0180228D01*
X0041889Y0179988D01*
X0041692Y0179743D01*
X0041500Y0179494D01*
X0041315Y0179240D01*
X0041137Y0178981D01*
X0040964Y0178718D01*
X0040798Y0178451D01*
X0040639Y0178180D01*
X0040486Y0177905D01*
X0040340Y0177627D01*
X0040201Y0177345D01*
X0040069Y0177060D01*
X0039944Y0176771D01*
X0039826Y0176480D01*
X0039715Y0176186D01*
X0039612Y0175889D01*
X0039515Y0175590D01*
X0039426Y0175288D01*
X0039345Y0174985D01*
X0039271Y0174679D01*
X0039204Y0174372D01*
X0039145Y0174063D01*
X0039093Y0173753D01*
X0039049Y0173442D01*
X0039013Y0173130D01*
X0038984Y0172817D01*
X0038963Y0172503D01*
X0038950Y0172189D01*
X0038944Y0171875D01*
X0038946Y0171560D01*
X0038956Y0171246D01*
X0038973Y0170932D01*
X0038998Y0170619D01*
X0039031Y0170306D01*
X0039071Y0169994D01*
X0039119Y0169684D01*
X0039175Y0169374D01*
X0039238Y0169066D01*
X0039309Y0168760D01*
X0039387Y0168456D01*
X0039472Y0168153D01*
X0039565Y0167853D01*
X0039665Y0167555D01*
X0039773Y0167259D01*
X0039887Y0166967D01*
X0040009Y0166677D01*
X0040138Y0166390D01*
X0040274Y0166106D01*
X0040416Y0165826D01*
X0040566Y0165550D01*
X0040722Y0165277D01*
X0040885Y0165008D01*
X0041054Y0164743D01*
X0041230Y0164483D01*
X0041412Y0164226D01*
X0041600Y0163975D01*
X0041794Y0163727D01*
X0041995Y0163485D01*
X0042201Y0163248D01*
X0042413Y0163016D01*
X0042631Y0162789D01*
X0042854Y0162567D01*
X0043082Y0162351D01*
X0043316Y0162141D01*
X0043554Y0161937D01*
X0043798Y0161738D01*
X0044046Y0161545D01*
X0044103Y0161620D01*
X0043856Y0161812D01*
X0043614Y0162009D01*
X0043377Y0162212D01*
X0043146Y0162421D01*
X0042919Y0162635D01*
X0042697Y0162855D01*
X0042481Y0163080D01*
X0042271Y0163311D01*
X0042066Y0163546D01*
X0041867Y0163787D01*
X0041674Y0164032D01*
X0041488Y0164282D01*
X0041307Y0164536D01*
X0041132Y0164795D01*
X0040964Y0165058D01*
X0040803Y0165325D01*
X0040648Y0165596D01*
X0040499Y0165870D01*
X0040358Y0166148D01*
X0040223Y0166430D01*
X0040095Y0166714D01*
X0039974Y0167002D01*
X0039860Y0167293D01*
X0039754Y0167586D01*
X0039654Y0167882D01*
X0039562Y0168180D01*
X0039477Y0168480D01*
X0039400Y0168783D01*
X0039330Y0169087D01*
X0039267Y0169392D01*
X0039212Y0169699D01*
X0039164Y0170008D01*
X0039124Y0170317D01*
X0039092Y0170628D01*
X0039067Y0170939D01*
X0039050Y0171250D01*
X0039040Y0171562D01*
X0039038Y0171874D01*
X0039044Y0172186D01*
X0039057Y0172498D01*
X0039078Y0172809D01*
X0039106Y0173120D01*
X0039143Y0173430D01*
X0039186Y0173739D01*
X0039237Y0174047D01*
X0039296Y0174354D01*
X0039362Y0174658D01*
X0039436Y0174962D01*
X0039517Y0175263D01*
X0039605Y0175562D01*
X0039701Y0175859D01*
X0039804Y0176154D01*
X0039914Y0176446D01*
X0040031Y0176735D01*
X0040155Y0177022D01*
X0040286Y0177305D01*
X0040424Y0177585D01*
X0040569Y0177861D01*
X0040721Y0178134D01*
X0040879Y0178403D01*
X0041044Y0178668D01*
X0041215Y0178929D01*
X0041392Y0179185D01*
X0041576Y0179438D01*
X0041766Y0179685D01*
X0041961Y0179928D01*
X0042163Y0180167D01*
X0042371Y0180400D01*
X0042584Y0180628D01*
X0042802Y0180850D01*
X0043026Y0181068D01*
X0043255Y0181279D01*
X0043490Y0181485D01*
X0043729Y0181686D01*
X0043973Y0181880D01*
X0044222Y0182068D01*
X0044475Y0182251D01*
X0044733Y0182427D01*
X0044995Y0182596D01*
X0045261Y0182759D01*
X0045531Y0182916D01*
X0045805Y0183066D01*
X0046082Y0183209D01*
X0046362Y0183346D01*
X0046646Y0183475D01*
X0046933Y0183598D01*
X0047223Y0183713D01*
X0047516Y0183821D01*
X0047811Y0183923D01*
X0048109Y0184017D01*
X0048409Y0184103D01*
X0048710Y0184182D01*
X0049014Y0184254D01*
X0049319Y0184319D01*
X0049626Y0184376D01*
X0049934Y0184425D01*
X0050244Y0184467D01*
X0050554Y0184501D01*
X0050865Y0184528D01*
X0051176Y0184547D01*
X0051488Y0184558D01*
X0051800Y0184562D01*
X0052112Y0184558D01*
X0052424Y0184547D01*
X0052735Y0184528D01*
X0053046Y0184501D01*
X0053356Y0184467D01*
X0053666Y0184425D01*
X0053974Y0184376D01*
X0054281Y0184319D01*
X0054586Y0184254D01*
X0054890Y0184182D01*
X0055191Y0184103D01*
X0055491Y0184017D01*
X0055789Y0183923D01*
X0056084Y0183821D01*
X0056377Y0183713D01*
X0056667Y0183598D01*
X0056954Y0183475D01*
X0057238Y0183346D01*
X0057518Y0183209D01*
X0057795Y0183066D01*
X0058069Y0182916D01*
X0058339Y0182759D01*
X0058605Y0182596D01*
X0058867Y0182427D01*
X0059125Y0182251D01*
X0059378Y0182068D01*
X0059627Y0181880D01*
X0059871Y0181686D01*
X0060110Y0181485D01*
X0060345Y0181279D01*
X0060574Y0181068D01*
X0060798Y0180850D01*
X0061016Y0180628D01*
X0061229Y0180400D01*
X0061437Y0180167D01*
X0061639Y0179928D01*
X0061834Y0179685D01*
X0062024Y0179438D01*
X0062208Y0179185D01*
X0062385Y0178929D01*
X0062556Y0178668D01*
X0062721Y0178403D01*
X0062879Y0178134D01*
X0063031Y0177861D01*
X0063176Y0177585D01*
X0063314Y0177305D01*
X0063445Y0177022D01*
X0063569Y0176735D01*
X0063686Y0176446D01*
X0063796Y0176154D01*
X0063899Y0175859D01*
X0063995Y0175562D01*
X0064083Y0175263D01*
X0064164Y0174962D01*
X0064238Y0174658D01*
X0064304Y0174354D01*
X0064363Y0174047D01*
X0064414Y0173739D01*
X0064457Y0173430D01*
X0064494Y0173120D01*
X0064522Y0172809D01*
X0064543Y0172498D01*
X0064556Y0172186D01*
X0064562Y0171874D01*
X0064560Y0171562D01*
X0064550Y0171250D01*
X0064533Y0170939D01*
X0064508Y0170628D01*
X0064476Y0170317D01*
X0064436Y0170008D01*
X0064388Y0169699D01*
X0064333Y0169392D01*
X0064270Y0169087D01*
X0064200Y0168783D01*
X0064123Y0168480D01*
X0064038Y0168180D01*
X0063946Y0167882D01*
X0063846Y0167586D01*
X0063740Y0167293D01*
X0063626Y0167002D01*
X0063505Y0166714D01*
X0063377Y0166430D01*
X0063242Y0166148D01*
X0063101Y0165870D01*
X0062952Y0165596D01*
X0062797Y0165325D01*
X0062636Y0165058D01*
X0062468Y0164795D01*
X0062293Y0164536D01*
X0062112Y0164282D01*
X0061926Y0164032D01*
X0061733Y0163787D01*
X0061534Y0163546D01*
X0061329Y0163311D01*
X0061119Y0163080D01*
X0060903Y0162855D01*
X0060681Y0162635D01*
X0060454Y0162421D01*
X0060223Y0162212D01*
X0059986Y0162009D01*
X0059744Y0161812D01*
X0059497Y0161620D01*
X0059441Y0161696D01*
X0059686Y0161886D01*
X0059926Y0162081D01*
X0060161Y0162283D01*
X0060391Y0162490D01*
X0060616Y0162703D01*
X0060836Y0162921D01*
X0061050Y0163145D01*
X0061259Y0163374D01*
X0061462Y0163607D01*
X0061660Y0163846D01*
X0061851Y0164089D01*
X0062037Y0164338D01*
X0062216Y0164590D01*
X0062389Y0164847D01*
X0062556Y0165108D01*
X0062717Y0165373D01*
X0062870Y0165642D01*
X0063018Y0165914D01*
X0063158Y0166190D01*
X0063292Y0166470D01*
X0063419Y0166752D01*
X0063539Y0167038D01*
X0063652Y0167326D01*
X0063758Y0167617D01*
X0063856Y0167911D01*
X0063948Y0168207D01*
X0064032Y0168505D01*
X0064109Y0168805D01*
X0064178Y0169107D01*
X0064241Y0169410D01*
X0064295Y0169715D01*
X0064343Y0170021D01*
X0064382Y0170329D01*
X0064414Y0170637D01*
X0064439Y0170945D01*
X0064456Y0171255D01*
X0064466Y0171564D01*
X0064468Y0171874D01*
X0064462Y0172184D01*
X0064449Y0172493D01*
X0064428Y0172802D01*
X0064400Y0173111D01*
X0064364Y0173418D01*
X0064321Y0173725D01*
X0064270Y0174031D01*
X0064212Y0174335D01*
X0064146Y0174638D01*
X0064073Y0174939D01*
X0063993Y0175238D01*
X0063905Y0175535D01*
X0063810Y0175830D01*
X0063708Y0176122D01*
X0063599Y0176412D01*
X0063482Y0176699D01*
X0063359Y0176983D01*
X0063229Y0177264D01*
X0063092Y0177542D01*
X0062948Y0177816D01*
X0062798Y0178087D01*
X0062641Y0178354D01*
X0062477Y0178617D01*
X0062307Y0178876D01*
X0062131Y0179131D01*
X0061949Y0179382D01*
X0061760Y0179627D01*
X0061566Y0179869D01*
X0061366Y0180105D01*
X0061160Y0180336D01*
X0060948Y0180563D01*
X0060731Y0180784D01*
X0060509Y0180999D01*
X0060282Y0181210D01*
X0060049Y0181414D01*
X0059811Y0181613D01*
X0059569Y0181806D01*
X0059322Y0181993D01*
X0059071Y0182174D01*
X0058815Y0182348D01*
X0058555Y0182517D01*
X0058291Y0182679D01*
X0058023Y0182834D01*
X0057751Y0182983D01*
X0057476Y0183125D01*
X0057197Y0183261D01*
X0056916Y0183389D01*
X0056631Y0183511D01*
X0056343Y0183625D01*
X0056052Y0183733D01*
X0055759Y0183833D01*
X0055464Y0183927D01*
X0055166Y0184013D01*
X0054867Y0184091D01*
X0054565Y0184162D01*
X0054262Y0184226D01*
X0053958Y0184283D01*
X0053652Y0184332D01*
X0053345Y0184373D01*
X0053037Y0184407D01*
X0052728Y0184434D01*
X0052419Y0184453D01*
X0052110Y0184464D01*
X0051800Y0184468D01*
X0051490Y0184464D01*
X0051181Y0184453D01*
X0050872Y0184434D01*
X0050563Y0184407D01*
X0050255Y0184373D01*
X0049948Y0184332D01*
X0049642Y0184283D01*
X0049338Y0184226D01*
X0049035Y0184162D01*
X0048733Y0184091D01*
X0048434Y0184013D01*
X0048136Y0183927D01*
X0047841Y0183833D01*
X0047548Y0183733D01*
X0047257Y0183625D01*
X0046969Y0183511D01*
X0046684Y0183389D01*
X0046403Y0183261D01*
X0046124Y0183125D01*
X0045849Y0182983D01*
X0045577Y0182834D01*
X0045309Y0182679D01*
X0045045Y0182517D01*
X0044785Y0182348D01*
X0044529Y0182174D01*
X0044278Y0181993D01*
X0044031Y0181806D01*
X0043789Y0181613D01*
X0043551Y0181414D01*
X0043318Y0181210D01*
X0043091Y0180999D01*
X0042869Y0180784D01*
X0042652Y0180563D01*
X0042440Y0180336D01*
X0042234Y0180105D01*
X0042034Y0179869D01*
X0041840Y0179627D01*
X0041651Y0179382D01*
X0041469Y0179131D01*
X0041293Y0178876D01*
X0041123Y0178617D01*
X0040959Y0178354D01*
X0040802Y0178087D01*
X0040652Y0177816D01*
X0040508Y0177542D01*
X0040371Y0177264D01*
X0040241Y0176983D01*
X0040118Y0176699D01*
X0040001Y0176412D01*
X0039892Y0176122D01*
X0039790Y0175830D01*
X0039695Y0175535D01*
X0039607Y0175238D01*
X0039527Y0174939D01*
X0039454Y0174638D01*
X0039388Y0174335D01*
X0039330Y0174031D01*
X0039279Y0173725D01*
X0039236Y0173418D01*
X0039200Y0173111D01*
X0039172Y0172802D01*
X0039151Y0172493D01*
X0039138Y0172184D01*
X0039132Y0171874D01*
X0039134Y0171564D01*
X0039144Y0171255D01*
X0039161Y0170945D01*
X0039186Y0170637D01*
X0039218Y0170329D01*
X0039257Y0170021D01*
X0039305Y0169715D01*
X0039359Y0169410D01*
X0039422Y0169107D01*
X0039491Y0168805D01*
X0039568Y0168505D01*
X0039652Y0168207D01*
X0039744Y0167911D01*
X0039842Y0167617D01*
X0039948Y0167326D01*
X0040061Y0167038D01*
X0040181Y0166752D01*
X0040308Y0166470D01*
X0040442Y0166190D01*
X0040582Y0165914D01*
X0040730Y0165642D01*
X0040883Y0165373D01*
X0041044Y0165108D01*
X0041211Y0164847D01*
X0041384Y0164590D01*
X0041563Y0164338D01*
X0041749Y0164089D01*
X0041940Y0163846D01*
X0042138Y0163607D01*
X0042341Y0163374D01*
X0042550Y0163145D01*
X0042764Y0162921D01*
X0042984Y0162703D01*
X0043209Y0162490D01*
X0043439Y0162283D01*
X0043674Y0162081D01*
X0043914Y0161886D01*
X0044159Y0161696D01*
X0044216Y0161771D01*
X0043973Y0161959D01*
X0043734Y0162154D01*
X0043501Y0162354D01*
X0043273Y0162559D01*
X0043049Y0162771D01*
X0042831Y0162987D01*
X0042618Y0163209D01*
X0042411Y0163436D01*
X0042209Y0163668D01*
X0042013Y0163905D01*
X0041823Y0164147D01*
X0041639Y0164393D01*
X0041461Y0164644D01*
X0041289Y0164899D01*
X0041124Y0165158D01*
X0040964Y0165421D01*
X0040812Y0165688D01*
X0040665Y0165958D01*
X0040526Y0166232D01*
X0040393Y0166509D01*
X0040267Y0166790D01*
X0040148Y0167073D01*
X0040036Y0167360D01*
X0039931Y0167649D01*
X0039833Y0167940D01*
X0039742Y0168234D01*
X0039659Y0168530D01*
X0039582Y0168827D01*
X0039513Y0169127D01*
X0039452Y0169428D01*
X0039397Y0169731D01*
X0039351Y0170035D01*
X0039311Y0170340D01*
X0039279Y0170645D01*
X0039255Y0170952D01*
X0039238Y0171259D01*
X0039228Y0171566D01*
X0039226Y0171874D01*
X0039232Y0172181D01*
X0039245Y0172488D01*
X0039265Y0172795D01*
X0039294Y0173101D01*
X0039329Y0173407D01*
X0039372Y0173711D01*
X0039423Y0174014D01*
X0039480Y0174316D01*
X0039546Y0174617D01*
X0039618Y0174916D01*
X0039698Y0175212D01*
X0039785Y0175507D01*
X0039879Y0175800D01*
X0039981Y0176090D01*
X0040089Y0176378D01*
X0040204Y0176663D01*
X0040327Y0176945D01*
X0040456Y0177224D01*
X0040592Y0177500D01*
X0040735Y0177772D01*
X0040884Y0178041D01*
X0041040Y0178306D01*
X0041202Y0178567D01*
X0041371Y0178824D01*
X0041546Y0179077D01*
X0041727Y0179325D01*
X0041914Y0179569D01*
X0042107Y0179809D01*
X0042305Y0180043D01*
X0042510Y0180273D01*
X0042720Y0180498D01*
X0042935Y0180717D01*
X0043156Y0180931D01*
X0043381Y0181140D01*
X0043612Y0181343D01*
X0043848Y0181540D01*
X0044089Y0181732D01*
X0044334Y0181917D01*
X0044583Y0182097D01*
X0044837Y0182270D01*
X0045095Y0182437D01*
X0045357Y0182598D01*
X0045623Y0182752D01*
X0045893Y0182900D01*
X0046166Y0183041D01*
X0046443Y0183176D01*
X0046722Y0183303D01*
X0047005Y0183424D01*
X0047291Y0183538D01*
X0047579Y0183644D01*
X0047870Y0183744D01*
X0048163Y0183837D01*
X0048459Y0183922D01*
X0048756Y0184000D01*
X0049055Y0184071D01*
X0049356Y0184134D01*
X0049658Y0184190D01*
X0049962Y0184239D01*
X0050267Y0184280D01*
X0050572Y0184314D01*
X0050878Y0184340D01*
X0051185Y0184359D01*
X0051493Y0184370D01*
X0051800Y0184374D01*
X0052107Y0184370D01*
X0052415Y0184359D01*
X0052722Y0184340D01*
X0053028Y0184314D01*
X0053333Y0184280D01*
X0053638Y0184239D01*
X0053942Y0184190D01*
X0054244Y0184134D01*
X0054545Y0184071D01*
X0054844Y0184000D01*
X0055141Y0183922D01*
X0055437Y0183837D01*
X0055730Y0183744D01*
X0056021Y0183644D01*
X0056309Y0183538D01*
X0056595Y0183424D01*
X0056878Y0183303D01*
X0057157Y0183176D01*
X0057434Y0183041D01*
X0057707Y0182900D01*
X0057977Y0182752D01*
X0058243Y0182598D01*
X0058505Y0182437D01*
X0058763Y0182270D01*
X0059017Y0182097D01*
X0059266Y0181917D01*
X0059511Y0181732D01*
X0059752Y0181540D01*
X0059988Y0181343D01*
X0060219Y0181140D01*
X0060444Y0180931D01*
X0060665Y0180717D01*
X0060880Y0180498D01*
X0061090Y0180273D01*
X0061295Y0180043D01*
X0061493Y0179809D01*
X0061686Y0179569D01*
X0061873Y0179325D01*
X0062054Y0179077D01*
X0062229Y0178824D01*
X0062398Y0178567D01*
X0062560Y0178306D01*
X0062716Y0178041D01*
X0062865Y0177772D01*
X0063008Y0177500D01*
X0063144Y0177224D01*
X0063273Y0176945D01*
X0063396Y0176663D01*
X0063511Y0176378D01*
X0063619Y0176090D01*
X0063721Y0175800D01*
X0063815Y0175507D01*
X0063902Y0175212D01*
X0063982Y0174916D01*
X0064054Y0174617D01*
X0064120Y0174316D01*
X0064177Y0174014D01*
X0064228Y0173711D01*
X0064271Y0173407D01*
X0064306Y0173101D01*
X0064335Y0172795D01*
X0064355Y0172488D01*
X0064368Y0172181D01*
X0064374Y0171874D01*
X0064372Y0171566D01*
X0064362Y0171259D01*
X0064345Y0170952D01*
X0064321Y0170645D01*
X0064289Y0170340D01*
X0064249Y0170035D01*
X0064203Y0169731D01*
X0064148Y0169428D01*
X0064087Y0169127D01*
X0064018Y0168827D01*
X0063941Y0168530D01*
X0063858Y0168234D01*
X0063767Y0167940D01*
X0063669Y0167649D01*
X0063564Y0167360D01*
X0063452Y0167073D01*
X0063333Y0166790D01*
X0063207Y0166509D01*
X0063074Y0166232D01*
X0062935Y0165958D01*
X0062788Y0165688D01*
X0062636Y0165421D01*
X0062476Y0165158D01*
X0062311Y0164899D01*
X0062139Y0164644D01*
X0061961Y0164393D01*
X0061777Y0164147D01*
X0061587Y0163905D01*
X0061391Y0163668D01*
X0061189Y0163436D01*
X0060982Y0163209D01*
X0060769Y0162987D01*
X0060551Y0162771D01*
X0060327Y0162559D01*
X0060099Y0162354D01*
X0059866Y0162154D01*
X0059627Y0161959D01*
X0059384Y0161771D01*
X0059328Y0161846D01*
X0059569Y0162033D01*
X0059806Y0162226D01*
X0060037Y0162425D01*
X0060264Y0162629D01*
X0060486Y0162838D01*
X0060702Y0163053D01*
X0060913Y0163274D01*
X0061119Y0163499D01*
X0061319Y0163729D01*
X0061514Y0163965D01*
X0061702Y0164204D01*
X0061885Y0164449D01*
X0062062Y0164698D01*
X0062232Y0164951D01*
X0062397Y0165208D01*
X0062555Y0165469D01*
X0062706Y0165734D01*
X0062851Y0166002D01*
X0062990Y0166274D01*
X0063122Y0166549D01*
X0063247Y0166828D01*
X0063365Y0167109D01*
X0063476Y0167393D01*
X0063580Y0167680D01*
X0063678Y0167969D01*
X0063768Y0168261D01*
X0063851Y0168554D01*
X0063926Y0168850D01*
X0063995Y0169147D01*
X0064056Y0169446D01*
X0064110Y0169747D01*
X0064156Y0170048D01*
X0064196Y0170351D01*
X0064227Y0170654D01*
X0064252Y0170959D01*
X0064268Y0171263D01*
X0064278Y0171568D01*
X0064280Y0171873D01*
X0064274Y0172178D01*
X0064261Y0172483D01*
X0064241Y0172788D01*
X0064213Y0173092D01*
X0064178Y0173395D01*
X0064135Y0173697D01*
X0064085Y0173998D01*
X0064028Y0174298D01*
X0063963Y0174596D01*
X0063891Y0174892D01*
X0063812Y0175187D01*
X0063725Y0175480D01*
X0063632Y0175770D01*
X0063531Y0176058D01*
X0063423Y0176344D01*
X0063309Y0176627D01*
X0063187Y0176907D01*
X0063059Y0177184D01*
X0062924Y0177457D01*
X0062783Y0177727D01*
X0062634Y0177994D01*
X0062480Y0178257D01*
X0062319Y0178516D01*
X0062151Y0178772D01*
X0061978Y0179023D01*
X0061798Y0179269D01*
X0061612Y0179511D01*
X0061421Y0179749D01*
X0061224Y0179982D01*
X0061021Y0180210D01*
X0060812Y0180433D01*
X0060599Y0180651D01*
X0060380Y0180863D01*
X0060156Y0181070D01*
X0059926Y0181272D01*
X0059692Y0181468D01*
X0059454Y0181658D01*
X0059210Y0181842D01*
X0058963Y0182020D01*
X0058711Y0182192D01*
X0058454Y0182358D01*
X0058194Y0182517D01*
X0057930Y0182671D01*
X0057663Y0182817D01*
X0057392Y0182957D01*
X0057117Y0183091D01*
X0056840Y0183217D01*
X0056559Y0183337D01*
X0056275Y0183450D01*
X0055989Y0183556D01*
X0055701Y0183655D01*
X0055410Y0183747D01*
X0055116Y0183831D01*
X0054821Y0183909D01*
X0054524Y0183979D01*
X0054226Y0184042D01*
X0053926Y0184098D01*
X0053624Y0184146D01*
X0053322Y0184187D01*
X0053019Y0184220D01*
X0052715Y0184246D01*
X0052410Y0184265D01*
X0052105Y0184276D01*
X0051800Y0184280D01*
X0051495Y0184276D01*
X0051190Y0184265D01*
X0050885Y0184246D01*
X0050581Y0184220D01*
X0050278Y0184187D01*
X0049976Y0184146D01*
X0049674Y0184098D01*
X0049374Y0184042D01*
X0049076Y0183979D01*
X0048779Y0183909D01*
X0048484Y0183831D01*
X0048190Y0183747D01*
X0047899Y0183655D01*
X0047611Y0183556D01*
X0047325Y0183450D01*
X0047041Y0183337D01*
X0046760Y0183217D01*
X0046483Y0183091D01*
X0046208Y0182957D01*
X0045937Y0182817D01*
X0045670Y0182671D01*
X0045406Y0182517D01*
X0045146Y0182358D01*
X0044889Y0182192D01*
X0044637Y0182020D01*
X0044390Y0181842D01*
X0044146Y0181658D01*
X0043908Y0181468D01*
X0043674Y0181272D01*
X0043444Y0181070D01*
X0043220Y0180863D01*
X0043001Y0180651D01*
X0042788Y0180433D01*
X0042579Y0180210D01*
X0042376Y0179982D01*
X0042179Y0179749D01*
X0041988Y0179511D01*
X0041802Y0179269D01*
X0041622Y0179023D01*
X0041449Y0178772D01*
X0041281Y0178516D01*
X0041120Y0178257D01*
X0040966Y0177994D01*
X0040817Y0177727D01*
X0040676Y0177457D01*
X0040541Y0177184D01*
X0040413Y0176907D01*
X0040291Y0176627D01*
X0040177Y0176344D01*
X0040069Y0176058D01*
X0039968Y0175770D01*
X0039875Y0175480D01*
X0039788Y0175187D01*
X0039709Y0174892D01*
X0039637Y0174596D01*
X0039572Y0174298D01*
X0039515Y0173998D01*
X0039465Y0173697D01*
X0039422Y0173395D01*
X0039387Y0173092D01*
X0039359Y0172788D01*
X0039339Y0172483D01*
X0039326Y0172178D01*
X0039320Y0171873D01*
X0039322Y0171568D01*
X0039332Y0171263D01*
X0039348Y0170959D01*
X0039373Y0170654D01*
X0039404Y0170351D01*
X0039444Y0170048D01*
X0039490Y0169747D01*
X0039544Y0169446D01*
X0039605Y0169147D01*
X0039674Y0168850D01*
X0039749Y0168554D01*
X0039832Y0168261D01*
X0039922Y0167969D01*
X0040020Y0167680D01*
X0040124Y0167393D01*
X0040235Y0167109D01*
X0040353Y0166828D01*
X0040478Y0166549D01*
X0040610Y0166274D01*
X0040749Y0166002D01*
X0040894Y0165734D01*
X0041045Y0165469D01*
X0041203Y0165208D01*
X0041368Y0164951D01*
X0041538Y0164698D01*
X0041715Y0164449D01*
X0041898Y0164204D01*
X0042086Y0163965D01*
X0042281Y0163729D01*
X0042481Y0163499D01*
X0042687Y0163274D01*
X0042898Y0163053D01*
X0043114Y0162838D01*
X0043336Y0162629D01*
X0043563Y0162425D01*
X0043794Y0162226D01*
X0044031Y0162033D01*
X0044272Y0161846D01*
X0044328Y0161921D01*
X0044089Y0162107D01*
X0043854Y0162298D01*
X0043625Y0162495D01*
X0043400Y0162698D01*
X0043179Y0162906D01*
X0042965Y0163120D01*
X0042755Y0163338D01*
X0042551Y0163562D01*
X0042352Y0163790D01*
X0042159Y0164024D01*
X0041972Y0164262D01*
X0041791Y0164504D01*
X0041615Y0164751D01*
X0041446Y0165002D01*
X0041283Y0165258D01*
X0041126Y0165517D01*
X0040976Y0165780D01*
X0040832Y0166046D01*
X0040694Y0166316D01*
X0040563Y0166589D01*
X0040439Y0166865D01*
X0040322Y0167145D01*
X0040212Y0167427D01*
X0040108Y0167711D01*
X0040012Y0167998D01*
X0039922Y0168288D01*
X0039840Y0168579D01*
X0039765Y0168872D01*
X0039697Y0169168D01*
X0039636Y0169464D01*
X0039583Y0169762D01*
X0039537Y0170062D01*
X0039498Y0170362D01*
X0039466Y0170663D01*
X0039442Y0170965D01*
X0039425Y0171268D01*
X0039416Y0171570D01*
X0039414Y0171873D01*
X0039420Y0172176D01*
X0039433Y0172478D01*
X0039453Y0172781D01*
X0039481Y0173082D01*
X0039516Y0173383D01*
X0039558Y0173683D01*
X0039608Y0173982D01*
X0039665Y0174279D01*
X0039729Y0174575D01*
X0039800Y0174869D01*
X0039879Y0175162D01*
X0039965Y0175452D01*
X0040058Y0175741D01*
X0040157Y0176026D01*
X0040264Y0176310D01*
X0040378Y0176590D01*
X0040498Y0176868D01*
X0040626Y0177143D01*
X0040760Y0177415D01*
X0040900Y0177683D01*
X0041047Y0177948D01*
X0041201Y0178209D01*
X0041361Y0178466D01*
X0041527Y0178719D01*
X0041699Y0178968D01*
X0041877Y0179213D01*
X0042062Y0179454D01*
X0042252Y0179689D01*
X0042447Y0179920D01*
X0042649Y0180147D01*
X0042855Y0180368D01*
X0043068Y0180584D01*
X0043285Y0180795D01*
X0043507Y0181000D01*
X0043735Y0181200D01*
X0043967Y0181395D01*
X0044204Y0181583D01*
X0044446Y0181766D01*
X0044691Y0181943D01*
X0044942Y0182114D01*
X0045196Y0182278D01*
X0045454Y0182437D01*
X0045716Y0182589D01*
X0045981Y0182734D01*
X0046250Y0182873D01*
X0046523Y0183006D01*
X0046798Y0183131D01*
X0047077Y0183250D01*
X0047358Y0183362D01*
X0047642Y0183467D01*
X0047929Y0183566D01*
X0048218Y0183657D01*
X0048509Y0183741D01*
X0048802Y0183818D01*
X0049096Y0183887D01*
X0049393Y0183950D01*
X0049690Y0184005D01*
X0049989Y0184053D01*
X0050289Y0184094D01*
X0050591Y0184127D01*
X0050892Y0184153D01*
X0051195Y0184171D01*
X0051497Y0184182D01*
X0051800Y0184186D01*
X0052103Y0184182D01*
X0052405Y0184171D01*
X0052708Y0184153D01*
X0053009Y0184127D01*
X0053311Y0184094D01*
X0053611Y0184053D01*
X0053910Y0184005D01*
X0054207Y0183950D01*
X0054504Y0183887D01*
X0054798Y0183818D01*
X0055091Y0183741D01*
X0055382Y0183657D01*
X0055671Y0183566D01*
X0055958Y0183467D01*
X0056242Y0183362D01*
X0056523Y0183250D01*
X0056802Y0183131D01*
X0057077Y0183006D01*
X0057350Y0182873D01*
X0057619Y0182734D01*
X0057884Y0182589D01*
X0058146Y0182437D01*
X0058404Y0182278D01*
X0058658Y0182114D01*
X0058909Y0181943D01*
X0059154Y0181766D01*
X0059396Y0181583D01*
X0059633Y0181395D01*
X0059865Y0181200D01*
X0060093Y0181000D01*
X0060315Y0180795D01*
X0060532Y0180584D01*
X0060745Y0180368D01*
X0060951Y0180147D01*
X0061153Y0179920D01*
X0061348Y0179689D01*
X0061538Y0179454D01*
X0061723Y0179213D01*
X0061901Y0178968D01*
X0062073Y0178719D01*
X0062239Y0178466D01*
X0062399Y0178209D01*
X0062553Y0177948D01*
X0062700Y0177683D01*
X0062840Y0177415D01*
X0062974Y0177143D01*
X0063102Y0176868D01*
X0063222Y0176590D01*
X0063336Y0176310D01*
X0063443Y0176026D01*
X0063542Y0175741D01*
X0063635Y0175452D01*
X0063721Y0175162D01*
X0063800Y0174869D01*
X0063871Y0174575D01*
X0063935Y0174279D01*
X0063992Y0173982D01*
X0064042Y0173683D01*
X0064084Y0173383D01*
X0064119Y0173082D01*
X0064147Y0172781D01*
X0064167Y0172478D01*
X0064180Y0172176D01*
X0064186Y0171873D01*
X0064184Y0171570D01*
X0064175Y0171268D01*
X0064158Y0170965D01*
X0064134Y0170663D01*
X0064102Y0170362D01*
X0064063Y0170062D01*
X0064017Y0169762D01*
X0063964Y0169464D01*
X0063903Y0169168D01*
X0063835Y0168872D01*
X0063760Y0168579D01*
X0063678Y0168288D01*
X0063588Y0167998D01*
X0063492Y0167711D01*
X0063388Y0167427D01*
X0063278Y0167145D01*
X0063161Y0166865D01*
X0063037Y0166589D01*
X0062906Y0166316D01*
X0062768Y0166046D01*
X0062624Y0165780D01*
X0062474Y0165517D01*
X0062317Y0165258D01*
X0062154Y0165002D01*
X0061985Y0164751D01*
X0061809Y0164504D01*
X0061628Y0164262D01*
X0061441Y0164024D01*
X0061248Y0163790D01*
X0061049Y0163562D01*
X0060845Y0163338D01*
X0060635Y0163120D01*
X0060421Y0162906D01*
X0060200Y0162698D01*
X0059975Y0162495D01*
X0059746Y0162298D01*
X0059511Y0162107D01*
X0059272Y0161921D01*
X0059215Y0161996D01*
X0059453Y0162181D01*
X0059685Y0162371D01*
X0059914Y0162566D01*
X0060137Y0162767D01*
X0060355Y0162974D01*
X0060569Y0163186D01*
X0060777Y0163403D01*
X0060979Y0163625D01*
X0061176Y0163852D01*
X0061368Y0164083D01*
X0061554Y0164319D01*
X0061734Y0164560D01*
X0061908Y0164805D01*
X0062076Y0165054D01*
X0062238Y0165308D01*
X0062393Y0165565D01*
X0062542Y0165826D01*
X0062685Y0166090D01*
X0062822Y0166358D01*
X0062951Y0166629D01*
X0063074Y0166903D01*
X0063191Y0167180D01*
X0063300Y0167460D01*
X0063403Y0167743D01*
X0063499Y0168027D01*
X0063587Y0168315D01*
X0063669Y0168604D01*
X0063744Y0168895D01*
X0063811Y0169188D01*
X0063872Y0169482D01*
X0063925Y0169778D01*
X0063970Y0170075D01*
X0064009Y0170373D01*
X0064040Y0170672D01*
X0064064Y0170972D01*
X0064081Y0171272D01*
X0064090Y0171572D01*
X0064092Y0171873D01*
X0064086Y0172173D01*
X0064074Y0172474D01*
X0064053Y0172773D01*
X0064026Y0173073D01*
X0063991Y0173371D01*
X0063949Y0173669D01*
X0063900Y0173965D01*
X0063843Y0174260D01*
X0063779Y0174554D01*
X0063709Y0174846D01*
X0063631Y0175136D01*
X0063545Y0175425D01*
X0063453Y0175711D01*
X0063354Y0175995D01*
X0063248Y0176276D01*
X0063135Y0176554D01*
X0063016Y0176830D01*
X0062889Y0177103D01*
X0062756Y0177372D01*
X0062617Y0177638D01*
X0062471Y0177901D01*
X0062319Y0178160D01*
X0062160Y0178416D01*
X0061995Y0178667D01*
X0061824Y0178914D01*
X0061647Y0179157D01*
X0061464Y0179396D01*
X0061276Y0179630D01*
X0061082Y0179859D01*
X0060882Y0180083D01*
X0060677Y0180303D01*
X0060466Y0180517D01*
X0060250Y0180727D01*
X0060030Y0180931D01*
X0059804Y0181129D01*
X0059573Y0181322D01*
X0059338Y0181509D01*
X0059099Y0181691D01*
X0058855Y0181866D01*
X0058606Y0182036D01*
X0058354Y0182199D01*
X0058098Y0182356D01*
X0057838Y0182507D01*
X0057574Y0182651D01*
X0057307Y0182789D01*
X0057037Y0182921D01*
X0056764Y0183045D01*
X0056487Y0183163D01*
X0056208Y0183274D01*
X0055926Y0183379D01*
X0055642Y0183476D01*
X0055355Y0183567D01*
X0055066Y0183650D01*
X0054776Y0183726D01*
X0054483Y0183796D01*
X0054189Y0183858D01*
X0053894Y0183912D01*
X0053597Y0183960D01*
X0053299Y0184000D01*
X0053000Y0184033D01*
X0052701Y0184059D01*
X0052401Y0184077D01*
X0052101Y0184088D01*
X0051800Y0184092D01*
X0051499Y0184088D01*
X0051199Y0184077D01*
X0050899Y0184059D01*
X0050600Y0184033D01*
X0050301Y0184000D01*
X0050003Y0183960D01*
X0049706Y0183912D01*
X0049411Y0183858D01*
X0049117Y0183796D01*
X0048824Y0183726D01*
X0048534Y0183650D01*
X0048245Y0183567D01*
X0047958Y0183476D01*
X0047674Y0183379D01*
X0047392Y0183274D01*
X0047113Y0183163D01*
X0046836Y0183045D01*
X0046563Y0182921D01*
X0046293Y0182789D01*
X0046026Y0182651D01*
X0045762Y0182507D01*
X0045502Y0182356D01*
X0045246Y0182199D01*
X0044994Y0182036D01*
X0044745Y0181866D01*
X0044501Y0181691D01*
X0044262Y0181509D01*
X0044027Y0181322D01*
X0043796Y0181129D01*
X0043570Y0180931D01*
X0043350Y0180727D01*
X0043134Y0180517D01*
X0042923Y0180303D01*
X0042718Y0180083D01*
X0042518Y0179859D01*
X0042324Y0179630D01*
X0042136Y0179396D01*
X0041953Y0179157D01*
X0041776Y0178914D01*
X0041605Y0178667D01*
X0041440Y0178416D01*
X0041281Y0178160D01*
X0041129Y0177901D01*
X0040983Y0177638D01*
X0040844Y0177372D01*
X0040711Y0177103D01*
X0040584Y0176830D01*
X0040465Y0176554D01*
X0040352Y0176276D01*
X0040246Y0175995D01*
X0040147Y0175711D01*
X0040055Y0175425D01*
X0039969Y0175136D01*
X0039891Y0174846D01*
X0039821Y0174554D01*
X0039757Y0174260D01*
X0039700Y0173965D01*
X0039651Y0173669D01*
X0039609Y0173371D01*
X0039574Y0173073D01*
X0039547Y0172773D01*
X0039526Y0172474D01*
X0039514Y0172173D01*
X0039508Y0171873D01*
X0039510Y0171572D01*
X0039519Y0171272D01*
X0039536Y0170972D01*
X0039560Y0170672D01*
X0039591Y0170373D01*
X0039630Y0170075D01*
X0039675Y0169778D01*
X0039728Y0169482D01*
X0039789Y0169188D01*
X0039856Y0168895D01*
X0039931Y0168604D01*
X0040013Y0168315D01*
X0040101Y0168027D01*
X0040197Y0167743D01*
X0040300Y0167460D01*
X0040409Y0167180D01*
X0040526Y0166903D01*
X0040649Y0166629D01*
X0040778Y0166358D01*
X0040915Y0166090D01*
X0041058Y0165826D01*
X0041207Y0165565D01*
X0041362Y0165308D01*
X0041524Y0165054D01*
X0041692Y0164805D01*
X0041866Y0164560D01*
X0042046Y0164319D01*
X0042232Y0164083D01*
X0042424Y0163852D01*
X0042621Y0163625D01*
X0042823Y0163403D01*
X0043031Y0163186D01*
X0043245Y0162974D01*
X0043463Y0162767D01*
X0043686Y0162566D01*
X0043915Y0162371D01*
X0044147Y0162181D01*
X0044385Y0161996D01*
X0044441Y0162072D01*
X0044206Y0162254D01*
X0043975Y0162443D01*
X0043748Y0162637D01*
X0043526Y0162837D01*
X0043310Y0163042D01*
X0043098Y0163252D01*
X0042892Y0163467D01*
X0042691Y0163687D01*
X0042495Y0163913D01*
X0042305Y0164142D01*
X0042121Y0164377D01*
X0041942Y0164616D01*
X0041769Y0164859D01*
X0041603Y0165106D01*
X0041442Y0165358D01*
X0041288Y0165613D01*
X0041140Y0165872D01*
X0040998Y0166134D01*
X0040863Y0166400D01*
X0040734Y0166669D01*
X0040612Y0166941D01*
X0040496Y0167216D01*
X0040387Y0167494D01*
X0040286Y0167774D01*
X0040191Y0168057D01*
X0040103Y0168342D01*
X0040022Y0168629D01*
X0039947Y0168917D01*
X0039881Y0169208D01*
X0039821Y0169500D01*
X0039768Y0169794D01*
X0039723Y0170089D01*
X0039684Y0170384D01*
X0039653Y0170681D01*
X0039630Y0170978D01*
X0039613Y0171276D01*
X0039604Y0171574D01*
X0039602Y0171872D01*
X0039608Y0172171D01*
X0039620Y0172469D01*
X0039640Y0172766D01*
X0039668Y0173063D01*
X0039702Y0173359D01*
X0039744Y0173655D01*
X0039793Y0173949D01*
X0039849Y0174242D01*
X0039912Y0174533D01*
X0039983Y0174823D01*
X0040060Y0175111D01*
X0040144Y0175397D01*
X0040236Y0175681D01*
X0040334Y0175963D01*
X0040439Y0176242D01*
X0040551Y0176518D01*
X0040670Y0176792D01*
X0040795Y0177062D01*
X0040927Y0177330D01*
X0041066Y0177594D01*
X0041211Y0177855D01*
X0041362Y0178112D01*
X0041519Y0178365D01*
X0041683Y0178614D01*
X0041853Y0178860D01*
X0042028Y0179101D01*
X0042210Y0179338D01*
X0042397Y0179570D01*
X0042589Y0179797D01*
X0042788Y0180020D01*
X0042991Y0180238D01*
X0043200Y0180451D01*
X0043414Y0180659D01*
X0043634Y0180861D01*
X0043857Y0181058D01*
X0044086Y0181249D01*
X0044320Y0181435D01*
X0044557Y0181615D01*
X0044799Y0181789D01*
X0045046Y0181957D01*
X0045296Y0182119D01*
X0045550Y0182275D01*
X0045808Y0182425D01*
X0046070Y0182568D01*
X0046335Y0182705D01*
X0046603Y0182836D01*
X0046874Y0182959D01*
X0047149Y0183076D01*
X0047426Y0183187D01*
X0047706Y0183290D01*
X0047988Y0183387D01*
X0048272Y0183477D01*
X0048559Y0183559D01*
X0048847Y0183635D01*
X0049137Y0183704D01*
X0049429Y0183765D01*
X0049722Y0183820D01*
X0050017Y0183867D01*
X0050312Y0183907D01*
X0050609Y0183940D01*
X0050906Y0183965D01*
X0051204Y0183983D01*
X0051502Y0183994D01*
X0051800Y0183998D01*
X0052098Y0183994D01*
X0052396Y0183983D01*
X0052694Y0183965D01*
X0052991Y0183940D01*
X0053288Y0183907D01*
X0053583Y0183867D01*
X0053878Y0183820D01*
X0054171Y0183765D01*
X0054463Y0183704D01*
X0054753Y0183635D01*
X0055041Y0183559D01*
X0055328Y0183477D01*
X0055612Y0183387D01*
X0055894Y0183290D01*
X0056174Y0183187D01*
X0056451Y0183076D01*
X0056726Y0182959D01*
X0056997Y0182836D01*
X0057265Y0182705D01*
X0057530Y0182568D01*
X0057792Y0182425D01*
X0058050Y0182275D01*
X0058304Y0182119D01*
X0058554Y0181957D01*
X0058801Y0181789D01*
X0059043Y0181615D01*
X0059280Y0181435D01*
X0059514Y0181249D01*
X0059743Y0181058D01*
X0059966Y0180861D01*
X0060186Y0180659D01*
X0060400Y0180451D01*
X0060609Y0180238D01*
X0060812Y0180020D01*
X0061011Y0179797D01*
X0061203Y0179570D01*
X0061390Y0179338D01*
X0061572Y0179101D01*
X0061747Y0178860D01*
X0061917Y0178614D01*
X0062081Y0178365D01*
X0062238Y0178112D01*
X0062389Y0177855D01*
X0062534Y0177594D01*
X0062673Y0177330D01*
X0062805Y0177062D01*
X0062930Y0176792D01*
X0063049Y0176518D01*
X0063161Y0176242D01*
X0063266Y0175963D01*
X0063364Y0175681D01*
X0063456Y0175397D01*
X0063540Y0175111D01*
X0063617Y0174823D01*
X0063688Y0174533D01*
X0063751Y0174242D01*
X0063807Y0173949D01*
X0063856Y0173655D01*
X0063898Y0173359D01*
X0063932Y0173063D01*
X0063960Y0172766D01*
X0063980Y0172469D01*
X0063992Y0172171D01*
X0063998Y0171872D01*
X0063996Y0171574D01*
X0063987Y0171276D01*
X0063970Y0170978D01*
X0063947Y0170681D01*
X0063916Y0170384D01*
X0063877Y0170089D01*
X0063832Y0169794D01*
X0063779Y0169500D01*
X0063719Y0169208D01*
X0063653Y0168917D01*
X0063578Y0168629D01*
X0063497Y0168342D01*
X0063409Y0168057D01*
X0063314Y0167774D01*
X0063213Y0167494D01*
X0063104Y0167216D01*
X0062988Y0166941D01*
X0062866Y0166669D01*
X0062737Y0166400D01*
X0062602Y0166134D01*
X0062460Y0165872D01*
X0062312Y0165613D01*
X0062158Y0165358D01*
X0061997Y0165106D01*
X0061831Y0164859D01*
X0061658Y0164616D01*
X0061479Y0164377D01*
X0061295Y0164142D01*
X0061105Y0163913D01*
X0060909Y0163687D01*
X0060708Y0163467D01*
X0060502Y0163252D01*
X0060290Y0163042D01*
X0060074Y0162837D01*
X0059852Y0162637D01*
X0059625Y0162443D01*
X0059394Y0162254D01*
X0059159Y0162072D01*
X0059102Y0162147D01*
X0059336Y0162328D01*
X0059565Y0162515D01*
X0059790Y0162708D01*
X0060010Y0162906D01*
X0060225Y0163109D01*
X0060435Y0163318D01*
X0060640Y0163532D01*
X0060839Y0163750D01*
X0061033Y0163974D01*
X0061222Y0164202D01*
X0061405Y0164434D01*
X0061582Y0164671D01*
X0061753Y0164913D01*
X0061919Y0165158D01*
X0062078Y0165407D01*
X0062231Y0165661D01*
X0062378Y0165917D01*
X0062519Y0166178D01*
X0062653Y0166442D01*
X0062781Y0166709D01*
X0062902Y0166979D01*
X0063017Y0167251D01*
X0063125Y0167527D01*
X0063226Y0167805D01*
X0063320Y0168086D01*
X0063407Y0168368D01*
X0063488Y0168653D01*
X0063561Y0168940D01*
X0063628Y0169228D01*
X0063687Y0169518D01*
X0063739Y0169810D01*
X0063784Y0170102D01*
X0063822Y0170396D01*
X0063853Y0170690D01*
X0063877Y0170985D01*
X0063893Y0171280D01*
X0063902Y0171576D01*
X0063904Y0171872D01*
X0063898Y0172168D01*
X0063886Y0172464D01*
X0063866Y0172759D01*
X0063839Y0173054D01*
X0063805Y0173348D01*
X0063763Y0173641D01*
X0063715Y0173933D01*
X0063659Y0174223D01*
X0063596Y0174512D01*
X0063526Y0174800D01*
X0063449Y0175086D01*
X0063366Y0175370D01*
X0063275Y0175651D01*
X0063177Y0175931D01*
X0063073Y0176208D01*
X0062962Y0176482D01*
X0062844Y0176753D01*
X0062720Y0177022D01*
X0062589Y0177287D01*
X0062451Y0177549D01*
X0062308Y0177808D01*
X0062158Y0178063D01*
X0062001Y0178315D01*
X0061839Y0178562D01*
X0061671Y0178805D01*
X0061496Y0179045D01*
X0061316Y0179280D01*
X0061131Y0179510D01*
X0060939Y0179736D01*
X0060743Y0179957D01*
X0060541Y0180173D01*
X0060333Y0180384D01*
X0060121Y0180590D01*
X0059903Y0180791D01*
X0059681Y0180987D01*
X0059454Y0181177D01*
X0059223Y0181361D01*
X0058987Y0181539D01*
X0058747Y0181712D01*
X0058502Y0181879D01*
X0058254Y0182040D01*
X0058001Y0182195D01*
X0057745Y0182343D01*
X0057486Y0182485D01*
X0057223Y0182621D01*
X0056957Y0182751D01*
X0056688Y0182873D01*
X0056415Y0182990D01*
X0056140Y0183099D01*
X0055863Y0183202D01*
X0055583Y0183298D01*
X0055301Y0183387D01*
X0055016Y0183469D01*
X0054730Y0183544D01*
X0054442Y0183612D01*
X0054153Y0183673D01*
X0053862Y0183727D01*
X0053569Y0183774D01*
X0053276Y0183814D01*
X0052982Y0183846D01*
X0052687Y0183871D01*
X0052392Y0183890D01*
X0052096Y0183900D01*
X0051800Y0183904D01*
X0051504Y0183900D01*
X0051208Y0183890D01*
X0050913Y0183871D01*
X0050618Y0183846D01*
X0050324Y0183814D01*
X0050031Y0183774D01*
X0049738Y0183727D01*
X0049447Y0183673D01*
X0049158Y0183612D01*
X0048870Y0183544D01*
X0048584Y0183469D01*
X0048299Y0183387D01*
X0048017Y0183298D01*
X0047737Y0183202D01*
X0047460Y0183099D01*
X0047185Y0182990D01*
X0046912Y0182873D01*
X0046643Y0182751D01*
X0046377Y0182621D01*
X0046114Y0182485D01*
X0045855Y0182343D01*
X0045599Y0182195D01*
X0045346Y0182040D01*
X0045098Y0181879D01*
X0044853Y0181712D01*
X0044613Y0181539D01*
X0044377Y0181361D01*
X0044146Y0181177D01*
X0043919Y0180987D01*
X0043697Y0180791D01*
X0043479Y0180590D01*
X0043267Y0180384D01*
X0043059Y0180173D01*
X0042857Y0179957D01*
X0042661Y0179736D01*
X0042469Y0179510D01*
X0042284Y0179280D01*
X0042104Y0179045D01*
X0041929Y0178805D01*
X0041761Y0178562D01*
X0041599Y0178315D01*
X0041442Y0178063D01*
X0041292Y0177808D01*
X0041149Y0177549D01*
X0041011Y0177287D01*
X0040880Y0177022D01*
X0040756Y0176753D01*
X0040638Y0176482D01*
X0040527Y0176208D01*
X0040423Y0175931D01*
X0040325Y0175651D01*
X0040234Y0175370D01*
X0040151Y0175086D01*
X0040074Y0174800D01*
X0040004Y0174512D01*
X0039941Y0174223D01*
X0039885Y0173933D01*
X0039837Y0173641D01*
X0039795Y0173348D01*
X0039761Y0173054D01*
X0039734Y0172759D01*
X0039714Y0172464D01*
X0039702Y0172168D01*
X0039696Y0171872D01*
X0039698Y0171576D01*
X0039707Y0171280D01*
X0039723Y0170985D01*
X0039747Y0170690D01*
X0039778Y0170396D01*
X0039816Y0170102D01*
X0039861Y0169810D01*
X0039913Y0169518D01*
X0039972Y0169228D01*
X0040039Y0168940D01*
X0040112Y0168653D01*
X0040193Y0168368D01*
X0040280Y0168086D01*
X0040374Y0167805D01*
X0040475Y0167527D01*
X0040583Y0167251D01*
X0040698Y0166979D01*
X0040819Y0166709D01*
X0040947Y0166442D01*
X0041081Y0166178D01*
X0041222Y0165917D01*
X0041369Y0165661D01*
X0041522Y0165407D01*
X0041681Y0165158D01*
X0041847Y0164913D01*
X0042018Y0164671D01*
X0042195Y0164434D01*
X0042378Y0164202D01*
X0042567Y0163974D01*
X0042761Y0163750D01*
X0042960Y0163532D01*
X0043165Y0163318D01*
X0043375Y0163109D01*
X0043590Y0162906D01*
X0043810Y0162708D01*
X0044035Y0162515D01*
X0044264Y0162328D01*
X0044498Y0162147D01*
D16*
X0081800Y0076800D02*
X0081800Y0074300D01*
X0076800Y0074300D01*
X0076800Y0069300D01*
X0086800Y0069300D01*
X0086800Y0074300D01*
X0081800Y0074300D01*
X0076800Y0069300D02*
X0076800Y0049300D01*
X0081800Y0049300D01*
X0081800Y0046800D01*
X0081800Y0049300D02*
X0086800Y0049300D01*
X0086800Y0069300D01*
M02*
